SplineFontDB: 3.2
FontName: hin58
FullName: hin58
FamilyName: hin58
Weight: Book
Copyright: Copyright (c) 2016, Ek Type. All rights reserved.
Version: 1.000
ItalicAngle: 0
UnderlinePosition: -100
UnderlineWidth: 50
Ascent: 800
Descent: 200
InvalidEm: 0
sfntRevision: 0x00024ccc
LayerCount: 2
Layer: 0 1 "Back" 1
Layer: 1 1 "Fore" 0
XUID: [1021 467 -1121320856 7697282]
StyleMap: 0x0040
FSType: 0
OS2Version: 3
OS2_WeightWidthSlopeOnly: 0
OS2_UseTypoMetrics: 0
CreationTime: 1554813385
ModificationTime: 1672882474
PfmFamily: 81
TTFWeight: 400
TTFWidth: 5
LineGap: 0
VLineGap: 0
Panose: 0 0 0 0 0 0 0 0 0 0
OS2TypoAscent: 1115
OS2TypoAOffset: 0
OS2TypoDescent: -545
OS2TypoDOffset: 0
OS2TypoLinegap: 0
OS2WinAscent: 1115
OS2WinAOffset: 0
OS2WinDescent: 545
OS2WinDOffset: 0
HheadAscent: 1115
HheadAOffset: 0
HheadDescent: -545
HheadDOffset: 0
OS2SubXSize: 650
OS2SubYSize: 600
OS2SubXOff: 0
OS2SubYOff: 75
OS2SupXSize: 650
OS2SupYSize: 600
OS2SupXOff: 0
OS2SupYOff: 350
OS2StrikeYSize: 50
OS2StrikeYPos: 308
OS2CapHeight: 713
OS2XHeight: 514
OS2Vendor: 'EKTF'
OS2CodePages: 20000193.00000000
OS2UnicodeRanges: a000807f.0000207b.00000000.00000000
Lookup: 1 0 0 "'aalt' Access All Alternates lookup 0" { "'aalt' Access All Alternates lookup 0 subtable"  } ['aalt' ('DFLT' <'dflt' > 'dev2' <'HIN ' 'MAR ' 'dflt' > 'deva' <'HIN ' 'MAR ' 'dflt' > 'latn' <'AZE ' 'CAT ' 'CRT ' 'KAZ ' 'MOL ' 'NLD ' 'ROM ' 'TAT ' 'TRK ' 'dflt' > ) ]
Lookup: 3 0 0 "'aalt' Access All Alternates lookup 1" { "'aalt' Access All Alternates lookup 1 subtable"  } ['aalt' ('DFLT' <'dflt' > 'dev2' <'HIN ' 'MAR ' 'dflt' > 'deva' <'HIN ' 'MAR ' 'dflt' > 'latn' <'AZE ' 'CAT ' 'CRT ' 'KAZ ' 'MOL ' 'NLD ' 'ROM ' 'TAT ' 'TRK ' 'dflt' > ) ]

StartChar: exclam
Encoding: 33 33 3
Width: 297
GlyphClass: 2
Flags: W
LayerCount: 2
Fore
SplineSet
106 699 m 1,0,1
 123 710 123 710 143 715.5 c 128,-1,2
 163 721 163 721 192 721 c 1,3,-1
 174 187 l 1,4,5
 164 179 164 179 149.5 174.5 c 128,-1,6
 135 170 135 170 123 170 c 1,7,-1
 106 699 l 1,0,1
216 41 m 1,8,9
 205 21 205 21 185.5 3.5 c 128,-1,10
 166 -14 166 -14 149 -22 c 1,11,12
 131 -14 131 -14 112 3.5 c 128,-1,13
 93 21 93 21 82 41 c 1,14,15
 93 60 93 60 112.5 78.5 c 128,-1,16
 132 97 132 97 149 105 c 1,17,18
 169 97 169 97 188 78.5 c 128,-1,19
 207 60 207 60 216 41 c 1,8,9
EndSplineSet
EndChar

StartChar: quotedbl
Encoding: 34 34 4
Width: 376
GlyphClass: 2
Flags: W
LayerCount: 2
Fore
SplineSet
62 751 m 1,0,1
 80 761 80 761 101.5 765.5 c 128,-1,2
 123 770 123 770 144 770 c 1,3,-1
 122 505 l 1,4,5
 117 500 117 500 106.5 496.5 c 128,-1,6
 96 493 96 493 85 493 c 1,7,-1
 62 751 l 1,0,1
235 753 m 1,8,9
 253 763 253 763 274.5 767.5 c 128,-1,10
 296 772 296 772 317 772 c 1,11,-1
 295 507 l 1,12,13
 290 502 290 502 279.5 498.5 c 128,-1,14
 269 495 269 495 258 495 c 1,15,-1
 235 753 l 1,8,9
EndSplineSet
EndChar

StartChar: numbersign
Encoding: 35 35 5
Width: 708
GlyphClass: 2
Flags: W
LayerCount: 2
Fore
SplineSet
487 669 m 1,0,1
 514 688 514 688 550 688 c 1,2,-1
 518 486 l 1,3,-1
 683 486 l 1,4,5
 681 467 681 467 671 450.5 c 128,-1,6
 661 434 661 434 647 434 c 2,7,-1
 510 434 l 1,8,-1
 482 253 l 1,9,-1
 651 253 l 1,10,11
 649 234 649 234 639 217.5 c 128,-1,12
 629 201 629 201 615 201 c 2,13,-1
 474 201 l 1,14,-1
 444 9 l 1,15,16
 433 1 433 1 415 -3 c 128,-1,17
 397 -7 397 -7 381 -7 c 1,18,-1
 413 201 l 1,19,-1
 245 201 l 1,20,-1
 215 9 l 1,21,22
 204 1 204 1 186 -3 c 128,-1,23
 168 -7 168 -7 152 -7 c 1,24,-1
 184 201 l 1,25,-1
 26 201 l 1,26,27
 29 221 29 221 39.5 237 c 128,-1,28
 50 253 50 253 62 253 c 2,29,-1
 192 253 l 1,30,-1
 221 434 l 1,31,-1
 57 434 l 1,32,33
 60 454 60 454 70 470 c 128,-1,34
 80 486 80 486 93 486 c 2,35,-1
 229 486 l 1,36,-1
 258 669 l 1,37,38
 285 688 285 688 321 688 c 1,39,-1
 289 486 l 1,40,-1
 458 486 l 1,41,-1
 487 669 l 1,0,1
253 253 m 1,42,-1
 421 253 l 1,43,-1
 450 434 l 1,44,-1
 281 434 l 1,45,-1
 253 253 l 1,42,-1
EndSplineSet
EndChar

StartChar: dollar
Encoding: 36 36 6
Width: 633
GlyphClass: 2
Flags: W
LayerCount: 2
Fore
SplineSet
61 146 m 1,0,1
 71 160 71 160 90 172.5 c 128,-1,2
 109 185 109 185 132 188 c 1,3,4
 135 162 135 162 145.5 136.5 c 128,-1,5
 156 111 156 111 176.5 89 c 128,-1,6
 197 67 197 67 227.5 51.5 c 128,-1,7
 258 36 258 36 300 31 c 1,8,-1
 300 330 l 1,9,-1
 264 340 l 2,10,11
 227 350 227 350 194 364 c 128,-1,12
 161 378 161 378 136 399 c 128,-1,13
 111 420 111 420 96.5 449 c 128,-1,14
 82 478 82 478 82 518 c 0,15,16
 82 552 82 552 98 585 c 128,-1,17
 114 618 114 618 143 645.5 c 128,-1,18
 172 673 172 673 212 692 c 128,-1,19
 252 711 252 711 300 718 c 1,20,-1
 300 802 l 1,21,22
 308 810 308 810 321 814.5 c 128,-1,23
 334 819 334 819 350 819 c 1,24,-1
 350 721 l 1,25,26
 402 720 402 720 439.5 706 c 128,-1,27
 477 692 477 692 500.5 671.5 c 128,-1,28
 524 651 524 651 535.5 629 c 128,-1,29
 547 607 547 607 548 590 c 1,30,31
 540 576 540 576 520.5 564 c 128,-1,32
 501 552 501 552 480 548 c 1,33,34
 472 590 472 590 441 625.5 c 128,-1,35
 410 661 410 661 350 672 c 1,36,-1
 350 399 l 1,37,-1
 387 390 l 2,38,39
 439 376 439 376 475 357.5 c 128,-1,40
 511 339 511 339 533.5 315.5 c 128,-1,41
 556 292 556 292 565.5 265 c 128,-1,42
 575 238 575 238 575 207 c 0,43,44
 575 168 575 168 559 131.5 c 128,-1,45
 543 95 543 95 514 64.5 c 128,-1,46
 485 34 485 34 443.5 13 c 128,-1,47
 402 -8 402 -8 350 -15 c 1,48,-1
 350 -93 l 1,49,50
 341 -102 341 -102 327 -106 c 128,-1,51
 313 -110 313 -110 300 -110 c 1,52,-1
 300 -19 l 1,53,-1
 298 -19 l 2,54,55
 236 -19 236 -19 192 -2.5 c 128,-1,56
 148 14 148 14 119 38.5 c 128,-1,57
 90 63 90 63 76 92 c 128,-1,58
 62 121 62 121 61 146 c 1,0,1
350 316 m 1,59,-1
 350 29 l 1,60,61
 383 31 383 31 410.5 42.5 c 128,-1,62
 438 54 438 54 457.5 72.5 c 128,-1,63
 477 91 477 91 488 115.5 c 128,-1,64
 499 140 499 140 499 169 c 0,65,66
 499 223 499 223 467 258.5 c 128,-1,67
 435 294 435 294 359 314 c 2,68,-1
 350 316 l 1,59,-1
159 550 m 0,69,70
 159 492 159 492 197 460.5 c 128,-1,71
 235 429 235 429 300 412 c 1,72,-1
 300 675 l 1,73,74
 271 674 271 674 245.5 664.5 c 128,-1,75
 220 655 220 655 201 638.5 c 128,-1,76
 182 622 182 622 170.5 599.5 c 128,-1,77
 159 577 159 577 159 550 c 0,69,70
EndSplineSet
EndChar

StartChar: percent
Encoding: 37 37 7
Width: 872
GlyphClass: 2
Flags: W
LayerCount: 2
Fore
SplineSet
663 721 m 1,0,1
 677 719 677 719 688 712 c 128,-1,2
 699 705 699 705 704 695 c 1,3,-1
 206 -7 l 1,4,5
 192 -6 192 -6 181 1.5 c 128,-1,6
 170 9 170 9 165 19 c 1,7,-1
 663 721 l 1,0,1
550 169 m 0,8,9
 550 136 550 136 558.5 109.5 c 128,-1,10
 567 83 567 83 581.5 65 c 128,-1,11
 596 47 596 47 615.5 37 c 128,-1,12
 635 27 635 27 657 27 c 0,13,14
 701 27 701 27 724.5 56.5 c 128,-1,15
 748 86 748 86 748 147 c 0,16,17
 748 177 748 177 741 202.5 c 128,-1,18
 734 228 734 228 721 247 c 128,-1,19
 708 266 708 266 689 277 c 128,-1,20
 670 288 670 288 645 288 c 0,21,22
 608 288 608 288 579 259 c 128,-1,23
 550 230 550 230 550 169 c 0,8,9
478 145 m 0,24,25
 478 183 478 183 493 215.5 c 128,-1,26
 508 248 508 248 533.5 272 c 128,-1,27
 559 296 559 296 592.5 310 c 128,-1,28
 626 324 626 324 663 324 c 0,29,30
 702 324 702 324 731.5 311.5 c 128,-1,31
 761 299 761 299 780.5 278 c 128,-1,32
 800 257 800 257 810 229.5 c 128,-1,33
 820 202 820 202 820 172 c 0,34,35
 820 133 820 133 806.5 99.5 c 128,-1,36
 793 66 793 66 769 42 c 128,-1,37
 745 18 745 18 712 4.5 c 128,-1,38
 679 -9 679 -9 639 -9 c 0,39,40
 601 -9 601 -9 571.5 3 c 128,-1,41
 542 15 542 15 521 35.5 c 128,-1,42
 500 56 500 56 489 84 c 128,-1,43
 478 112 478 112 478 145 c 0,24,25
126 576 m 4,44,45
 126 543 126 543 134.5 516.5 c 132,-1,46
 143 490 143 490 157.5 471.5 c 132,-1,47
 172 453 172 453 191.5 443 c 132,-1,48
 211 433 211 433 233 433 c 4,49,50
 276 433 276 433 300 462.5 c 132,-1,51
 324 492 324 492 324 554 c 4,52,53
 324 584 324 584 317 609.5 c 132,-1,54
 310 635 310 635 297 653.5 c 132,-1,55
 284 672 284 672 265 683 c 132,-1,56
 246 694 246 694 221 694 c 4,57,58
 203 694 203 694 185.5 687 c 132,-1,59
 168 680 168 680 155 665.5 c 132,-1,60
 142 651 142 651 134 628.5 c 132,-1,61
 126 606 126 606 126 576 c 4,44,45
54 551 m 4,62,63
 54 589 54 589 69 622 c 132,-1,64
 84 655 84 655 109.5 679 c 132,-1,65
 135 703 135 703 168.5 716.5 c 132,-1,66
 202 730 202 730 239 730 c 4,67,68
 278 730 278 730 307.5 717.5 c 132,-1,69
 337 705 337 705 356.5 684 c 132,-1,70
 376 663 376 663 386 635.5 c 132,-1,71
 396 608 396 608 396 578 c 4,72,73
 396 539 396 539 382.5 505.5 c 132,-1,74
 369 472 369 472 345 448 c 132,-1,75
 321 424 321 424 287.5 410.5 c 132,-1,76
 254 397 254 397 214 397 c 4,77,78
 177 397 177 397 147.5 409 c 132,-1,79
 118 421 118 421 97 441.5 c 132,-1,80
 76 462 76 462 65 490 c 132,-1,81
 54 518 54 518 54 551 c 4,62,63
EndSplineSet
EndChar

StartChar: ampersand
Encoding: 38 38 8
Width: 795
GlyphClass: 2
Flags: W
LayerCount: 2
Fore
SplineSet
556 375 m 1,0,1
 567 391 567 391 587 403 c 128,-1,2
 607 415 607 415 626 417 c 1,3,4
 644 398 644 398 656.5 368 c 128,-1,5
 669 338 669 338 669 296 c 0,6,7
 669 247 669 247 653 208 c 128,-1,8
 637 169 637 169 616 140 c 1,9,10
 658 109 658 109 700 80.5 c 128,-1,11
 742 52 742 52 784 29 c 1,12,-1
 784 21 l 1,13,14
 772 11 772 11 747.5 2.5 c 128,-1,15
 723 -6 723 -6 697 -7 c 1,16,17
 665 10 665 10 632.5 31.5 c 128,-1,18
 600 53 600 53 568 78 c 1,19,20
 527 39 527 39 469.5 12.5 c 128,-1,21
 412 -14 412 -14 326 -14 c 0,22,23
 262 -14 262 -14 211.5 1.5 c 128,-1,24
 161 17 161 17 126.5 45.5 c 128,-1,25
 92 74 92 74 74 112.5 c 128,-1,26
 56 151 56 151 56 198 c 0,27,28
 56 237 56 237 68.5 268 c 128,-1,29
 81 299 81 299 104 324 c 128,-1,30
 127 349 127 349 159 369 c 128,-1,31
 191 389 191 389 231 406 c 1,32,33
 205 440 205 440 186.5 476 c 128,-1,34
 168 512 168 512 168 552 c 0,35,36
 168 591 168 591 185.5 624.5 c 128,-1,37
 203 658 203 658 232.5 682 c 128,-1,38
 262 706 262 706 300.5 720 c 128,-1,39
 339 734 339 734 381 734 c 0,40,41
 417 734 417 734 444 724 c 128,-1,42
 471 714 471 714 489 696.5 c 128,-1,43
 507 679 507 679 515.5 656 c 128,-1,44
 524 633 524 633 524 607 c 0,45,46
 524 568 524 568 506 537.5 c 128,-1,47
 488 507 488 507 460 483 c 128,-1,48
 432 459 432 459 397.5 440.5 c 128,-1,49
 363 422 363 422 329 407 c 1,50,51
 345 387 345 387 371 359 c 128,-1,52
 397 331 397 331 430.5 299 c 128,-1,53
 464 267 464 267 503.5 232 c 128,-1,54
 543 197 543 197 586 163 c 1,55,56
 594 179 594 179 601 201.5 c 128,-1,57
 608 224 608 224 608 253 c 0,58,59
 608 300 608 300 591 329 c 128,-1,60
 574 358 574 358 556 375 c 1,0,1
363 42 m 0,61,62
 426 42 426 42 468.5 60.5 c 128,-1,63
 511 79 511 79 537 101 c 1,64,65
 491 137 491 137 448 176 c 128,-1,66
 405 215 405 215 368.5 251.5 c 128,-1,67
 332 288 332 288 302.5 320.5 c 128,-1,68
 273 353 273 353 255 377 c 1,69,70
 204 353 204 353 172.5 319.5 c 128,-1,71
 141 286 141 286 141 226 c 0,72,73
 141 181 141 181 159 147 c 128,-1,74
 177 113 177 113 207 89.5 c 128,-1,75
 237 66 237 66 277.5 54 c 128,-1,76
 318 42 318 42 363 42 c 0,61,62
244 581 m 0,77,78
 244 541 244 541 262 505 c 128,-1,79
 280 469 280 469 307 435 c 1,80,81
 338 451 338 451 363.5 466.5 c 128,-1,82
 389 482 389 482 406.5 500 c 128,-1,83
 424 518 424 518 433.5 540 c 128,-1,84
 443 562 443 562 443 591 c 0,85,86
 443 611 443 611 438 629.5 c 128,-1,87
 433 648 433 648 422 662 c 128,-1,88
 411 676 411 676 393.5 684.5 c 128,-1,89
 376 693 376 693 351 693 c 0,90,91
 331 693 331 693 311.5 686.5 c 128,-1,92
 292 680 292 680 277 666.5 c 128,-1,93
 262 653 262 653 253 632 c 128,-1,94
 244 611 244 611 244 581 c 0,77,78
EndSplineSet
EndChar

StartChar: quotesingle
Encoding: 39 39 9
Width: 203
GlyphClass: 2
Flags: W
LayerCount: 2
Fore
SplineSet
62 753 m 1,0,1
 80 763 80 763 101.5 767.5 c 128,-1,2
 123 772 123 772 144 772 c 1,3,-1
 122 507 l 1,4,5
 117 502 117 502 106.5 498.5 c 128,-1,6
 96 495 96 495 85 495 c 1,7,-1
 62 753 l 1,0,1
EndSplineSet
EndChar

StartChar: parenleft
Encoding: 40 40 10
Width: 353
GlyphClass: 2
Flags: W
LayerCount: 2
Fore
SplineSet
306 829 m 1,0,1
 316 829 316 829 325.5 822.5 c 128,-1,2
 335 816 335 816 338 809 c 1,3,4
 250 707 250 707 208.5 591.5 c 128,-1,5
 167 476 167 476 167 335 c 0,6,7
 167 261 167 261 180.5 195 c 128,-1,8
 194 129 194 129 216 72 c 128,-1,9
 238 15 238 15 267 -33 c 128,-1,10
 296 -81 296 -81 326 -119 c 1,11,12
 317 -136 317 -136 299 -149.5 c 128,-1,13
 281 -163 281 -163 261 -166 c 1,14,15
 235 -136 235 -136 206 -91 c 128,-1,16
 177 -46 177 -46 152 12.5 c 128,-1,17
 127 71 127 71 111 142 c 128,-1,18
 95 213 95 213 95 295 c 0,19,20
 95 381 95 381 111 457.5 c 128,-1,21
 127 534 127 534 155.5 600.5 c 128,-1,22
 184 667 184 667 222.5 724 c 128,-1,23
 261 781 261 781 306 829 c 1,0,1
EndSplineSet
Substitution2: "'sinf' Scientific Inferiors lookup 21 subtable" parenleft.inferior
Substitution2: "'subs' Subscript lookup 20 subtable" parenleft.inferior
Substitution2: "'sups' Superscript lookup 19 subtable" parenleft.superior
AlternateSubs2: "'aalt' Access All Alternates lookup 1 subtable" parenleft.inferior parenleft.superior
EndChar

StartChar: parenright
Encoding: 41 41 11
Width: 353
GlyphClass: 2
Flags: W
LayerCount: 2
Fore
SplineSet
47 -159 m 1,0,1
 37 -159 37 -159 27.5 -152.5 c 128,-1,2
 18 -146 18 -146 15 -139 c 1,3,4
 98 -34 98 -34 142 80 c 128,-1,5
 186 194 186 194 186 335 c 0,6,7
 186 409 186 409 172.5 475 c 128,-1,8
 159 541 159 541 136.5 598.5 c 128,-1,9
 114 656 114 656 85 704.5 c 128,-1,10
 56 753 56 753 26 791 c 1,11,12
 36 808 36 808 54 820.5 c 128,-1,13
 72 833 72 833 92 836 c 1,14,15
 119 806 119 806 148.5 760 c 128,-1,16
 178 714 178 714 202 655.5 c 128,-1,17
 226 597 226 597 242 526 c 128,-1,18
 258 455 258 455 258 375 c 0,19,20
 258 226 258 226 204 94 c 128,-1,21
 150 -38 150 -38 47 -159 c 1,0,1
EndSplineSet
Substitution2: "'sinf' Scientific Inferiors lookup 21 subtable" parenright.inferior
Substitution2: "'subs' Subscript lookup 20 subtable" parenright.inferior
Substitution2: "'sups' Superscript lookup 19 subtable" parenright.superior
AlternateSubs2: "'aalt' Access All Alternates lookup 1 subtable" parenright.inferior parenright.superior
EndChar

StartChar: asterisk
Encoding: 42 42 12
Width: 492
GlyphClass: 2
Flags: W
LayerCount: 2
Fore
SplineSet
208 764 m 1,0,1
 219 772 219 772 234 777.5 c 128,-1,2
 249 783 249 783 266 783 c 0,3,4
 280 783 280 783 286 781 c 1,5,6
 284 733 284 733 276 682.5 c 128,-1,7
 268 632 268 632 260 595 c 1,8,9
 273 604 273 604 290.5 614.5 c 128,-1,10
 308 625 308 625 326.5 635.5 c 128,-1,11
 345 646 345 646 363.5 655.5 c 128,-1,12
 382 665 382 665 398 671 c 1,13,14
 412 662 412 662 421.5 647.5 c 128,-1,15
 431 633 431 633 436 616 c 1,16,17
 421 608 421 608 400 601 c 128,-1,18
 379 594 379 594 355.5 587.5 c 128,-1,19
 332 581 332 581 309.5 576.5 c 128,-1,20
 287 572 287 572 270 569 c 1,21,22
 282 560 282 560 299.5 544.5 c 128,-1,23
 317 529 317 529 335 511.5 c 128,-1,24
 353 494 353 494 369 476 c 128,-1,25
 385 458 385 458 396 444 c 1,26,27
 389 427 389 427 375.5 413 c 128,-1,28
 362 399 362 399 345 391 c 1,29,30
 335 402 335 402 320.5 423 c 128,-1,31
 306 444 306 444 291 467.5 c 128,-1,32
 276 491 276 491 263 513.5 c 128,-1,33
 250 536 250 536 243 551 c 1,34,35
 236 533 236 533 225 511.5 c 128,-1,36
 214 490 214 490 202 468 c 128,-1,37
 190 446 190 446 178 425.5 c 128,-1,38
 166 405 166 405 157 391 c 1,39,40
 137 392 137 392 118 402 c 128,-1,41
 99 412 99 412 90 425 c 1,42,43
 100 440 100 440 116 459 c 128,-1,44
 132 478 132 478 149.5 497.5 c 128,-1,45
 167 517 167 517 185 535.5 c 128,-1,46
 203 554 203 554 217 568 c 1,47,48
 199 570 199 570 178 573.5 c 128,-1,49
 157 577 157 577 136 581 c 128,-1,50
 115 585 115 585 95.5 590 c 128,-1,51
 76 595 76 595 62 600 c 1,52,53
 60 608 60 608 60 618 c 0,54,55
 60 653 60 653 77 676 c 1,56,57
 92 670 92 670 112.5 659.5 c 128,-1,58
 133 649 133 649 154 637.5 c 128,-1,59
 175 626 175 626 194.5 615 c 128,-1,60
 214 604 214 604 227 595 c 1,61,62
 224 611 224 611 220.5 632 c 128,-1,63
 217 653 217 653 214.5 675.5 c 128,-1,64
 212 698 212 698 210.5 721 c 128,-1,65
 209 744 209 744 208 764 c 1,0,1
EndSplineSet
EndChar

StartChar: plus
Encoding: 43 43 13
Width: 587
GlyphClass: 2
Flags: W
LayerCount: 2
Fore
SplineSet
325 306 m 1,0,-1
 325 98 l 1,1,2
 301 80 301 80 258 80 c 1,3,-1
 258 306 l 1,4,-1
 52 306 l 1,5,6
 55 332 55 332 66.5 347.5 c 128,-1,7
 78 363 78 363 92 363 c 2,8,-1
 258 363 l 1,9,-1
 258 557 l 1,10,11
 270 566 270 566 287.5 571.5 c 128,-1,12
 305 577 305 577 325 577 c 1,13,-1
 325 363 l 1,14,-1
 535 363 l 1,15,16
 533 334 533 334 521.5 320 c 128,-1,17
 510 306 510 306 495 306 c 2,18,-1
 325 306 l 1,0,-1
EndSplineSet
EndChar

StartChar: comma
Encoding: 44 44 14
Width: 232
GlyphClass: 2
Flags: W
LayerCount: 2
Fore
SplineSet
180 13 m 0,0,1
 180 -23 180 -23 168 -51 c 128,-1,2
 156 -79 156 -79 137 -102 c 0,3,4
 119 -125 119 -125 93 -146 c 128,-1,5
 67 -167 67 -167 47 -175 c 0,6,7
 39 -175 39 -175 30 -170 c 128,-1,8
 21 -165 21 -165 19 -158 c 1,9,10
 34 -149 34 -149 49.5 -136 c 128,-1,11
 65 -123 65 -123 77.5 -106.5 c 128,-1,12
 90 -90 90 -90 97.5 -70.5 c 128,-1,13
 105 -51 105 -51 105 -28 c 0,14,15
 105 1 105 1 91.5 20.5 c 128,-1,16
 78 40 78 40 58 53 c 1,17,18
 69 74 69 74 87.5 89 c 128,-1,19
 106 104 106 104 129 106 c 1,20,21
 150 95 150 95 165 71 c 128,-1,22
 180 47 180 47 180 13 c 0,0,1
EndSplineSet
EndChar

StartChar: hyphen
Encoding: 45 45 15
Width: 385
GlyphClass: 2
Flags: W
LayerCount: 2
Fore
SplineSet
48 272 m 1,0,1
 50 293 50 293 60 313.5 c 128,-1,2
 70 334 70 334 84 334 c 2,3,-1
 337 334 l 1,4,5
 335 308 335 308 325 290 c 128,-1,6
 315 272 315 272 301 272 c 2,7,-1
 48 272 l 1,0,1
EndSplineSet
EndChar

StartChar: period
Encoding: 46 46 16
Width: 224
GlyphClass: 2
Flags: W
LayerCount: 2
Fore
SplineSet
179 41 m 1,0,1
 168 21 168 21 148.5 3.5 c 128,-1,2
 129 -14 129 -14 112 -22 c 1,3,4
 94 -14 94 -14 75 3.5 c 128,-1,5
 56 21 56 21 45 41 c 1,6,7
 56 60 56 60 75.5 78.5 c 128,-1,8
 95 97 95 97 112 105 c 1,9,10
 132 97 132 97 151 78.5 c 128,-1,11
 170 60 170 60 179 41 c 1,0,1
EndSplineSet
EndChar

StartChar: slash
Encoding: 47 47 17
Width: 408
GlyphClass: 2
Flags: W
LayerCount: 2
Fore
SplineSet
75 -75 m 1,0,1
 68 -79 68 -79 57.5 -80.5 c 128,-1,2
 47 -82 47 -82 36 -82 c 0,3,4
 19 -82 19 -82 10 -79 c 1,5,-1
 341 819 l 1,6,7
 359 827 359 827 380 827 c 0,8,9
 395 827 395 827 406 824 c 1,10,-1
 75 -75 l 1,0,1
EndSplineSet
Substitution2: "Single Substitution lookup 88 subtable" fraction
Substitution2: "'aalt' Access All Alternates lookup 0 subtable" fraction
EndChar

StartChar: zero
Encoding: 48 48 18
Width: 664
GlyphClass: 2
Flags: W
LayerCount: 2
Fore
SplineSet
66 326 m 0,0,1
 66 415 66 415 88 487 c 128,-1,2
 110 559 110 559 148.5 610 c 128,-1,3
 187 661 187 661 239.5 688.5 c 128,-1,4
 292 716 292 716 353 716 c 0,5,6
 419 716 419 716 465.5 688.5 c 128,-1,7
 512 661 512 661 541.5 615 c 128,-1,8
 571 569 571 569 584.5 508 c 128,-1,9
 598 447 598 447 598 380 c 0,10,11
 598 309 598 309 583.5 238 c 128,-1,12
 569 167 569 167 536 110.5 c 128,-1,13
 503 54 503 54 449 18.5 c 128,-1,14
 395 -17 395 -17 316 -17 c 0,15,16
 264 -17 264 -17 218.5 4.5 c 128,-1,17
 173 26 173 26 139 69 c 128,-1,18
 105 112 105 112 85.5 176.5 c 128,-1,19
 66 241 66 241 66 326 c 0,0,1
151 369 m 0,20,21
 151 286 151 286 165.5 222.5 c 128,-1,22
 180 159 180 159 206 116 c 128,-1,23
 232 73 232 73 267.5 51 c 128,-1,24
 303 29 303 29 345 29 c 0,25,26
 427 29 427 29 470 105 c 128,-1,27
 513 181 513 181 513 337 c 0,28,29
 513 404 513 404 502 465 c 128,-1,30
 491 526 491 526 468 571.5 c 128,-1,31
 445 617 445 617 409.5 644 c 128,-1,32
 374 671 374 671 325 671 c 0,33,34
 296 671 296 671 265 656.5 c 128,-1,35
 234 642 234 642 208.5 607 c 128,-1,36
 183 572 183 572 167 514 c 128,-1,37
 151 456 151 456 151 369 c 0,20,21
EndSplineSet
Substitution2: "Single Substitution lookup 89 subtable" zero.dnom
Substitution2: "Single Substitution lookup 88 subtable" zero.numr
Substitution2: "'sinf' Scientific Inferiors lookup 21 subtable" zero.inferior
Substitution2: "'subs' Subscript lookup 20 subtable" zero.inferior
Substitution2: "'sups' Superscript lookup 19 subtable" zero.superior
Substitution2: "'dnom' Denominators lookup 18 subtable" zero.dnom
Substitution2: "'numr' Numerators lookup 17 subtable" zero.numr
Substitution2: "'tnum' Tabular Numbers lookup 16 subtable" tabularzero
Substitution2: "'onum' Oldstyle Figures lookup 15 subtable" zerooldstyle
AlternateSubs2: "'aalt' Access All Alternates lookup 1 subtable" zero.inferior zero.superior zero.numr zero.dnom tabularzero zerooldstyle
EndChar

StartChar: one
Encoding: 49 49 19
Width: 465
GlyphClass: 2
Flags: W
LayerCount: 2
Fore
SplineSet
303 710 m 1,0,1
 313 710 313 710 323 705 c 128,-1,2
 333 700 333 700 338 695 c 1,3,-1
 338 8 l 1,4,5
 324 -1 324 -1 302 -4 c 128,-1,6
 280 -7 280 -7 259 -7 c 1,7,-1
 259 616 l 1,8,9
 242 595 242 595 220 575 c 128,-1,10
 198 555 198 555 174 538 c 128,-1,11
 150 521 150 521 126 507.5 c 128,-1,12
 102 494 102 494 83 487 c 1,13,14
 68 514 68 514 68 552 c 1,15,16
 124 573 124 573 185 611 c 128,-1,17
 246 649 246 649 303 710 c 1,0,1
EndSplineSet
Substitution2: "Single Substitution lookup 89 subtable" one.dnom
Substitution2: "Single Substitution lookup 88 subtable" one.numr
Substitution2: "'sinf' Scientific Inferiors lookup 21 subtable" one.inferior
Substitution2: "'subs' Subscript lookup 20 subtable" one.inferior
Substitution2: "'sups' Superscript lookup 19 subtable" one.superior
Substitution2: "'dnom' Denominators lookup 18 subtable" one.dnom
Substitution2: "'numr' Numerators lookup 17 subtable" one.numr
Substitution2: "'tnum' Tabular Numbers lookup 16 subtable" tabularone
Substitution2: "'onum' Oldstyle Figures lookup 15 subtable" oneoldstyle
AlternateSubs2: "'aalt' Access All Alternates lookup 1 subtable" one.inferior one.superior one.numr one.dnom tabularone oneoldstyle
EndChar

StartChar: two
Encoding: 50 50 20
Width: 606
GlyphClass: 2
Flags: W
LayerCount: 2
Fore
SplineSet
71 -7 m 1,0,1
 66 -4 66 -4 60 5 c 128,-1,2
 54 14 54 14 52 23 c 1,3,-1
 224 183 l 2,4,5
 277 232 277 232 317.5 272 c 128,-1,6
 358 312 358 312 385 348.5 c 128,-1,7
 412 385 412 385 426 422 c 128,-1,8
 440 459 440 459 440 504 c 0,9,10
 440 540 440 540 430.5 570.5 c 128,-1,11
 421 601 421 601 402.5 623.5 c 128,-1,12
 384 646 384 646 355.5 659 c 128,-1,13
 327 672 327 672 289 672 c 0,14,15
 263 672 263 672 239 664.5 c 128,-1,16
 215 657 215 657 195.5 642 c 128,-1,17
 176 627 176 627 164.5 604.5 c 128,-1,18
 153 582 153 582 153 551 c 0,19,20
 153 529 153 529 161.5 515 c 128,-1,21
 170 501 170 501 179 491 c 1,22,23
 170 477 170 477 147.5 466.5 c 128,-1,24
 125 456 125 456 104 456 c 1,25,26
 93 462 93 462 83 479.5 c 128,-1,27
 73 497 73 497 73 527 c 0,28,29
 73 563 73 563 91.5 597.5 c 128,-1,30
 110 632 110 632 142.5 658 c 128,-1,31
 175 684 175 684 220 700 c 128,-1,32
 265 716 265 716 318 716 c 0,33,34
 372 716 372 716 412 701 c 128,-1,35
 452 686 452 686 477.5 660.5 c 128,-1,36
 503 635 503 635 515.5 601.5 c 128,-1,37
 528 568 528 568 528 532 c 0,38,39
 528 484 528 484 514 443 c 128,-1,40
 500 402 500 402 468 358.5 c 128,-1,41
 436 315 436 315 384.5 264 c 128,-1,42
 333 213 333 213 258 147 c 2,43,-1
 153 54 l 1,44,-1
 548 54 l 1,45,46
 546 28 546 28 532 10.5 c 128,-1,47
 518 -7 518 -7 501 -7 c 2,48,-1
 71 -7 l 1,49,-1
 71 -7 l 1,0,1
EndSplineSet
Substitution2: "Single Substitution lookup 89 subtable" two.dnom
Substitution2: "Single Substitution lookup 88 subtable" two.numr
Substitution2: "'sinf' Scientific Inferiors lookup 21 subtable" two.inferior
Substitution2: "'subs' Subscript lookup 20 subtable" two.inferior
Substitution2: "'sups' Superscript lookup 19 subtable" two.superior
Substitution2: "'dnom' Denominators lookup 18 subtable" two.dnom
Substitution2: "'numr' Numerators lookup 17 subtable" two.numr
Substitution2: "'tnum' Tabular Numbers lookup 16 subtable" tabulartwo
Substitution2: "'onum' Oldstyle Figures lookup 15 subtable" twooldstyle
AlternateSubs2: "'aalt' Access All Alternates lookup 1 subtable" two.inferior two.superior two.numr two.dnom tabulartwo twooldstyle
EndChar

StartChar: three
Encoding: 51 51 21
Width: 645
GlyphClass: 2
Flags: W
LayerCount: 2
Fore
SplineSet
196 510 m 1,0,1
 186 496 186 496 164.5 486.5 c 128,-1,2
 143 477 143 477 120 477 c 1,3,4
 112 484 112 484 102 499 c 128,-1,5
 92 514 92 514 92 540 c 0,6,7
 92 572 92 572 110.5 603.5 c 128,-1,8
 129 635 129 635 161.5 660 c 128,-1,9
 194 685 194 685 238.5 700.5 c 128,-1,10
 283 716 283 716 335 716 c 0,11,12
 390 716 390 716 429 701.5 c 128,-1,13
 468 687 468 687 492.5 664 c 128,-1,14
 517 641 517 641 528 612 c 128,-1,15
 539 583 539 583 539 554 c 0,16,17
 539 519 539 519 527 490 c 128,-1,18
 515 461 515 461 495 438.5 c 128,-1,19
 475 416 475 416 448.5 399 c 128,-1,20
 422 382 422 382 392 372 c 1,21,22
 480 363 480 363 525.5 318.5 c 128,-1,23
 571 274 571 274 571 206 c 0,24,25
 571 159 571 159 550.5 118 c 128,-1,26
 530 77 530 77 493.5 47 c 128,-1,27
 457 17 457 17 405.5 0 c 128,-1,28
 354 -17 354 -17 291 -17 c 0,29,30
 236 -17 236 -17 194 -4 c 128,-1,31
 152 9 152 9 123.5 31.5 c 128,-1,32
 95 54 95 54 80.5 84 c 128,-1,33
 66 114 66 114 66 147 c 0,34,35
 66 166 66 166 72 178 c 1,36,37
 83 189 83 189 105.5 197.5 c 128,-1,38
 128 206 128 206 146 207 c 1,39,40
 145 204 145 204 144.5 197 c 128,-1,41
 144 190 144 190 144 185 c 0,42,43
 144 116 144 116 190 72 c 128,-1,44
 236 28 236 28 323 28 c 0,45,46
 395 28 395 28 440 64.5 c 128,-1,47
 485 101 485 101 485 176 c 256,48,49
 485 251 485 251 440.5 290.5 c 128,-1,50
 396 330 396 330 315 330 c 0,51,52
 296 330 296 330 279 329 c 128,-1,53
 262 328 262 328 247 326 c 1,54,55
 247 337 247 337 248.5 350 c 128,-1,56
 250 363 250 363 255 371 c 1,57,58
 299 376 299 376 336 389 c 128,-1,59
 373 402 373 402 399.5 421.5 c 128,-1,60
 426 441 426 441 440.5 468 c 128,-1,61
 455 495 455 495 455 528 c 0,62,63
 455 592 455 592 415.5 632 c 128,-1,64
 376 672 376 672 304 672 c 0,65,66
 278 672 278 672 254 665 c 128,-1,67
 230 658 230 658 212 644.5 c 128,-1,68
 194 631 194 631 183 612.5 c 128,-1,69
 172 594 172 594 172 570 c 0,70,71
 172 549 172 549 179.5 534 c 128,-1,72
 187 519 187 519 196 510 c 1,0,1
EndSplineSet
Substitution2: "Single Substitution lookup 89 subtable" three.dnom
Substitution2: "Single Substitution lookup 88 subtable" three.numr
Substitution2: "'sinf' Scientific Inferiors lookup 21 subtable" three.inferior
Substitution2: "'subs' Subscript lookup 20 subtable" three.inferior
Substitution2: "'sups' Superscript lookup 19 subtable" three.superior
Substitution2: "'dnom' Denominators lookup 18 subtable" three.dnom
Substitution2: "'numr' Numerators lookup 17 subtable" three.numr
Substitution2: "'tnum' Tabular Numbers lookup 16 subtable" tabularthree
Substitution2: "'onum' Oldstyle Figures lookup 15 subtable" threeoldstyle
AlternateSubs2: "'aalt' Access All Alternates lookup 1 subtable" three.inferior three.superior three.numr three.dnom tabularthree threeoldstyle
EndChar

StartChar: four
Encoding: 52 52 22
Width: 633
GlyphClass: 2
Flags: W
LayerCount: 2
Fore
SplineSet
52 155 m 1,0,1
 46 158 46 158 39.5 166.5 c 128,-1,2
 33 175 33 175 33 186 c 1,3,4
 137 305 137 305 202.5 432.5 c 128,-1,5
 268 560 268 560 288 684 c 1,6,7
 325 708 325 708 378 708 c 1,8,9
 367 644 367 644 340 576.5 c 128,-1,10
 313 509 313 509 276 444 c 128,-1,11
 239 379 239 379 196 320 c 128,-1,12
 153 261 153 261 110 213 c 1,13,-1
 413 213 l 1,14,-1
 413 427 l 1,15,16
 425 441 425 441 445.5 453.5 c 128,-1,17
 466 466 466 466 487 468 c 1,18,-1
 487 213 l 1,19,-1
 611 213 l 1,20,21
 607 187 607 187 594.5 171 c 128,-1,22
 582 155 582 155 558 155 c 2,23,-1
 487 155 l 1,24,-1
 487 4 l 1,25,26
 475 -6 475 -6 455.5 -9 c 128,-1,27
 436 -12 436 -12 413 -12 c 1,28,-1
 413 155 l 1,29,-1
 52 155 l 1,30,-1
 52 155 l 1,0,1
EndSplineSet
Substitution2: "Single Substitution lookup 89 subtable" four.dnom
Substitution2: "Single Substitution lookup 88 subtable" four.numr
Substitution2: "'sinf' Scientific Inferiors lookup 21 subtable" four.inferior
Substitution2: "'subs' Subscript lookup 20 subtable" four.inferior
Substitution2: "'sups' Superscript lookup 19 subtable" four.superior
Substitution2: "'dnom' Denominators lookup 18 subtable" four.dnom
Substitution2: "'numr' Numerators lookup 17 subtable" four.numr
Substitution2: "'tnum' Tabular Numbers lookup 16 subtable" tabularfour
Substitution2: "'onum' Oldstyle Figures lookup 15 subtable" fouroldstyle
AlternateSubs2: "'aalt' Access All Alternates lookup 1 subtable" four.inferior four.superior four.numr four.dnom tabularfour fouroldstyle
EndChar

StartChar: five
Encoding: 53 53 23
Width: 621
GlyphClass: 2
Flags: W
LayerCount: 2
Fore
SplineSet
313 29 m 0,0,1
 348 29 348 29 378 41 c 128,-1,2
 408 53 408 53 429.5 76 c 128,-1,3
 451 99 451 99 463 133 c 128,-1,4
 475 167 475 167 475 212 c 0,5,6
 475 251 475 251 465 285 c 128,-1,7
 455 319 455 319 433 344 c 128,-1,8
 411 369 411 369 376 383.5 c 128,-1,9
 341 398 341 398 292 398 c 0,10,11
 263 398 263 398 237.5 392.5 c 128,-1,12
 212 387 212 387 190.5 378 c 128,-1,13
 169 369 169 369 152 358 c 128,-1,14
 135 347 135 347 122 337 c 1,15,16
 115 340 115 340 108.5 347.5 c 128,-1,17
 102 355 102 355 100 360 c 2,18,-1
 140 671 l 1,19,20
 157 686 157 686 185.5 696 c 128,-1,21
 214 706 214 706 258 706 c 2,22,-1
 535 706 l 1,23,24
 533 680 533 680 519.5 662 c 128,-1,25
 506 644 506 644 483 644 c 2,26,-1
 194 644 l 1,27,-1
 167 422 l 1,28,29
 199 439 199 439 239.5 450.5 c 128,-1,30
 280 462 280 462 328 462 c 0,31,32
 388 462 388 462 431.5 444 c 128,-1,33
 475 426 475 426 502.5 396 c 128,-1,34
 530 366 530 366 543 326.5 c 128,-1,35
 556 287 556 287 556 244 c 0,36,37
 556 194 556 194 538.5 147 c 128,-1,38
 521 100 521 100 486.5 63.5 c 128,-1,39
 452 27 452 27 400 5 c 128,-1,40
 348 -17 348 -17 280 -17 c 0,41,42
 230 -17 230 -17 190.5 -4.5 c 128,-1,43
 151 8 151 8 123 30.5 c 128,-1,44
 95 53 95 53 80 83 c 128,-1,45
 65 113 65 113 65 149 c 0,46,47
 65 165 65 165 69 174 c 0,48,49
 80 185 80 185 101.5 193 c 128,-1,50
 123 201 123 201 142 202 c 1,51,52
 141 197 141 197 141 193 c 128,-1,53
 141 189 141 189 141 185 c 0,54,55
 141 152 141 152 152.5 123.5 c 128,-1,56
 164 95 164 95 185.5 74 c 128,-1,57
 207 53 207 53 239 41 c 128,-1,58
 271 29 271 29 313 29 c 0,0,1
EndSplineSet
Substitution2: "Single Substitution lookup 89 subtable" five.dnom
Substitution2: "Single Substitution lookup 88 subtable" five.numr
Substitution2: "'sinf' Scientific Inferiors lookup 21 subtable" five.inferior
Substitution2: "'subs' Subscript lookup 20 subtable" five.inferior
Substitution2: "'sups' Superscript lookup 19 subtable" five.superior
Substitution2: "'dnom' Denominators lookup 18 subtable" five.dnom
Substitution2: "'numr' Numerators lookup 17 subtable" five.numr
Substitution2: "'tnum' Tabular Numbers lookup 16 subtable" tabularfive
Substitution2: "'onum' Oldstyle Figures lookup 15 subtable" fiveoldstyle
AlternateSubs2: "'aalt' Access All Alternates lookup 1 subtable" five.inferior five.superior five.numr five.dnom tabularfive fiveoldstyle
EndChar

StartChar: six
Encoding: 54 54 24
Width: 632
GlyphClass: 2
Flags: W
LayerCount: 2
Fore
SplineSet
341 377 m 0,0,1
 319 377 319 377 300 372 c 128,-1,2
 281 367 281 367 265.5 359.5 c 128,-1,3
 250 352 250 352 238 343.5 c 128,-1,4
 226 335 226 335 219 329 c 1,5,6
 217 332 217 332 216.5 337 c 128,-1,7
 216 342 216 342 216 347 c 256,8,9
 216 352 216 352 216.5 357 c 128,-1,10
 217 362 217 362 219 364 c 0,11,12
 225 372 225 372 239 383 c 128,-1,13
 253 394 253 394 273 403.5 c 128,-1,14
 293 413 293 413 319.5 420 c 128,-1,15
 346 427 346 427 377 427 c 0,16,17
 426 427 426 427 463 412 c 128,-1,18
 500 397 500 397 524.5 371 c 128,-1,19
 549 345 549 345 561.5 310 c 128,-1,20
 574 275 574 275 574 235 c 0,21,22
 574 186 574 186 556.5 140.5 c 128,-1,23
 539 95 539 95 505.5 60.5 c 128,-1,24
 472 26 472 26 423 5 c 128,-1,25
 374 -16 374 -16 310 -16 c 0,26,27
 257 -16 257 -16 212 3 c 128,-1,28
 167 22 167 22 134.5 58 c 128,-1,29
 102 94 102 94 84 147 c 128,-1,30
 66 200 66 200 66 268 c 256,31,32
 66 336 66 336 83 393.5 c 128,-1,33
 100 451 100 451 130.5 498.5 c 128,-1,34
 161 546 161 546 203 583.5 c 128,-1,35
 245 621 245 621 295 649 c 0,36,37
 335 672 335 672 380 688.5 c 128,-1,38
 425 705 425 705 467 712 c 1,39,40
 477 709 477 709 485 698.5 c 128,-1,41
 493 688 493 688 495 677 c 1,42,43
 458 670 458 670 413 654 c 128,-1,44
 368 638 368 638 326 613 c 0,45,46
 289 591 289 591 257.5 561.5 c 128,-1,47
 226 532 226 532 202.5 493.5 c 128,-1,48
 179 455 179 455 166 407 c 128,-1,49
 153 359 153 359 153 299 c 0,50,51
 153 234 153 234 167 184 c 128,-1,52
 181 134 181 134 206 100 c 128,-1,53
 231 66 231 66 266.5 48.5 c 128,-1,54
 302 31 302 31 344 31 c 0,55,56
 413 31 413 31 453 74.5 c 128,-1,57
 493 118 493 118 493 205 c 0,58,59
 493 283 493 283 455 330 c 128,-1,60
 417 377 417 377 341 377 c 0,0,1
EndSplineSet
Substitution2: "Single Substitution lookup 89 subtable" six.dnom
Substitution2: "Single Substitution lookup 88 subtable" six.numr
Substitution2: "'sinf' Scientific Inferiors lookup 21 subtable" six.inferior
Substitution2: "'subs' Subscript lookup 20 subtable" six.inferior
Substitution2: "'sups' Superscript lookup 19 subtable" six.superior
Substitution2: "'dnom' Denominators lookup 18 subtable" six.dnom
Substitution2: "'numr' Numerators lookup 17 subtable" six.numr
Substitution2: "'tnum' Tabular Numbers lookup 16 subtable" tabularsix
Substitution2: "'onum' Oldstyle Figures lookup 15 subtable" sixoldstyle
AlternateSubs2: "'aalt' Access All Alternates lookup 1 subtable" six.inferior six.superior six.numr six.dnom tabularsix sixoldstyle
EndChar

StartChar: seven
Encoding: 55 55 25
Width: 553
GlyphClass: 2
Flags: W
LayerCount: 2
Fore
SplineSet
144 -7 m 1,0,1
 187 191 187 191 265 354.5 c 128,-1,2
 343 518 343 518 435 644 c 1,3,-1
 47 644 l 1,4,5
 51 672 51 672 65.5 689 c 128,-1,6
 80 706 80 706 94 706 c 2,7,-1
 512 706 l 1,8,9
 519 702 519 702 523.5 695 c 128,-1,10
 528 688 528 688 529 681 c 1,11,12
 480 624 480 624 435.5 552 c 128,-1,13
 391 480 391 480 354 396 c 128,-1,14
 317 312 317 312 289 216 c 128,-1,15
 261 120 261 120 246 15 c 1,16,17
 226 2 226 2 196.5 -2.5 c 128,-1,18
 167 -7 167 -7 144 -7 c 1,0,1
EndSplineSet
Substitution2: "Single Substitution lookup 89 subtable" seven.dnom
Substitution2: "Single Substitution lookup 88 subtable" seven.numr
Substitution2: "'sinf' Scientific Inferiors lookup 21 subtable" seven.inferior
Substitution2: "'subs' Subscript lookup 20 subtable" seven.inferior
Substitution2: "'sups' Superscript lookup 19 subtable" seven.superior
Substitution2: "'dnom' Denominators lookup 18 subtable" seven.dnom
Substitution2: "'numr' Numerators lookup 17 subtable" seven.numr
Substitution2: "'tnum' Tabular Numbers lookup 16 subtable" tabularseven
Substitution2: "'onum' Oldstyle Figures lookup 15 subtable" sevenoldstyle
AlternateSubs2: "'aalt' Access All Alternates lookup 1 subtable" seven.inferior seven.superior seven.numr seven.dnom tabularseven sevenoldstyle
EndChar

StartChar: eight
Encoding: 56 56 26
Width: 630
GlyphClass: 2
Flags: W
LayerCount: 2
Fore
SplineSet
300 -19 m 0,0,1
 249 -19 249 -19 205 -7 c 128,-1,2
 161 5 161 5 129 28.5 c 128,-1,3
 97 52 97 52 79 85.5 c 128,-1,4
 61 119 61 119 61 161 c 0,5,6
 61 198 61 198 73 227.5 c 128,-1,7
 85 257 85 257 106.5 280.5 c 128,-1,8
 128 304 128 304 157.5 321.5 c 128,-1,9
 187 339 187 339 221 353 c 1,10,11
 95 406 95 406 95 513 c 0,12,13
 95 555 95 555 114.5 591.5 c 128,-1,14
 134 628 134 628 168 656 c 128,-1,15
 202 684 202 684 246.5 700 c 128,-1,16
 291 716 291 716 341 716 c 0,17,18
 393 716 393 716 430.5 703 c 128,-1,19
 468 690 468 690 492.5 668 c 128,-1,20
 517 646 517 646 528.5 617.5 c 128,-1,21
 540 589 540 589 540 558 c 0,22,23
 540 521 540 521 526.5 492 c 128,-1,24
 513 463 513 463 492.5 441 c 128,-1,25
 472 419 472 419 447 403 c 128,-1,26
 422 387 422 387 398 376 c 1,27,28
 447 358 447 358 480.5 337.5 c 128,-1,29
 514 317 514 317 534.5 294 c 128,-1,30
 555 271 555 271 563.5 246 c 128,-1,31
 572 221 572 221 572 195 c 0,32,33
 572 151 572 151 551.5 112.5 c 128,-1,34
 531 74 531 74 495 44.5 c 128,-1,35
 459 15 459 15 409 -2 c 128,-1,36
 359 -19 359 -19 300 -19 c 0,0,1
267 337 m 1,37,38
 242 327 242 327 219.5 313.5 c 128,-1,39
 197 300 197 300 180 282 c 128,-1,40
 163 264 163 264 153 239.5 c 128,-1,41
 143 215 143 215 143 184 c 0,42,43
 143 145 143 145 157.5 115.5 c 128,-1,44
 172 86 172 86 197.5 66 c 128,-1,45
 223 46 223 46 257.5 36 c 128,-1,46
 292 26 292 26 331 26 c 0,47,48
 404 26 404 26 448.5 61.5 c 128,-1,49
 493 97 493 97 493 158 c 0,50,51
 493 183 493 183 486 205.5 c 128,-1,52
 479 228 479 228 460 247.5 c 128,-1,53
 441 267 441 267 408 284.5 c 128,-1,54
 375 302 375 302 324 319 c 2,55,-1
 267 337 l 1,37,38
170 548 m 0,56,57
 170 492 170 492 206 460 c 128,-1,58
 242 428 242 428 306 407 c 2,59,-1
 355 390 l 1,60,61
 375 400 375 400 394.5 413 c 128,-1,62
 414 426 414 426 429 443 c 128,-1,63
 444 460 444 460 453 481 c 128,-1,64
 462 502 462 502 462 529 c 0,65,66
 462 558 462 558 452 584 c 128,-1,67
 442 610 442 610 423 629.5 c 128,-1,68
 404 649 404 649 375.5 660.5 c 128,-1,69
 347 672 347 672 311 672 c 0,70,71
 284 672 284 672 258.5 664 c 128,-1,72
 233 656 233 656 213.5 640.5 c 128,-1,73
 194 625 194 625 182 602 c 128,-1,74
 170 579 170 579 170 548 c 0,56,57
EndSplineSet
Substitution2: "Single Substitution lookup 89 subtable" eight.dnom
Substitution2: "Single Substitution lookup 88 subtable" eight.numr
Substitution2: "'sinf' Scientific Inferiors lookup 21 subtable" eight.inferior
Substitution2: "'subs' Subscript lookup 20 subtable" eight.inferior
Substitution2: "'sups' Superscript lookup 19 subtable" eight.superior
Substitution2: "'dnom' Denominators lookup 18 subtable" eight.dnom
Substitution2: "'numr' Numerators lookup 17 subtable" eight.numr
Substitution2: "'tnum' Tabular Numbers lookup 16 subtable" tabulareight
Substitution2: "'onum' Oldstyle Figures lookup 15 subtable" eightoldstyle
AlternateSubs2: "'aalt' Access All Alternates lookup 1 subtable" eight.inferior eight.superior eight.numr eight.dnom tabulareight eightoldstyle
EndChar

StartChar: nine
Encoding: 57 57 27
Width: 613
GlyphClass: 2
Flags: W
LayerCount: 2
Fore
SplineSet
392 351 m 1,0,1
 394 347 394 347 394 337 c 256,2,3
 394 327 394 327 391 320 c 0,4,5
 388 314 388 314 377.5 305 c 128,-1,6
 367 296 367 296 350.5 288.5 c 128,-1,7
 334 281 334 281 311.5 275.5 c 128,-1,8
 289 270 289 270 262 270 c 0,9,10
 220 270 220 270 183.5 283.5 c 128,-1,11
 147 297 147 297 120 322 c 128,-1,12
 93 347 93 347 77.5 383.5 c 128,-1,13
 62 420 62 420 62 465 c 0,14,15
 62 517 62 517 81.5 562.5 c 128,-1,16
 101 608 101 608 136 642 c 128,-1,17
 171 676 171 676 219 696 c 128,-1,18
 267 716 267 716 323 716 c 0,19,20
 378 716 378 716 420.5 696.5 c 128,-1,21
 463 677 463 677 492 641.5 c 128,-1,22
 521 606 521 606 536 557.5 c 128,-1,23
 551 509 551 509 551 451 c 0,24,25
 551 380 551 380 533.5 320 c 128,-1,26
 516 260 516 260 484 210 c 128,-1,27
 452 160 452 160 408 120 c 128,-1,28
 364 80 364 80 310 50 c 0,29,30
 290 39 290 39 268 28.5 c 128,-1,31
 246 18 246 18 224 9.5 c 128,-1,32
 202 1 202 1 181 -5.5 c 128,-1,33
 160 -12 160 -12 142 -15 c 1,34,35
 134 -12 134 -12 126.5 -1.5 c 128,-1,36
 119 9 119 9 117 21 c 1,37,38
 214 47 214 47 297 106 c 0,39,40
 333 132 333 132 363.5 164.5 c 128,-1,41
 394 197 394 197 416.5 236 c 128,-1,42
 439 275 439 275 451.5 320.5 c 128,-1,43
 464 366 464 366 464 419 c 0,44,45
 464 476 464 476 452.5 522.5 c 128,-1,46
 441 569 441 569 419 602 c 128,-1,47
 397 635 397 635 364.5 653 c 128,-1,48
 332 671 332 671 291 671 c 0,49,50
 262 671 262 671 235 660 c 128,-1,51
 208 649 208 649 187 627 c 128,-1,52
 166 605 166 605 153.5 572.5 c 128,-1,53
 141 540 141 540 141 498 c 0,54,55
 141 452 141 452 153 419 c 128,-1,56
 165 386 165 386 185.5 364.5 c 128,-1,57
 206 343 206 343 234 332.5 c 128,-1,58
 262 322 262 322 294 322 c 0,59,60
 329 322 329 322 353.5 331 c 128,-1,61
 378 340 378 340 392 351 c 1,0,1
EndSplineSet
Substitution2: "Single Substitution lookup 89 subtable" nine.dnom
Substitution2: "Single Substitution lookup 88 subtable" nine.numr
Substitution2: "'sinf' Scientific Inferiors lookup 21 subtable" nine.inferior
Substitution2: "'subs' Subscript lookup 20 subtable" nine.inferior
Substitution2: "'sups' Superscript lookup 19 subtable" nine.superior
Substitution2: "'dnom' Denominators lookup 18 subtable" nine.dnom
Substitution2: "'numr' Numerators lookup 17 subtable" nine.numr
Substitution2: "'tnum' Tabular Numbers lookup 16 subtable" tabularnine
Substitution2: "'onum' Oldstyle Figures lookup 15 subtable" nineoldstyle
AlternateSubs2: "'aalt' Access All Alternates lookup 1 subtable" nine.inferior nine.superior nine.numr nine.dnom tabularnine nineoldstyle
EndChar

StartChar: colon
Encoding: 58 58 28
Width: 224
GlyphClass: 2
Flags: W
LayerCount: 2
Fore
SplineSet
179 41 m 1,0,1
 168 21 168 21 148.5 3.5 c 128,-1,2
 129 -14 129 -14 112 -22 c 1,3,4
 94 -14 94 -14 75 3.5 c 128,-1,5
 56 21 56 21 45 41 c 1,6,7
 56 60 56 60 75.5 78.5 c 128,-1,8
 95 97 95 97 112 105 c 1,9,10
 132 97 132 97 151 78.5 c 128,-1,11
 170 60 170 60 179 41 c 1,0,1
179 449 m 1,12,13
 168 429 168 429 148.5 411.5 c 128,-1,14
 129 394 129 394 112 386 c 1,15,16
 94 394 94 394 75 411.5 c 128,-1,17
 56 429 56 429 45 449 c 1,18,19
 56 468 56 468 75.5 486.5 c 128,-1,20
 95 505 95 505 112 513 c 1,21,22
 132 505 132 505 151 486.5 c 128,-1,23
 170 468 170 468 179 449 c 1,12,13
EndSplineSet
EndChar

StartChar: semicolon
Encoding: 59 59 29
Width: 240
GlyphClass: 2
Flags: W
LayerCount: 2
Fore
SplineSet
186 13 m 0,0,1
 186 -23 186 -23 174 -51 c 128,-1,2
 162 -79 162 -79 143 -102 c 0,3,4
 125 -125 125 -125 99 -146 c 128,-1,5
 73 -167 73 -167 53 -175 c 0,6,7
 45 -175 45 -175 36 -170 c 128,-1,8
 27 -165 27 -165 25 -158 c 1,9,10
 40 -149 40 -149 55.5 -136 c 128,-1,11
 71 -123 71 -123 83.5 -106.5 c 128,-1,12
 96 -90 96 -90 103.5 -70.5 c 128,-1,13
 111 -51 111 -51 111 -28 c 0,14,15
 111 1 111 1 97.5 20.5 c 128,-1,16
 84 40 84 40 64 53 c 1,17,18
 75 74 75 74 93.5 89 c 128,-1,19
 112 104 112 104 135 106 c 1,20,21
 156 95 156 95 171 71 c 128,-1,22
 186 47 186 47 186 13 c 0,0,1
188 449 m 1,23,24
 177 429 177 429 157.5 411.5 c 128,-1,25
 138 394 138 394 121 386 c 1,26,27
 103 394 103 394 84 411.5 c 128,-1,28
 65 429 65 429 54 449 c 1,29,30
 65 468 65 468 84.5 486.5 c 128,-1,31
 104 505 104 505 121 513 c 1,32,33
 141 505 141 505 160 486.5 c 128,-1,34
 179 468 179 468 188 449 c 1,23,24
EndSplineSet
EndChar

StartChar: less
Encoding: 60 60 30
Width: 504
GlyphClass: 2
Flags: W
LayerCount: 2
Fore
SplineSet
440 494 m 1,0,1
 362 461 362 461 276 425 c 128,-1,2
 190 389 190 389 113 352 c 1,3,4
 149 327 149 327 191.5 300.5 c 128,-1,5
 234 274 234 274 279 248 c 128,-1,6
 324 222 324 222 370 198 c 128,-1,7
 416 174 416 174 459 154 c 1,8,9
 456 135 456 135 443 118 c 128,-1,10
 430 101 430 101 417 93 c 1,11,12
 374 114 374 114 324.5 140.5 c 128,-1,13
 275 167 275 167 226 196 c 128,-1,14
 177 225 177 225 131 255 c 128,-1,15
 85 285 85 285 48 313 c 1,16,17
 50 327 50 327 53.5 340 c 128,-1,18
 57 353 57 353 64 364 c 1,19,20
 84 377 84 377 114 394.5 c 128,-1,21
 144 412 144 412 180 432 c 128,-1,22
 216 452 216 452 254.5 473 c 128,-1,23
 293 494 293 494 329.5 512.5 c 128,-1,24
 366 531 366 531 398.5 546.5 c 128,-1,25
 431 562 431 562 455 572 c 1,26,27
 457 564 457 564 457 557 c 0,28,29
 457 540 457 540 452.5 521 c 128,-1,30
 448 502 448 502 440 494 c 1,0,1
EndSplineSet
EndChar

StartChar: equal
Encoding: 61 61 31
Width: 519
GlyphClass: 2
Flags: W
LayerCount: 2
Fore
SplineSet
48 208 m 1,0,1
 50 229 50 229 60 247 c 128,-1,2
 70 265 70 265 84 265 c 2,3,-1
 460 265 l 1,4,5
 458 243 458 243 448 225.5 c 128,-1,6
 438 208 438 208 424 208 c 2,7,-1
 48 208 l 1,0,1
59 406 m 1,8,9
 61 426 61 426 70.5 444 c 128,-1,10
 80 462 80 462 95 462 c 2,11,-1
 471 462 l 1,12,13
 469 440 469 440 458.5 423 c 128,-1,14
 448 406 448 406 435 406 c 2,15,-1
 59 406 l 1,8,9
EndSplineSet
EndChar

StartChar: greater
Encoding: 62 62 32
Width: 504
GlyphClass: 2
Flags: W
LayerCount: 2
Fore
SplineSet
65 172 m 1,0,1
 143 205 143 205 228 240.5 c 128,-1,2
 313 276 313 276 391 314 c 1,3,4
 354 339 354 339 312 364.5 c 128,-1,5
 270 390 270 390 225 415.5 c 128,-1,6
 180 441 180 441 134 464.5 c 128,-1,7
 88 488 88 488 45 508 c 1,8,9
 49 527 49 527 61 545.5 c 128,-1,10
 73 564 73 564 88 572 c 1,11,12
 131 552 131 552 180.5 525.5 c 128,-1,13
 230 499 230 499 279 469.5 c 128,-1,14
 328 440 328 440 374 410 c 128,-1,15
 420 380 420 380 456 352 c 1,16,17
 454 339 454 339 450.5 326 c 128,-1,18
 447 313 447 313 441 302 c 1,19,20
 421 289 421 289 390.5 271.5 c 128,-1,21
 360 254 360 254 324.5 234 c 128,-1,22
 289 214 289 214 250.5 193 c 128,-1,23
 212 172 212 172 175 153 c 128,-1,24
 138 134 138 134 105.5 118 c 128,-1,25
 73 102 73 102 50 93 c 1,26,27
 48 101 48 101 48 109 c 0,28,29
 48 126 48 126 53 144.5 c 128,-1,30
 58 163 58 163 65 172 c 1,0,1
EndSplineSet
EndChar

StartChar: question
Encoding: 63 63 33
Width: 528
GlyphClass: 2
Flags: W
LayerCount: 2
Fore
SplineSet
160 508 m 1,0,1
 149 492 149 492 128 482.5 c 128,-1,2
 107 473 107 473 87 473 c 1,3,4
 78 479 78 479 63 500 c 128,-1,5
 48 521 48 521 48 556 c 256,6,7
 48 591 48 591 66.5 623 c 128,-1,8
 85 655 85 655 117.5 679.5 c 128,-1,9
 150 704 150 704 193 718.5 c 128,-1,10
 236 733 236 733 286 733 c 0,11,12
 335 733 335 733 372 719.5 c 128,-1,13
 409 706 409 706 433.5 684 c 128,-1,14
 458 662 458 662 470 633.5 c 128,-1,15
 482 605 482 605 482 575 c 0,16,17
 482 540 482 540 470 511.5 c 128,-1,18
 458 483 458 483 438.5 459 c 128,-1,19
 419 435 419 435 393 413 c 128,-1,20
 367 391 367 391 339 369 c 0,21,22
 297 336 297 336 281 310.5 c 128,-1,23
 265 285 265 285 265 255 c 0,24,25
 265 237 265 237 273.5 225 c 128,-1,26
 282 213 282 213 291 205 c 1,27,28
 282 191 282 191 259 181.5 c 128,-1,29
 236 172 236 172 217 172 c 1,30,31
 208 178 208 178 197.5 192.5 c 128,-1,32
 187 207 187 207 187 229 c 0,33,34
 187 246 187 246 192 262 c 128,-1,35
 197 278 197 278 210.5 296 c 128,-1,36
 224 314 224 314 246 336.5 c 128,-1,37
 268 359 268 359 303 390 c 0,38,39
 348 430 348 430 371.5 464.5 c 128,-1,40
 395 499 395 499 395 547 c 0,41,42
 395 614 395 614 358.5 651.5 c 128,-1,43
 322 689 322 689 253 689 c 0,44,45
 229 689 229 689 206 681.5 c 128,-1,46
 183 674 183 674 165.5 660.5 c 128,-1,47
 148 647 148 647 137.5 626.5 c 128,-1,48
 127 606 127 606 127 581 c 0,49,50
 127 555 127 555 138 536.5 c 128,-1,51
 149 518 149 518 160 508 c 1,0,1
319 41 m 1,52,53
 308 21 308 21 288.5 3.5 c 128,-1,54
 269 -14 269 -14 252 -22 c 1,55,56
 234 -14 234 -14 215 3.5 c 128,-1,57
 196 21 196 21 185 41 c 1,58,59
 196 60 196 60 215.5 78.5 c 128,-1,60
 235 97 235 97 252 105 c 1,61,62
 272 97 272 97 291 78.5 c 128,-1,63
 310 60 310 60 319 41 c 1,52,53
EndSplineSet
EndChar

StartChar: at
Encoding: 64 64 34
Width: 946
GlyphClass: 2
Flags: W
LayerCount: 2
Fore
SplineSet
710 -94 m 1,0,1
 712 -100 712 -100 712 -108 c 0,2,3
 712 -121 712 -121 708 -126 c 0,4,5
 699 -135 699 -135 676.5 -149 c 128,-1,6
 654 -163 654 -163 619 -175.5 c 128,-1,7
 584 -188 584 -188 537.5 -197.5 c 128,-1,8
 491 -207 491 -207 435 -207 c 0,9,10
 369 -207 369 -207 301.5 -185 c 128,-1,11
 234 -163 234 -163 179.5 -116.5 c 128,-1,12
 125 -70 125 -70 90.5 2 c 128,-1,13
 56 74 56 74 56 173 c 0,14,15
 56 269 56 269 93.5 354 c 128,-1,16
 131 439 131 439 196 502.5 c 128,-1,17
 261 566 261 566 348.5 603 c 128,-1,18
 436 640 436 640 536 640 c 0,19,20
 624 640 624 640 690.5 615 c 128,-1,21
 757 590 757 590 802 546.5 c 128,-1,22
 847 503 847 503 869.5 445 c 128,-1,23
 892 387 892 387 892 321 c 0,24,25
 892 247 892 247 870 188.5 c 128,-1,26
 848 130 848 130 811 89.5 c 128,-1,27
 774 49 774 49 726 27.5 c 128,-1,28
 678 6 678 6 627 6 c 0,29,30
 579 6 579 6 556 17.5 c 128,-1,31
 533 29 533 29 533 58 c 0,32,33
 533 85 533 85 539 130 c 1,34,35
 509 77 509 77 466 43 c 128,-1,36
 423 9 423 9 376 9 c 0,37,38
 352 9 352 9 331 16.5 c 128,-1,39
 310 24 310 24 294 40.5 c 128,-1,40
 278 57 278 57 269 83.5 c 128,-1,41
 260 110 260 110 260 147 c 0,42,43
 260 206 260 206 280.5 262.5 c 128,-1,44
 301 319 301 319 336.5 363.5 c 128,-1,45
 372 408 372 408 420 435 c 128,-1,46
 468 462 468 462 523 462 c 0,47,48
 554 462 554 462 577.5 454 c 128,-1,49
 601 446 601 446 618 434 c 128,-1,50
 635 422 635 422 645.5 408 c 128,-1,51
 656 394 656 394 661 383 c 1,52,53
 651 345 651 345 641 303 c 128,-1,54
 631 261 631 261 622.5 221.5 c 128,-1,55
 614 182 614 182 609 146.5 c 128,-1,56
 604 111 604 111 604 87 c 0,57,58
 604 62 604 62 620.5 55.5 c 128,-1,59
 637 49 637 49 665 49 c 0,60,61
 690 49 690 49 718.5 62 c 128,-1,62
 747 75 747 75 771 103 c 128,-1,63
 795 131 795 131 810.5 176 c 128,-1,64
 826 221 826 221 826 285 c 0,65,66
 826 348 826 348 808 404 c 128,-1,67
 790 460 790 460 750.5 501.5 c 128,-1,68
 711 543 711 543 648.5 567.5 c 128,-1,69
 586 592 586 592 497 592 c 0,70,71
 426 592 426 592 359 564.5 c 128,-1,72
 292 537 292 537 239 487 c 128,-1,73
 186 437 186 437 154 365 c 128,-1,74
 122 293 122 293 122 205 c 0,75,76
 122 107 122 107 153.5 38.5 c 128,-1,77
 185 -30 185 -30 235.5 -73 c 128,-1,78
 286 -116 286 -116 350.5 -135.5 c 128,-1,79
 415 -155 415 -155 481 -155 c 0,80,81
 557 -155 557 -155 613 -137.5 c 128,-1,82
 669 -120 669 -120 710 -94 c 1,0,1
413 68 m 0,83,84
 436 68 436 68 458.5 83 c 128,-1,85
 481 98 481 98 501 124.5 c 128,-1,86
 521 151 521 151 537 186 c 128,-1,87
 553 221 553 221 564 261 c 2,88,-1
 585 360 l 1,89,90
 581 368 581 368 573.5 377 c 128,-1,91
 566 386 566 386 554.5 393.5 c 128,-1,92
 543 401 543 401 527.5 406 c 128,-1,93
 512 411 512 411 491 411 c 0,94,95
 457 411 457 411 427.5 394 c 128,-1,96
 398 377 398 377 376 347 c 128,-1,97
 354 317 354 317 341.5 276 c 128,-1,98
 329 235 329 235 329 187 c 0,99,100
 329 124 329 124 349 96 c 128,-1,101
 369 68 369 68 413 68 c 0,83,84
EndSplineSet
EndChar

StartChar: A
Encoding: 65 65 35
Width: 882
GlyphClass: 2
Flags: W
LayerCount: 2
Fore
SplineSet
210 347 m 0,0,1
 200 349 200 349 190 356 c 128,-1,2
 180 363 180 363 172.5 372.5 c 128,-1,3
 165 382 165 382 160 393 c 128,-1,4
 155 404 155 404 155 413 c 1,5,6
 194 415 194 415 235.5 426 c 128,-1,7
 277 437 277 437 311.5 459 c 128,-1,8
 346 481 346 481 368.5 515 c 128,-1,9
 391 549 391 549 391 596 c 0,10,11
 391 610 391 610 386.5 625.5 c 128,-1,12
 382 641 382 641 371.5 654.5 c 128,-1,13
 361 668 361 668 343 676.5 c 128,-1,14
 325 685 325 685 299 685 c 0,15,16
 257 685 257 685 219 666 c 128,-1,17
 181 647 181 647 147 618 c 1,18,19
 138 619 138 619 127 624.5 c 128,-1,20
 116 630 116 630 105.5 638 c 128,-1,21
 95 646 95 646 87 654.5 c 128,-1,22
 79 663 79 663 76 670 c 1,23,24
 107 704 107 704 144.5 723 c 128,-1,25
 182 742 182 742 230 742 c 0,26,27
 269 742 269 742 309.5 724.5 c 128,-1,28
 350 707 350 707 383.5 678.5 c 128,-1,29
 417 650 417 650 438.5 614.5 c 128,-1,30
 460 579 460 579 460 543 c 0,31,32
 460 495 460 495 435 458.5 c 128,-1,33
 410 422 410 422 372 397 c 1,34,35
 403 380 403 380 439 374 c 128,-1,36
 475 368 475 368 512 368 c 0,37,38
 560 368 560 368 606 380.5 c 128,-1,39
 652 393 652 393 688 418 c 1,40,-1
 688 646 l 1,41,-1
 520 646 l 2,42,43
 512 646 512 646 505 651.5 c 128,-1,44
 498 657 498 657 492.5 665.5 c 128,-1,45
 487 674 487 674 484 684 c 128,-1,46
 481 694 481 694 481 702 c 1,47,-1
 872 702 l 2,48,49
 881 702 881 702 888 696 c 128,-1,50
 895 690 895 690 900 681 c 128,-1,51
 905 672 905 672 908 662.5 c 128,-1,52
 911 653 911 653 911 646 c 1,53,-1
 760 646 l 1,54,-1
 760 -7 l 1,55,56
 739 -7 739 -7 720.5 0 c 128,-1,57
 702 7 702 7 688 24 c 1,58,-1
 688 333 l 1,59,60
 638 311 638 311 580 311 c 0,61,62
 535 311 535 311 492 323 c 128,-1,63
 449 335 449 335 408 357 c 1,64,65
 447 323 447 323 470 283.5 c 128,-1,66
 493 244 493 244 493 196 c 0,67,68
 493 160 493 160 480.5 126.5 c 128,-1,69
 468 93 468 93 442.5 67 c 128,-1,70
 417 41 417 41 379 25.5 c 128,-1,71
 341 10 341 10 290 10 c 0,72,73
 245 10 245 10 202.5 27 c 128,-1,74
 160 44 160 44 123.5 75 c 128,-1,75
 87 106 87 106 57.5 149.5 c 128,-1,76
 28 193 28 193 10 246 c 1,77,78
 18 254 18 254 28 254 c 1,79,80
 63 166 63 166 120 116.5 c 128,-1,81
 177 67 177 67 243 67 c 0,82,83
 280 67 280 67 312.5 79.5 c 128,-1,84
 345 92 345 92 369.5 114.5 c 128,-1,85
 394 137 394 137 408 169.5 c 128,-1,86
 422 202 422 202 422 242 c 0,87,88
 422 292 422 292 400 325.5 c 128,-1,89
 378 359 378 359 341 379 c 1,90,91
 310 364 310 364 276 356 c 128,-1,92
 242 348 242 348 210 347 c 0,0,1
EndSplineSet
Substitution2: "Single Substitution lookup 90 subtable" ordfeminine
Substitution2: "'aalt' Access All Alternates lookup 0 subtable" ordfeminine
EndChar

StartChar: B
Encoding: 66 66 36
Width: 685
GlyphClass: 2
Flags: W
LayerCount: 2
Fore
SplineSet
110 688 m 1,0,1
 152 703 152 703 211 717 c 128,-1,2
 270 731 270 731 340 731 c 0,3,4
 408 731 408 731 454 716 c 128,-1,5
 500 701 500 701 528 677 c 128,-1,6
 556 653 556 653 568 622 c 128,-1,7
 580 591 580 591 580 560 c 0,8,9
 580 525 580 525 568.5 495.5 c 128,-1,10
 557 466 557 466 538 443.5 c 128,-1,11
 519 421 519 421 494 405 c 128,-1,12
 469 389 469 389 441 380 c 1,13,14
 530 363 530 363 573 317 c 128,-1,15
 616 271 616 271 616 205 c 0,16,17
 616 154 616 154 592 112.5 c 128,-1,18
 568 71 568 71 525 42 c 128,-1,19
 482 13 482 13 422.5 -2.5 c 128,-1,20
 363 -18 363 -18 293 -18 c 0,21,22
 242 -18 242 -18 196 -13 c 128,-1,23
 150 -8 150 -8 110 0 c 1,24,-1
 110 688 l 1,0,1
309 344 m 0,25,26
 272 344 272 344 243.5 342.5 c 128,-1,27
 215 341 215 341 192 337 c 1,28,-1
 192 49 l 1,29,30
 221 40 221 40 258.5 34.5 c 128,-1,31
 296 29 296 29 331 29 c 0,32,33
 374 29 374 29 409.5 39 c 128,-1,34
 445 49 445 49 471 68.5 c 128,-1,35
 497 88 497 88 511.5 117.5 c 128,-1,36
 526 147 526 147 526 187 c 0,37,38
 526 231 526 231 508 261 c 128,-1,39
 490 291 490 291 459.5 309.5 c 128,-1,40
 429 328 429 328 390 336 c 128,-1,41
 351 344 351 344 309 344 c 0,25,26
346 390 m 2,42,43
 377 391 377 391 404 401.5 c 128,-1,44
 431 412 431 412 450.5 430.5 c 128,-1,45
 470 449 470 449 481.5 475.5 c 128,-1,46
 493 502 493 502 493 536 c 0,47,48
 493 607 493 607 447.5 646 c 128,-1,49
 402 685 402 685 306 685 c 0,50,51
 273 685 273 685 244 681.5 c 128,-1,52
 215 678 215 678 192 673 c 1,53,-1
 192 383 l 1,54,55
 218 386 218 386 252 388 c 128,-1,56
 286 390 286 390 331 390 c 2,57,-1
 346 390 l 2,42,43
EndSplineSet
EndChar

StartChar: C
Encoding: 67 67 37
Width: 705
GlyphClass: 2
Flags: W
LayerCount: 2
Fore
SplineSet
647 582 m 1,0,1
 639 567 639 567 620 554 c 128,-1,2
 601 541 601 541 574 537 c 1,3,4
 569 561 569 561 557.5 586.5 c 128,-1,5
 546 612 546 612 524.5 633 c 128,-1,6
 503 654 503 654 470.5 668 c 128,-1,7
 438 682 438 682 391 682 c 0,8,9
 349 682 349 682 307 665.5 c 128,-1,10
 265 649 265 649 231 613 c 128,-1,11
 197 577 197 577 175.5 519.5 c 128,-1,12
 154 462 154 462 154 380 c 0,13,14
 154 299 154 299 176 236 c 128,-1,15
 198 173 198 173 236 130.5 c 128,-1,16
 274 88 274 88 324.5 66 c 128,-1,17
 375 44 375 44 433 44 c 0,18,19
 500 44 500 44 546.5 66.5 c 128,-1,20
 593 89 593 89 625 126 c 1,21,22
 631 124 631 124 639 118 c 128,-1,23
 647 112 647 112 649 106 c 1,24,25
 641 92 641 92 623 71 c 128,-1,26
 605 50 605 50 574.5 30.5 c 128,-1,27
 544 11 544 11 498.5 -3.5 c 128,-1,28
 453 -18 453 -18 390 -18 c 0,29,30
 328 -18 328 -18 270 4.5 c 128,-1,31
 212 27 212 27 167 72.5 c 128,-1,32
 122 118 122 118 95 186.5 c 128,-1,33
 68 255 68 255 68 346 c 0,34,35
 68 426 68 426 97 496.5 c 128,-1,36
 126 567 126 567 175.5 619 c 128,-1,37
 225 671 225 671 290.5 701 c 128,-1,38
 356 731 356 731 430 731 c 0,39,40
 490 731 490 731 531.5 714 c 128,-1,41
 573 697 573 697 598.5 673 c 128,-1,42
 624 649 624 649 635.5 623.5 c 128,-1,43
 647 598 647 598 647 582 c 1,0,1
EndSplineSet
EndChar

StartChar: D
Encoding: 68 68 38
Width: 681
GlyphClass: 2
Flags: W
AnchorPoint: "Anchor-7" 689 -64 basechar 0
AnchorPoint: "Anchor-6" 829 -64 basechar 0
AnchorPoint: "Anchor-4" 680 0 basechar 0
AnchorPoint: "Anchor-3" 642 0 basechar 0
AnchorPoint: "Anchor-2" 658 0 basechar 0
LayerCount: 2
Fore
SplineSet
300 249 m 0,0,1
 300 277 300 277 311.5 300.5 c 128,-1,2
 323 324 323 324 342.5 340.5 c 128,-1,3
 362 357 362 357 388.5 366.5 c 128,-1,4
 415 376 415 376 445 376 c 0,5,6
 481 376 481 376 515 357 c 128,-1,7
 549 338 549 338 575.5 310 c 128,-1,8
 602 282 602 282 618 249 c 128,-1,9
 634 216 634 216 634 189 c 0,10,11
 634 135 634 135 594 95 c 128,-1,12
 554 55 554 55 493 37 c 1,13,-1
 635 -88 l 1,14,15
 633 -96 633 -96 627.5 -100 c 128,-1,16
 622 -104 622 -104 617 -104 c 2,17,-1
 464 30 l 1,18,19
 434 24 434 24 402 24 c 0,20,21
 367 24 367 24 327 34.5 c 128,-1,22
 287 45 287 45 248.5 63.5 c 128,-1,23
 210 82 210 82 174.5 108 c 128,-1,24
 139 134 139 134 112.5 165.5 c 128,-1,25
 86 197 86 197 70 233 c 128,-1,26
 54 269 54 269 54 307 c 0,27,28
 54 346 54 346 70 378 c 128,-1,29
 86 410 86 410 114.5 435 c 128,-1,30
 143 460 143 460 183 478.5 c 128,-1,31
 223 497 223 497 272 510 c 2,32,-1
 383 540 l 2,33,34
 426 551 426 551 447 562 c 128,-1,35
 468 573 468 573 468 596 c 2,36,-1
 468 623 l 2,37,38
 468 638 468 638 462.5 642 c 128,-1,39
 457 646 457 646 443 646 c 2,40,-1
 0 646 l 2,41,42
 -4 646 -4 646 -10.5 650.5 c 128,-1,43
 -17 655 -17 655 -23.5 662.5 c 128,-1,44
 -30 670 -30 670 -34.5 680 c 128,-1,45
 -39 690 -39 690 -39 702 c 1,46,-1
 411 702 l 2,47,48
 426 702 426 702 448 689 c 128,-1,49
 470 676 470 676 490.5 657.5 c 128,-1,50
 511 639 511 639 525.5 619 c 128,-1,51
 540 599 540 599 540 585 c 2,52,-1
 540 558 l 2,53,54
 540 540 540 540 531 527 c 128,-1,55
 522 514 522 514 505 504 c 128,-1,56
 488 494 488 494 464.5 486.5 c 128,-1,57
 441 479 441 479 413 471 c 2,58,-1
 302 441 l 2,59,60
 267 432 267 432 235.5 416 c 128,-1,61
 204 400 204 400 180 377 c 128,-1,62
 156 354 156 354 141.5 324 c 128,-1,63
 127 294 127 294 127 256 c 0,64,65
 127 216 127 216 143.5 183.5 c 128,-1,66
 160 151 160 151 189.5 128.5 c 128,-1,67
 219 106 219 106 258.5 93.5 c 128,-1,68
 298 81 298 81 344 81 c 0,69,70
 360 81 360 81 375 82.5 c 128,-1,71
 390 84 390 84 404 86 c 1,72,73
 349 124 349 124 324.5 166.5 c 128,-1,74
 300 209 300 209 300 249 c 0,0,1
372 201 m 0,75,76
 372 168 372 168 389 140 c 128,-1,77
 406 112 406 112 434 93 c 1,78,79
 496 111 496 111 534 150.5 c 128,-1,80
 572 190 572 190 572 242 c 0,81,82
 572 277 572 277 552.5 298.5 c 128,-1,83
 533 320 533 320 495 320 c 0,84,85
 465 320 465 320 442 310.5 c 128,-1,86
 419 301 419 301 403.5 284.5 c 128,-1,87
 388 268 388 268 380 246.5 c 128,-1,88
 372 225 372 225 372 201 c 0,75,76
584 646 m 2,89,90
 575 646 575 646 568 652 c 128,-1,91
 561 658 561 658 556 667 c 128,-1,92
 551 676 551 676 548 685.5 c 128,-1,93
 545 695 545 695 545 702 c 1,94,-1
 681 702 l 2,95,96
 690 702 690 702 697 696 c 128,-1,97
 704 690 704 690 709 681 c 128,-1,98
 714 672 714 672 717 662.5 c 128,-1,99
 720 653 720 653 720 646 c 1,100,-1
 584 646 l 2,89,90
EndSplineSet
EndChar

StartChar: E
Encoding: 69 69 39
Width: 628
GlyphClass: 2
Flags: W
LayerCount: 2
Fore
SplineSet
110 -7 m 1,0,-1
 110 695 l 1,1,2
 144 714 144 714 192 716 c 0,3,4
 221 717 221 717 269.5 717.5 c 128,-1,5
 318 718 318 718 372.5 719 c 128,-1,6
 427 720 427 720 479.5 720.5 c 128,-1,7
 532 721 532 721 568 721 c 1,8,9
 566 700 566 700 556.5 683 c 128,-1,10
 547 666 547 666 535 661 c 1,11,12
 501 661 501 661 458 662.5 c 128,-1,13
 415 664 415 664 369 665.5 c 128,-1,14
 323 667 323 667 277 669 c 128,-1,15
 231 671 231 671 192 673 c 1,16,-1
 192 379 l 1,17,-1
 509 385 l 1,18,19
 507 367 507 367 499 352 c 128,-1,20
 491 337 491 337 481 335 c 0,21,22
 408 336 408 336 336 336.5 c 128,-1,23
 264 337 264 337 192 339 c 1,24,-1
 192 37 l 1,25,26
 280 39 280 39 375 43.5 c 128,-1,27
 470 48 470 48 576 55 c 1,28,29
 573 32 573 32 564 15.5 c 128,-1,30
 555 -1 555 -1 544 -7 c 1,31,-1
 110 -7 l 1,0,-1
EndSplineSet
EndChar

StartChar: F
Encoding: 70 70 40
Width: 612
GlyphClass: 2
Flags: W
LayerCount: 2
Fore
SplineSet
192 9 m 1,0,1
 176 0 176 0 154.5 -3.5 c 128,-1,2
 133 -7 133 -7 110 -7 c 1,3,-1
 110 695 l 1,4,5
 124 703 124 703 146.5 709 c 128,-1,6
 169 715 169 715 192 716 c 0,7,8
 216 717 216 717 263.5 717.5 c 128,-1,9
 311 718 311 718 366 719 c 128,-1,10
 421 720 421 720 476 720.5 c 128,-1,11
 531 721 531 721 570 721 c 1,12,13
 568 701 568 701 559.5 684 c 128,-1,14
 551 667 551 667 539 662 c 1,15,16
 504 662 504 662 460 663 c 128,-1,17
 416 664 416 664 369 665.5 c 128,-1,18
 322 667 322 667 276 668.5 c 128,-1,19
 230 670 230 670 192 672 c 1,20,-1
 192 379 l 1,21,-1
 504 385 l 1,22,23
 502 367 502 367 494 352 c 128,-1,24
 486 337 486 337 476 335 c 0,25,26
 404 336 404 336 334 336 c 128,-1,27
 264 336 264 336 192 338 c 1,28,-1
 192 9 l 1,0,1
EndSplineSet
EndChar

StartChar: G
Encoding: 71 71 41
Width: 771
GlyphClass: 2
Flags: W
LayerCount: 2
Fore
SplineSet
684 91 m 1,0,1
 674 79 674 79 652.5 60.5 c 128,-1,2
 631 42 631 42 596.5 24.5 c 128,-1,3
 562 7 562 7 515 -5.5 c 128,-1,4
 468 -18 468 -18 408 -18 c 0,5,6
 342 -18 342 -18 281 4.5 c 128,-1,7
 220 27 220 27 172.5 72.5 c 128,-1,8
 125 118 125 118 96.5 186.5 c 128,-1,9
 68 255 68 255 68 347 c 0,10,11
 68 426 68 426 96.5 496 c 128,-1,12
 125 566 125 566 175.5 618.5 c 128,-1,13
 226 671 226 671 294 701 c 128,-1,14
 362 731 362 731 442 731 c 0,15,16
 509 731 509 731 553 714 c 128,-1,17
 597 697 597 697 623.5 673.5 c 128,-1,18
 650 650 650 650 662 625.5 c 128,-1,19
 674 601 674 601 677 585 c 1,20,21
 670 571 670 571 650.5 558.5 c 128,-1,22
 631 546 631 546 605 542 c 1,23,24
 599 567 599 567 585 592 c 128,-1,25
 571 617 571 617 546.5 636.5 c 128,-1,26
 522 656 522 656 486 668 c 128,-1,27
 450 680 450 680 401 680 c 0,28,29
 354 680 354 680 310 662.5 c 128,-1,30
 266 645 266 645 231.5 609 c 128,-1,31
 197 573 197 573 176.5 517 c 128,-1,32
 156 461 156 461 156 384 c 0,33,34
 156 292 156 292 180.5 226 c 128,-1,35
 205 160 205 160 245.5 117.5 c 128,-1,36
 286 75 286 75 338 55 c 128,-1,37
 390 35 390 35 445 35 c 0,38,39
 509 35 509 35 545 48.5 c 128,-1,40
 581 62 581 62 602 74 c 1,41,-1
 602 322 l 1,42,43
 554 320 554 320 503 318.5 c 128,-1,44
 452 317 452 317 410 317 c 1,45,46
 412 334 412 334 419.5 348 c 128,-1,47
 427 362 427 362 436 367 c 1,48,-1
 684 365 l 1,49,-1
 684 91 l 1,0,1
EndSplineSet
EndChar

StartChar: H
Encoding: 72 72 42
Width: 632
GlyphClass: 2
Flags: W
AnchorPoint: "Anchor-7" 579 -93 basechar 0
AnchorPoint: "Anchor-6" 719 -93 basechar 0
AnchorPoint: "Anchor-4" 580 0 basechar 0
AnchorPoint: "Anchor-3" 570 0 basechar 0
AnchorPoint: "Anchor-2" 586 0 basechar 0
LayerCount: 2
Fore
SplineSet
451 -4 m 1,0,1
 403 16 403 16 393 56 c 1,2,3
 447 73 447 73 484.5 112.5 c 128,-1,4
 522 152 522 152 522 212 c 0,5,6
 522 241 522 241 511 264.5 c 128,-1,7
 500 288 500 288 480 305 c 128,-1,8
 460 322 460 322 433 331.5 c 128,-1,9
 406 341 406 341 373 341 c 0,10,11
 326 341 326 341 283.5 327 c 128,-1,12
 241 313 241 313 208.5 286.5 c 128,-1,13
 176 260 176 260 156.5 221 c 128,-1,14
 137 182 137 182 137 132 c 0,15,16
 137 87 137 87 154.5 50 c 128,-1,17
 172 13 172 13 206.5 -19 c 128,-1,18
 241 -51 241 -51 293 -80.5 c 128,-1,19
 345 -110 345 -110 414 -139 c 1,20,21
 414 -144 414 -144 411 -150 c 128,-1,22
 408 -156 408 -156 405 -159 c 0,23,24
 373 -147 373 -147 335.5 -130 c 128,-1,25
 298 -113 298 -113 260 -91 c 128,-1,26
 222 -69 222 -69 186.5 -41.5 c 128,-1,27
 151 -14 151 -14 124 20 c 128,-1,28
 97 54 97 54 80.5 94.5 c 128,-1,29
 64 135 64 135 64 183 c 0,30,31
 64 243 64 243 91 288 c 128,-1,32
 118 333 118 333 163 360 c 1,33,34
 137 377 137 377 117 401.5 c 128,-1,35
 97 426 97 426 97 456 c 0,36,37
 97 488 97 488 121.5 506 c 128,-1,38
 146 524 146 524 180 532 c 2,39,-1
 357 576 l 2,40,41
 376 581 376 581 388.5 589.5 c 128,-1,42
 401 598 401 598 401 615 c 0,43,44
 401 627 401 627 393.5 636.5 c 128,-1,45
 386 646 386 646 375 646 c 2,46,-1
 0 646 l 2,47,48
 -4 646 -4 646 -10.5 650.5 c 128,-1,49
 -17 655 -17 655 -23.5 662.5 c 128,-1,50
 -30 670 -30 670 -34.5 680 c 128,-1,51
 -39 690 -39 690 -39 702 c 1,52,-1
 338 702 l 2,53,54
 351 702 351 702 373 689 c 128,-1,55
 395 676 395 676 416 656.5 c 128,-1,56
 437 637 437 637 452.5 615 c 128,-1,57
 468 593 468 593 468 575 c 0,58,59
 468 550 468 550 448.5 536.5 c 128,-1,60
 429 523 429 523 403 517 c 2,61,-1
 226 473 l 2,62,63
 200 466 200 466 182 453.5 c 128,-1,64
 164 441 164 441 164 416 c 0,65,66
 164 390 164 390 184 372 c 1,67,68
 242 401 242 401 314 401 c 0,69,70
 368 401 368 401 417.5 377 c 128,-1,71
 467 353 467 353 505.5 316.5 c 128,-1,72
 544 280 544 280 567 237 c 128,-1,73
 590 194 590 194 590 155 c 0,74,75
 590 127 590 127 578.5 101.5 c 128,-1,76
 567 76 567 76 548 55 c 128,-1,77
 529 34 529 34 504 18.5 c 128,-1,78
 479 3 479 3 451 -4 c 1,0,1
508 646 m 2,79,80
 499 646 499 646 492 652 c 128,-1,81
 485 658 485 658 480 667 c 128,-1,82
 475 676 475 676 472 685.5 c 128,-1,83
 469 695 469 695 469 702 c 1,84,-1
 642 702 l 2,85,86
 651 702 651 702 658 696 c 128,-1,87
 665 690 665 690 670 681 c 128,-1,88
 675 672 675 672 678 662.5 c 128,-1,89
 681 653 681 653 681 646 c 1,90,-1
 508 646 l 2,79,80
EndSplineSet
EndChar

StartChar: I
Encoding: 73 73 43
Width: 304
GlyphClass: 2
Flags: W
LayerCount: 2
Fore
SplineSet
193 9 m 1,0,1
 177 0 177 0 155.5 -3.5 c 128,-1,2
 134 -7 134 -7 111 -7 c 1,3,-1
 111 703 l 1,4,5
 145 721 145 721 193 721 c 1,6,-1
 193 9 l 1,0,1
EndSplineSet
EndChar

StartChar: J
Encoding: 74 74 44
Width: 596
GlyphClass: 2
Flags: W
LayerCount: 2
Fore
SplineSet
507 733 m 5,0,1
 518 730 518 730 528.5 719.5 c 132,-1,2
 539 709 539 709 540 698 c 5,3,4
 518 688 518 688 492.5 672 c 132,-1,5
 467 656 467 656 445 632 c 132,-1,6
 423 608 423 608 408.5 576 c 132,-1,7
 394 544 394 544 394 503 c 4,8,9
 394 474 394 474 403.5 441.5 c 132,-1,10
 413 409 413 409 424 375 c 5,11,-1
 551 375 l 5,12,13
 549 353 549 353 538.5 341.5 c 132,-1,14
 528 330 528 330 515 330 c 6,15,-1
 439 330 l 5,16,17
 447 305 447 305 452.5 281 c 132,-1,18
 458 257 458 257 458 234 c 4,19,20
 458 182 458 182 439.5 138.5 c 132,-1,21
 421 95 421 95 388.5 63 c 132,-1,22
 356 31 356 31 312 13 c 132,-1,23
 268 -5 268 -5 217 -5 c 4,24,25
 177 -5 177 -5 150 4.5 c 132,-1,26
 123 14 123 14 105.5 28.5 c 132,-1,27
 88 43 88 43 80 58.5 c 132,-1,28
 72 74 72 74 70 86 c 5,29,30
 76 98 76 98 96.5 111.5 c 132,-1,31
 117 125 117 125 141 127 c 5,32,33
 144 114 144 114 150.5 99 c 132,-1,34
 157 84 157 84 170 71 c 132,-1,35
 183 58 183 58 203.5 49 c 132,-1,36
 224 40 224 40 255 40 c 4,37,38
 278 40 278 40 301 48 c 132,-1,39
 324 56 324 56 342 73 c 132,-1,40
 360 90 360 90 371.5 117 c 132,-1,41
 383 144 383 144 383 182 c 4,42,43
 383 214 383 214 371.5 253 c 132,-1,44
 360 292 360 292 347 330 c 5,45,-1
 96 330 l 5,46,47
 98 351 98 351 107.5 363 c 132,-1,48
 117 375 117 375 132 375 c 6,49,-1
 333 375 l 5,50,51
 327 396 327 396 323 416 c 132,-1,52
 319 436 319 436 319 456 c 4,53,54
 319 518 319 518 344.5 561.5 c 132,-1,55
 370 605 370 605 404 637 c 5,56,57
 389 627 389 627 372.5 620 c 132,-1,58
 356 613 356 613 334 613 c 4,59,60
 311 613 311 613 287.5 622.5 c 132,-1,61
 264 632 264 632 240 643 c 132,-1,62
 216 654 216 654 191 663.5 c 132,-1,63
 166 673 166 673 141 673 c 4,64,65
 103 673 103 673 82 658 c 132,-1,66
 61 643 61 643 44 621 c 5,67,68
 38 622 38 622 32.5 626 c 132,-1,69
 27 630 27 630 25 635 c 5,70,71
 34 652 34 652 47 669.5 c 132,-1,72
 60 687 60 687 78.5 701 c 132,-1,73
 97 715 97 715 121 724 c 132,-1,74
 145 733 145 733 175 733 c 4,75,76
 203 733 203 733 230 723.5 c 132,-1,77
 257 714 257 714 282.5 703 c 132,-1,78
 308 692 308 692 332.5 682.5 c 132,-1,79
 357 673 357 673 380 673 c 4,80,81
 399 673 399 673 415 678 c 132,-1,82
 431 683 431 683 446 691 c 132,-1,83
 461 699 461 699 475.5 710 c 132,-1,84
 490 721 490 721 507 733 c 5,0,1
EndSplineSet
EndChar

StartChar: K
Encoding: 75 75 45
Width: 569
GlyphClass: 2
Flags: W
LayerCount: 2
Fore
SplineSet
94 755 m 1,0,1
 111 764 111 764 131.5 768 c 128,-1,2
 152 772 152 772 173 772 c 1,3,-1
 173 278 l 1,4,5
 203 296 203 296 234.5 321 c 128,-1,6
 266 346 266 346 297.5 376 c 128,-1,7
 329 406 329 406 360 440.5 c 128,-1,8
 391 475 391 475 419 511 c 1,9,10
 429 517 429 517 446 520 c 128,-1,11
 463 523 463 523 480 523 c 256,12,13
 497 523 497 523 508 520 c 1,14,15
 488 493 488 493 459 463 c 128,-1,16
 430 433 430 433 398.5 404.5 c 128,-1,17
 367 376 367 376 335 350 c 128,-1,18
 303 324 303 324 276 305 c 1,19,20
 302 300 302 300 320.5 280 c 128,-1,21
 339 260 339 260 363 228 c 2,22,-1
 446 117 l 2,23,24
 463 94 463 94 476 77.5 c 128,-1,25
 489 61 489 61 500 48.5 c 128,-1,26
 511 36 511 36 520 27 c 128,-1,27
 529 18 529 18 539 11 c 1,28,-1
 539 6 l 1,29,30
 526 -1 526 -1 501 -4 c 128,-1,31
 476 -7 476 -7 460 -7 c 1,32,33
 447 -2 447 -2 430.5 15.5 c 128,-1,34
 414 33 414 33 386 71 c 2,35,-1
 301 188 l 2,36,37
 287 207 287 207 276.5 221 c 128,-1,38
 266 235 266 235 256.5 243 c 128,-1,39
 247 251 247 251 237.5 255 c 128,-1,40
 228 259 228 259 216 259 c 256,41,42
 204 259 204 259 193 254.5 c 128,-1,43
 182 250 182 250 173 244 c 1,44,-1
 173 8 l 1,45,46
 159 0 159 0 136.5 -3.5 c 128,-1,47
 114 -7 114 -7 94 -7 c 1,48,-1
 94 755 l 1,0,1
EndSplineSet
EndChar

StartChar: L
Encoding: 76 76 46
Width: 596
GlyphClass: 2
Flags: W
LayerCount: 2
Fore
SplineSet
84 -7 m 1,0,1
 73 -4 73 -4 62.5 6.5 c 128,-1,2
 52 17 52 17 51 28 c 1,3,4
 73 38 73 38 98.5 54 c 128,-1,5
 124 70 124 70 146 94 c 128,-1,6
 168 118 168 118 182.5 150 c 128,-1,7
 197 182 197 182 197 223 c 0,8,9
 197 252 197 252 187.5 284.5 c 128,-1,10
 178 317 178 317 167 351 c 1,11,-1
 40 351 l 1,12,13
 42 373 42 373 52.5 384.5 c 128,-1,14
 63 396 63 396 76 396 c 2,15,-1
 152 396 l 1,16,17
 144 421 144 421 138.5 445 c 128,-1,18
 133 469 133 469 133 492 c 0,19,20
 133 544 133 544 151.5 587.5 c 128,-1,21
 170 631 170 631 202.5 663 c 128,-1,22
 235 695 235 695 279 713 c 128,-1,23
 323 731 323 731 374 731 c 0,24,25
 414 731 414 731 441 721.5 c 128,-1,26
 468 712 468 712 485.5 697.5 c 128,-1,27
 503 683 503 683 511 667.5 c 128,-1,28
 519 652 519 652 521 640 c 1,29,30
 515 628 515 628 494.5 614.5 c 128,-1,31
 474 601 474 601 450 599 c 1,32,33
 447 612 447 612 440.5 627 c 128,-1,34
 434 642 434 642 421 655 c 128,-1,35
 408 668 408 668 387.5 677 c 128,-1,36
 367 686 367 686 336 686 c 0,37,38
 313 686 313 686 290 678 c 128,-1,39
 267 670 267 670 249 653 c 128,-1,40
 231 636 231 636 219.5 609 c 128,-1,41
 208 582 208 582 208 544 c 0,42,43
 208 512 208 512 219.5 473 c 128,-1,44
 231 434 231 434 244 396 c 1,45,-1
 495 396 l 1,46,47
 493 375 493 375 483.5 363 c 128,-1,48
 474 351 474 351 459 351 c 2,49,-1
 258 351 l 1,50,51
 264 330 264 330 268 310 c 128,-1,52
 272 290 272 290 272 270 c 0,53,54
 272 208 272 208 246.5 164.5 c 128,-1,55
 221 121 221 121 187 89 c 1,56,57
 202 99 202 99 218.5 106 c 128,-1,58
 235 113 235 113 257 113 c 0,59,60
 280 113 280 113 303.5 103.5 c 128,-1,61
 327 94 327 94 351 83 c 128,-1,62
 375 72 375 72 400 62.5 c 128,-1,63
 425 53 425 53 450 53 c 0,64,65
 488 53 488 53 509 68 c 128,-1,66
 530 83 530 83 547 105 c 1,67,68
 553 104 553 104 558.5 100 c 128,-1,69
 564 96 564 96 566 91 c 1,70,71
 557 74 557 74 544 56.5 c 128,-1,72
 531 39 531 39 512.5 25 c 128,-1,73
 494 11 494 11 470 2 c 128,-1,74
 446 -7 446 -7 416 -7 c 0,75,76
 388 -7 388 -7 361 2.5 c 128,-1,77
 334 12 334 12 308.5 23 c 128,-1,78
 283 34 283 34 258.5 43.5 c 128,-1,79
 234 53 234 53 211 53 c 0,80,81
 192 53 192 53 176 48 c 128,-1,82
 160 43 160 43 145 35 c 128,-1,83
 130 27 130 27 115.5 16 c 128,-1,84
 101 5 101 5 84 -7 c 1,0,1
EndSplineSet
EndChar

StartChar: M
Encoding: 77 77 47
Width: 921
GlyphClass: 2
Flags: W
LayerCount: 2
Fore
SplineSet
496 122 m 0,0,1
 491 117 491 117 482 113.5 c 128,-1,2
 473 110 473 110 462.5 107 c 128,-1,3
 452 104 452 104 441 102.5 c 128,-1,4
 430 101 430 101 421 101 c 1,5,-1
 204 625 l 1,6,7
 197 547 197 547 190.5 466.5 c 128,-1,8
 184 386 184 386 178.5 307.5 c 128,-1,9
 173 229 173 229 168.5 153.5 c 128,-1,10
 164 78 164 78 161 9 c 1,11,12
 146 0 146 0 123.5 -3.5 c 128,-1,13
 101 -7 101 -7 79 -7 c 1,14,15
 100 167 100 167 124 346 c 128,-1,16
 148 525 148 525 173 702 c 1,17,18
 187 710 187 710 210 715.5 c 128,-1,19
 233 721 233 721 253 721 c 1,20,-1
 471 182 l 1,21,22
 522 310 522 310 575.5 442 c 128,-1,23
 629 574 629 574 680 705 c 1,24,25
 696 713 696 713 717.5 717 c 128,-1,26
 739 721 739 721 759 721 c 1,27,-1
 843 8 l 1,28,29
 829 0 829 0 806 -3.5 c 128,-1,30
 783 -7 783 -7 761 -7 c 1,31,-1
 690 611 l 1,32,33
 640 486 640 486 590.5 362 c 128,-1,34
 541 238 541 238 496 122 c 0,0,1
EndSplineSet
EndChar

StartChar: N
Encoding: 78 78 48
Width: 773
GlyphClass: 2
Flags: W
LayerCount: 2
Fore
SplineSet
660 3 m 1,0,1
 654 -2 654 -2 642 -4.5 c 128,-1,2
 630 -7 630 -7 621 -7 c 1,3,-1
 157 630 l 1,4,5
 158 552 158 552 159.5 476 c 128,-1,6
 161 400 161 400 162.5 324 c 128,-1,7
 164 248 164 248 166.5 170.5 c 128,-1,8
 169 93 169 93 173 11 c 1,9,10
 162 3 162 3 140 -2 c 128,-1,11
 118 -7 118 -7 98 -7 c 1,12,13
 100 80 100 80 102 162.5 c 128,-1,14
 104 245 104 245 106 330.5 c 128,-1,15
 108 416 108 416 110 507.5 c 128,-1,16
 112 599 112 599 115 703 c 1,17,18
 132 711 132 711 153.5 716 c 128,-1,19
 175 721 175 721 196 721 c 1,20,-1
 615 141 l 1,21,22
 613 289 613 289 610.5 432 c 128,-1,23
 608 575 608 575 603 702 c 1,24,25
 620 712 620 712 640.5 716.5 c 128,-1,26
 661 721 661 721 678 721 c 1,27,28
 673 561 673 561 669 379 c 128,-1,29
 665 197 665 197 660 3 c 1,0,1
EndSplineSet
EndChar

StartChar: O
Encoding: 79 79 49
Width: 820
GlyphClass: 2
Flags: W
LayerCount: 2
Fore
SplineSet
157 379 m 0,0,1
 157 294 157 294 178.5 229 c 128,-1,2
 200 164 200 164 236 119.5 c 128,-1,3
 272 75 272 75 320.5 52 c 128,-1,4
 369 29 369 29 423 29 c 0,5,6
 538 29 538 29 601.5 108 c 128,-1,7
 665 187 665 187 665 345 c 0,8,9
 665 422 665 422 646 484.5 c 128,-1,10
 627 547 627 547 592.5 591.5 c 128,-1,11
 558 636 558 636 509.5 660 c 128,-1,12
 461 684 461 684 401 684 c 0,13,14
 353 684 353 684 308.5 666 c 128,-1,15
 264 648 264 648 230.5 610.5 c 128,-1,16
 197 573 197 573 177 515.5 c 128,-1,17
 157 458 157 458 157 379 c 0,0,1
68 347 m 256,18,19
 68 432 68 432 97.5 502.5 c 128,-1,20
 127 573 127 573 176.5 624 c 128,-1,21
 226 675 226 675 291.5 703 c 128,-1,22
 357 731 357 731 430 731 c 0,23,24
 509 731 509 731 569.5 704 c 128,-1,25
 630 677 630 677 671 629 c 128,-1,26
 712 581 712 581 733 516.5 c 128,-1,27
 754 452 754 452 754 377 c 0,28,29
 754 294 754 294 730 222 c 128,-1,30
 706 150 706 150 660 97 c 128,-1,31
 614 44 614 44 547.5 13 c 128,-1,32
 481 -18 481 -18 397 -18 c 0,33,34
 330 -18 330 -18 270.5 7 c 128,-1,35
 211 32 211 32 166 79.5 c 128,-1,36
 121 127 121 127 94.5 194.5 c 128,-1,37
 68 262 68 262 68 347 c 256,18,19
EndSplineSet
Substitution2: "Single Substitution lookup 90 subtable" ordmasculine
Substitution2: "'aalt' Access All Alternates lookup 0 subtable" ordmasculine
EndChar

StartChar: P
Encoding: 80 80 50
Width: 646
GlyphClass: 2
Flags: W
LayerCount: 2
Fore
SplineSet
110 691 m 1,0,1
 155 707 155 707 213 719 c 128,-1,2
 271 731 271 731 340 731 c 0,3,4
 412 731 412 731 461 713.5 c 128,-1,5
 510 696 510 696 539.5 667 c 128,-1,6
 569 638 569 638 582 601 c 128,-1,7
 595 564 595 564 595 525 c 0,8,9
 595 464 595 464 570.5 416 c 128,-1,10
 546 368 546 368 503.5 335 c 128,-1,11
 461 302 461 302 404 284.5 c 128,-1,12
 347 267 347 267 281 267 c 0,13,14
 255 267 255 267 232 269 c 128,-1,15
 209 271 209 271 192 274 c 1,16,-1
 192 9 l 1,17,18
 176 0 176 0 154.5 -3.5 c 128,-1,19
 133 -7 133 -7 110 -7 c 1,20,-1
 110 691 l 1,0,1
312 685 m 0,21,22
 276 685 276 685 246 681 c 128,-1,23
 216 677 216 677 192 672 c 1,24,-1
 192 341 l 1,25,26
 214 329 214 329 243.5 321 c 128,-1,27
 273 313 273 313 317 313 c 0,28,29
 404 313 404 313 455 359 c 128,-1,30
 506 405 506 405 506 492 c 0,31,32
 506 532 506 532 495 567 c 128,-1,33
 484 602 484 602 460 628.5 c 128,-1,34
 436 655 436 655 399.5 670 c 128,-1,35
 363 685 363 685 312 685 c 0,21,22
EndSplineSet
EndChar

StartChar: Q
Encoding: 81 81 51
Width: 680
GlyphClass: 2
Flags: W
AnchorPoint: "Anchor-4" 700 0 basechar 0
LayerCount: 2
Fore
SplineSet
558 -7 m 1,0,1
 538 -7 538 -7 519 0 c 128,-1,2
 500 7 500 7 486 24 c 1,3,-1
 486 276 l 5,4,5
 458 251 458 251 421 235.5 c 132,-1,6
 384 220 384 220 334 220 c 4,7,8
 292 220 292 220 243 243 c 132,-1,9
 194 266 194 266 152 303 c 132,-1,10
 110 340 110 340 82 386 c 132,-1,11
 54 432 54 432 54 478 c 4,12,13
 54 526 54 526 71.5 563 c 132,-1,14
 89 600 89 600 119 625.5 c 132,-1,15
 149 651 149 651 189.5 664 c 132,-1,16
 230 677 230 677 276 677 c 4,17,18
 310 677 310 677 340 669 c 4,19,20
 389 656 389 656 396 647.5 c 4,21,22
 431 607 431 607 444.5 616.5 c 4,23,24
 448 619 448 619 486 703 c 5,25,-1
 484 702 l 1,26,-1
 560 702 l 2,27,28
 558 -7 l 1,0,1
277 277 m 4,29,30
 315 277 315 277 351 289.5 c 132,-1,31
 387 302 387 302 417 325 c 5,32,-1
 184 565 l 5,33,34
 157 541 157 541 142 506.5 c 132,-1,35
 127 472 127 472 127 427 c 4,36,37
 127 391 127 391 138.5 363 c 132,-1,38
 150 335 150 335 170 316 c 132,-1,39
 190 297 190 297 217.5 287 c 132,-1,40
 245 277 245 277 277 277 c 4,29,30
486 556 m 5,41,42
 451 583 451 583 413.5 598.5 c 132,-1,43
 376 614 376 614 327 614 c 4,44,45
 255 614 255 614 204 581 c 5,46,-1
 435 341 l 5,47,48
 451 356 451 356 464 374 c 132,-1,49
 477 392 477 392 486 412 c 5,50,-1
 486 556 l 5,41,42
EndSplineSet
EndChar

StartChar: R
Encoding: 82 82 52
Width: 678
GlyphClass: 2
Flags: W
LayerCount: 2
Fore
SplineSet
110 692 m 1,0,1
 154 708 154 708 213.5 719.5 c 128,-1,2
 273 731 273 731 334 731 c 0,3,4
 402 731 402 731 449.5 715.5 c 128,-1,5
 497 700 497 700 527 673.5 c 128,-1,6
 557 647 557 647 570.5 612 c 128,-1,7
 584 577 584 577 584 538 c 0,8,9
 584 490 584 490 566 453.5 c 128,-1,10
 548 417 548 417 519.5 390.5 c 128,-1,11
 491 364 491 364 454 346.5 c 128,-1,12
 417 329 417 329 380 320 c 1,13,14
 397 309 397 309 412 292.5 c 128,-1,15
 427 276 427 276 444 254 c 2,16,-1
 543 126 l 2,17,18
 574 86 574 86 600 57 c 128,-1,19
 626 28 626 28 644 13 c 1,20,-1
 644 7 l 1,21,22
 630 0 630 0 603 -3.5 c 128,-1,23
 576 -7 576 -7 552 -7 c 1,24,25
 542 -3 542 -3 525.5 14.5 c 128,-1,26
 509 32 509 32 480 74 c 2,27,-1
 362 241 l 2,28,29
 349 259 349 259 337.5 272 c 128,-1,30
 326 285 326 285 312.5 293.5 c 128,-1,31
 299 302 299 302 281.5 305.5 c 128,-1,32
 264 309 264 309 239 309 c 2,33,-1
 192 309 l 1,34,-1
 192 9 l 1,35,36
 176 0 176 0 154.5 -3.5 c 128,-1,37
 133 -7 133 -7 110 -7 c 1,38,-1
 110 692 l 1,0,1
298 685 m 0,39,40
 274 685 274 685 246 682 c 128,-1,41
 218 679 218 679 192 673 c 1,42,-1
 192 363 l 1,43,44
 209 358 209 358 231.5 355 c 128,-1,45
 254 352 254 352 283 352 c 0,46,47
 381 352 381 352 438 392 c 128,-1,48
 495 432 495 432 495 515 c 0,49,50
 495 551 495 551 483 582.5 c 128,-1,51
 471 614 471 614 446.5 636.5 c 128,-1,52
 422 659 422 659 385 672 c 128,-1,53
 348 685 348 685 298 685 c 0,39,40
EndSplineSet
EndChar

StartChar: S
Encoding: 83 83 53
Width: 639
GlyphClass: 2
Flags: W
LayerCount: 2
Fore
SplineSet
61 152 m 1,0,1
 71 167 71 167 94 180 c 128,-1,2
 117 193 117 193 139 194 c 1,3,4
 142 166 142 166 155 137.5 c 128,-1,5
 168 109 168 109 192.5 86.5 c 128,-1,6
 217 64 217 64 253 49.5 c 128,-1,7
 289 35 289 35 339 35 c 0,8,9
 412 35 412 35 455 72.5 c 128,-1,10
 498 110 498 110 498 171 c 0,11,12
 498 229 498 229 468 267 c 128,-1,13
 438 305 438 305 359 325 c 2,14,-1
 265 349 l 2,15,16
 229 358 229 358 197 370 c 128,-1,17
 165 382 165 382 141 401.5 c 128,-1,18
 117 421 117 421 103.5 449.5 c 128,-1,19
 90 478 90 478 90 519 c 256,20,21
 90 560 90 560 110 598 c 128,-1,22
 130 636 130 636 165.5 665.5 c 128,-1,23
 201 695 201 695 248.5 713 c 128,-1,24
 296 731 296 731 351 731 c 256,25,26
 406 731 406 731 445 717 c 128,-1,27
 484 703 484 703 508 683 c 128,-1,28
 532 663 532 663 543.5 639.5 c 128,-1,29
 555 616 555 616 557 598 c 1,30,31
 550 584 550 584 531 572.5 c 128,-1,32
 512 561 512 561 487 558 c 1,33,34
 483 580 483 580 472 601.5 c 128,-1,35
 461 623 461 623 440.5 640.5 c 128,-1,36
 420 658 420 658 390 669 c 128,-1,37
 360 680 360 680 319 680 c 0,38,39
 251 680 251 680 210 644.5 c 128,-1,40
 169 609 169 609 169 551 c 0,41,42
 169 518 169 518 179 496.5 c 128,-1,43
 189 475 189 475 207 460.5 c 128,-1,44
 225 446 225 446 249.5 437 c 128,-1,45
 274 428 274 428 303 421 c 2,46,-1
 391 399 l 2,47,48
 446 385 446 385 482.5 365 c 128,-1,49
 519 345 519 345 540 321 c 128,-1,50
 561 297 561 297 569.5 268.5 c 128,-1,51
 578 240 578 240 578 210 c 0,52,53
 578 165 578 165 559 124 c 128,-1,54
 540 83 540 83 504 51.5 c 128,-1,55
 468 20 468 20 417.5 1.5 c 128,-1,56
 367 -17 367 -17 304 -17 c 0,57,58
 243 -17 243 -17 198 -1 c 128,-1,59
 153 15 153 15 123 39.5 c 128,-1,60
 93 64 93 64 77.5 94 c 128,-1,61
 62 124 62 124 61 152 c 1,0,1
EndSplineSet
EndChar

StartChar: T
Encoding: 84 84 54
Width: 724
GlyphClass: 2
Flags: W
AnchorPoint: "Anchor-4" 740 0 basechar 0
LayerCount: 2
Fore
SplineSet
530 356 m 1,0,1
 504 388 504 388 462 412 c 128,-1,2
 420 436 420 436 365 436 c 0,3,4
 321 436 321 436 280.5 422.5 c 128,-1,5
 240 409 240 409 209.5 381 c 128,-1,6
 179 353 179 353 161 311 c 128,-1,7
 143 269 143 269 143 212 c 0,8,9
 143 144 143 144 176.5 86 c 128,-1,10
 210 28 210 28 261 -19 c 1,11,12
 256 -30 256 -30 246 -33 c 1,13,14
 220 -12 220 -12 189.5 18 c 128,-1,15
 159 48 159 48 132.5 86.5 c 128,-1,16
 106 125 106 125 88 170 c 128,-1,17
 70 215 70 215 70 265 c 0,18,19
 70 322 70 322 89.5 366 c 128,-1,20
 109 410 109 410 142.5 439.5 c 128,-1,21
 176 469 176 469 220.5 484 c 128,-1,22
 265 499 265 499 314 499 c 0,23,24
 350 499 350 499 382 489 c 128,-1,25
 414 479 414 479 441.5 462.5 c 128,-1,26
 469 446 469 446 491 426 c 128,-1,27
 513 406 513 406 530 385 c 1,28,-1
 530 646 l 1,29,-1
 0 646 l 2,30,31
 -9 646 -9 646 -16 652 c 128,-1,32
 -23 658 -23 658 -28 667 c 128,-1,33
 -33 676 -33 676 -36 685.5 c 128,-1,34
 -39 695 -39 695 -39 702 c 1,35,-1
 714 702 l 2,36,37
 723 702 723 702 730 696 c 128,-1,38
 737 690 737 690 742 681 c 128,-1,39
 747 672 747 672 750 662.5 c 128,-1,40
 753 653 753 653 753 646 c 1,41,-1
 602 646 l 1,42,-1
 602 -7 l 1,43,44
 582 -7 582 -7 563 0 c 128,-1,45
 544 7 544 7 530 24 c 1,46,-1
 530 356 l 1,0,1
EndSplineSet
EndChar

StartChar: U
Encoding: 85 85 55
Width: 763
GlyphClass: 2
Flags: W
LayerCount: 2
Fore
SplineSet
189 274 m 2,0,1
 189 210 189 210 204.5 165.5 c 128,-1,2
 220 121 220 121 248.5 93 c 128,-1,3
 277 65 277 65 316 52.5 c 128,-1,4
 355 40 355 40 403 40 c 0,5,6
 466 40 466 40 505 61.5 c 128,-1,7
 544 83 544 83 566.5 123 c 128,-1,8
 589 163 589 163 597 220.5 c 128,-1,9
 605 278 605 278 605 349 c 0,10,11
 605 426 605 426 602.5 516 c 128,-1,12
 600 606 600 606 596 706 c 1,13,14
 613 714 613 714 632.5 717.5 c 128,-1,15
 652 721 652 721 671 721 c 1,16,17
 669 658 669 658 669 601.5 c 128,-1,18
 669 545 669 545 668 490 c 128,-1,19
 667 435 667 435 665 380.5 c 128,-1,20
 663 326 663 326 659 268 c 0,21,22
 653 187 653 187 628 132.5 c 128,-1,23
 603 78 603 78 565 44.5 c 128,-1,24
 527 11 527 11 476.5 -3 c 128,-1,25
 426 -17 426 -17 369 -17 c 0,26,27
 316 -17 316 -17 268.5 -2 c 128,-1,28
 221 13 221 13 185 44.5 c 128,-1,29
 149 76 149 76 128 125.5 c 128,-1,30
 107 175 107 175 107 244 c 2,31,-1
 107 703 l 1,32,33
 141 721 141 721 189 721 c 1,34,-1
 189 274 l 2,0,1
EndSplineSet
EndChar

StartChar: V
Encoding: 86 86 56
Width: 715
GlyphClass: 2
Flags: W
LayerCount: 2
Fore
SplineSet
672 719 m 1,0,1
 654 647 654 647 623.5 556.5 c 128,-1,2
 593 466 593 466 556 370.5 c 128,-1,3
 519 275 519 275 478 182 c 128,-1,4
 437 89 437 89 397 12 c 1,5,6
 385 4 385 4 363.5 -1.5 c 128,-1,7
 342 -7 342 -7 321 -7 c 1,8,9
 283 71 283 71 245.5 159.5 c 128,-1,10
 208 248 208 248 173.5 339.5 c 128,-1,11
 139 431 139 431 108.5 523 c 128,-1,12
 78 615 78 615 56 700 c 1,13,14
 88 721 88 721 136 721 c 1,15,16
 177 563 177 563 238.5 389.5 c 128,-1,17
 300 216 300 216 375 52 c 1,18,19
 408 123 408 123 439 204 c 128,-1,20
 470 285 470 285 498.5 370.5 c 128,-1,21
 527 456 527 456 551.5 543 c 128,-1,22
 576 630 576 630 594 711 c 1,23,24
 616 721 616 721 648 721 c 0,25,26
 664 721 664 721 672 719 c 1,0,1
EndSplineSet
EndChar

StartChar: W
Encoding: 87 87 57
Width: 1005
GlyphClass: 2
Flags: W
LayerCount: 2
Fore
SplineSet
335 13 m 1,0,1
 325 4 325 4 303 -1.5 c 128,-1,2
 281 -7 281 -7 260 -7 c 1,3,4
 228 76 228 76 199 166.5 c 128,-1,5
 170 257 170 257 145.5 348.5 c 128,-1,6
 121 440 121 440 100 530 c 128,-1,7
 79 620 79 620 63 703 c 1,8,9
 80 712 80 712 101 716.5 c 128,-1,10
 122 721 122 721 142 721 c 1,11,12
 155 649 155 649 173 569 c 128,-1,13
 191 489 191 489 212.5 405.5 c 128,-1,14
 234 322 234 322 259 238.5 c 128,-1,15
 284 155 284 155 312 75 c 1,16,17
 336 136 336 136 360.5 208.5 c 128,-1,18
 385 281 385 281 407.5 354.5 c 128,-1,19
 430 428 430 428 448.5 498 c 128,-1,20
 467 568 467 568 479 624 c 1,21,22
 510 641 510 641 553 641 c 1,23,24
 586 495 586 495 632 350 c 128,-1,25
 678 205 678 205 733 62 c 1,26,27
 759 137 759 137 781 219.5 c 128,-1,28
 803 302 803 302 821.5 386 c 128,-1,29
 840 470 840 470 854 553 c 128,-1,30
 868 636 868 636 878 711 c 1,31,32
 900 721 900 721 928 721 c 0,33,34
 945 721 945 721 953 719 c 1,35,36
 941 647 941 647 920.5 558.5 c 128,-1,37
 900 470 900 470 874.5 376 c 128,-1,38
 849 282 849 282 818.5 188.5 c 128,-1,39
 788 95 788 95 756 12 c 1,40,41
 745 4 745 4 725.5 -1.5 c 128,-1,42
 706 -7 706 -7 683 -7 c 1,43,44
 657 53 657 53 631.5 121.5 c 128,-1,45
 606 190 606 190 582.5 260 c 128,-1,46
 559 330 559 330 539 398 c 128,-1,47
 519 466 519 466 505 525 c 1,48,49
 490 466 490 466 470.5 399.5 c 128,-1,50
 451 333 451 333 428.5 266 c 128,-1,51
 406 199 406 199 382.5 134 c 128,-1,52
 359 69 359 69 335 13 c 1,0,1
EndSplineSet
EndChar

StartChar: X
Encoding: 88 88 58
Width: 679
GlyphClass: 2
Flags: W
LayerCount: 2
Fore
SplineSet
60 697 m 1,0,1
 78 709 78 709 100.5 715 c 128,-1,2
 123 721 123 721 145 721 c 1,3,-1
 353 404 l 1,4,5
 406 473 406 473 451 551.5 c 128,-1,6
 496 630 496 630 534 709 c 1,7,8
 548 716 548 716 564 718.5 c 128,-1,9
 580 721 580 721 595 721 c 0,10,11
 611 721 611 721 619 719 c 1,12,13
 580 638 580 638 516.5 551 c 128,-1,14
 453 464 453 464 384 376 c 1,15,-1
 643 11 l 1,16,17
 625 0 625 0 600.5 -3.5 c 128,-1,18
 576 -7 576 -7 552 -7 c 1,19,-1
 329 332 l 1,20,21
 300 288 300 288 275 247.5 c 128,-1,22
 250 207 250 207 227.5 167.5 c 128,-1,23
 205 128 205 128 183.5 88 c 128,-1,24
 162 48 162 48 139 6 c 1,25,26
 112 -9 112 -9 62 -9 c 0,27,28
 47 -9 47 -9 37 -7 c 1,29,30
 97 85 97 85 159 173.5 c 128,-1,31
 221 262 221 262 298 358 c 1,32,-1
 60 697 l 1,33,-1
 60 697 l 1,0,1
EndSplineSet
EndChar

StartChar: Y
Encoding: 89 89 59
Width: 669
GlyphClass: 2
Flags: W
LayerCount: 2
Fore
SplineSet
132 721 m 1,0,1
 174 628 174 628 233 523.5 c 128,-1,2
 292 419 292 419 358 322 c 1,3,4
 418 412 418 412 469 509 c 128,-1,5
 520 606 520 606 558 710 c 1,6,7
 572 717 572 717 586 719.5 c 128,-1,8
 600 722 600 722 617 722 c 0,9,10
 630 722 630 722 638 720 c 1,11,12
 621 677 621 677 592 622.5 c 128,-1,13
 563 568 563 568 528.5 510 c 128,-1,14
 494 452 494 452 456.5 396 c 128,-1,15
 419 340 419 340 385 295 c 1,16,-1
 385 9 l 1,17,18
 369 0 369 0 347.5 -3.5 c 128,-1,19
 326 -7 326 -7 303 -7 c 1,20,-1
 303 273 l 1,21,22
 229 377 229 377 166 482 c 128,-1,23
 103 587 103 587 51 698 c 1,24,25
 65 708 65 708 86 714.5 c 128,-1,26
 107 721 107 721 132 721 c 1,0,1
EndSplineSet
EndChar

StartChar: Z
Encoding: 90 90 60
Width: 639
GlyphClass: 2
Flags: W
LayerCount: 2
Fore
SplineSet
146 37 m 1,0,1
 252 41 252 41 359.5 45.5 c 128,-1,2
 467 50 467 50 595 57 c 1,3,4
 593 33 593 33 582.5 16 c 128,-1,5
 572 -1 572 -1 560 -7 c 1,6,-1
 59 -7 l 2,7,8
 53 -5 53 -5 47 2.5 c 128,-1,9
 41 10 41 10 39 15 c 1,10,-1
 489 672 l 1,11,12
 381 667 381 667 278 663 c 128,-1,13
 175 659 175 659 87 657 c 1,14,15
 90 678 90 678 99 695 c 128,-1,16
 108 712 108 712 118 719 c 1,17,-1
 584 719 l 2,18,19
 588 717 588 717 592.5 711.5 c 128,-1,20
 597 706 597 706 599 700 c 1,21,-1
 146 37 l 1,0,1
EndSplineSet
EndChar

StartChar: bracketleft
Encoding: 91 91 61
Width: 340
GlyphClass: 2
Flags: W
LayerCount: 2
Fore
SplineSet
131 -161 m 1,0,1
 117 -154 117 -154 111 -141 c 1,2,-1
 111 788 l 1,3,4
 119 799 119 799 139.5 809.5 c 128,-1,5
 160 820 160 820 192 820 c 2,6,-1
 320 820 l 1,7,8
 320 801 320 801 312 786.5 c 128,-1,9
 304 772 304 772 290 772 c 2,10,-1
 183 772 l 1,11,-1
 183 -114 l 1,12,-1
 320 -114 l 1,13,14
 320 -136 320 -136 311.5 -148.5 c 128,-1,15
 303 -161 303 -161 290 -161 c 2,16,-1
 131 -161 l 1,0,1
EndSplineSet
EndChar

StartChar: backslash
Encoding: 92 92 62
Width: 387
GlyphClass: 2
Flags: W
LayerCount: 2
Fore
SplineSet
2 809 m 1,0,1
 15 817 15 817 30.5 820 c 128,-1,2
 46 823 46 823 58 823 c 1,3,-1
 385 -79 l 1,4,5
 376 -85 376 -85 359 -88 c 128,-1,6
 342 -91 342 -91 328 -91 c 1,7,-1
 2 809 l 1,0,1
EndSplineSet
EndChar

StartChar: bracketright
Encoding: 93 93 63
Width: 340
GlyphClass: 2
Flags: W
LayerCount: 2
Fore
SplineSet
209 820 m 1,0,1
 224 811 224 811 229 799 c 1,2,-1
 229 -129 l 1,3,4
 221 -140 221 -140 200.5 -150.5 c 128,-1,5
 180 -161 180 -161 148 -161 c 2,6,-1
 20 -161 l 1,7,8
 20 -141 20 -141 28 -127.5 c 128,-1,9
 36 -114 36 -114 50 -114 c 2,10,-1
 157 -114 l 1,11,-1
 157 772 l 1,12,-1
 20 772 l 1,13,14
 20 795 20 795 28.5 807.5 c 128,-1,15
 37 820 37 820 50 820 c 2,16,-1
 209 820 l 1,0,1
EndSplineSet
EndChar

StartChar: asciicircum
Encoding: 94 94 64
Width: 546
GlyphClass: 2
Flags: W
LayerCount: 2
Fore
SplineSet
421 393 m 1,0,1
 404 431 404 431 385.5 473 c 128,-1,2
 367 515 367 515 347.5 557 c 128,-1,3
 328 599 328 599 307.5 639.5 c 128,-1,4
 287 680 287 680 266 715 c 1,5,6
 244 679 244 679 224.5 638 c 128,-1,7
 205 597 205 597 187 555.5 c 128,-1,8
 169 514 169 514 154 473.5 c 128,-1,9
 139 433 139 433 126 398 c 1,10,11
 117 393 117 393 104.5 391 c 128,-1,12
 92 389 92 389 80 389 c 0,13,14
 62 389 62 389 52 392 c 1,15,16
 69 428 69 428 92 475.5 c 128,-1,17
 115 523 115 523 141.5 573 c 128,-1,18
 168 623 168 623 195.5 671 c 128,-1,19
 223 719 223 719 249 758 c 1,20,21
 260 765 260 765 276 769 c 128,-1,22
 292 773 292 773 306 773 c 1,23,24
 330 741 330 741 356 695 c 128,-1,25
 382 649 382 649 407 599.5 c 128,-1,26
 432 550 432 550 454.5 501 c 128,-1,27
 477 452 477 452 494 415 c 1,28,29
 483 405 483 405 462 399 c 128,-1,30
 441 393 441 393 421 393 c 1,0,1
EndSplineSet
EndChar

StartChar: underscore
Encoding: 95 95 65
Width: 472
GlyphClass: 2
Flags: W
LayerCount: 2
Fore
SplineSet
462 -49 m 1,0,1
 460 -69 460 -69 450.5 -84.5 c 128,-1,2
 441 -100 441 -100 427 -100 c 2,3,-1
 10 -100 l 1,4,5
 12 -78 12 -78 22 -63.5 c 128,-1,6
 32 -49 32 -49 45 -49 c 2,7,-1
 462 -49 l 1,0,1
EndSplineSet
EndChar

StartChar: grave
Encoding: 96 96 66
Width: 346
GlyphClass: 2
Flags: W
LayerCount: 2
Fore
SplineSet
248 602 m 0,0,1
 228 611 228 611 202 630 c 128,-1,2
 176 649 176 649 150.5 672.5 c 128,-1,3
 125 696 125 696 102 721 c 128,-1,4
 79 746 79 746 64 768 c 1,5,6
 86 782 86 782 125 782 c 0,7,8
 136 782 136 782 142 780 c 1,9,10
 168 738 168 738 205 693.5 c 128,-1,11
 242 649 242 649 280 612 c 1,12,13
 276 607 276 607 266.5 604.5 c 128,-1,14
 257 602 257 602 248 602 c 0,0,1
EndSplineSet
EndChar

StartChar: a
Encoding: 97 97 67
Width: 568
GlyphClass: 2
Flags: W
LayerCount: 2
Fore
SplineSet
533 37 m 1,0,1
 530 32 530 32 523.5 25 c 128,-1,2
 517 18 517 18 509 11.5 c 128,-1,3
 501 5 501 5 491.5 0 c 128,-1,4
 482 -5 482 -5 474 -7 c 0,5,6
 442 -5 442 -5 420 17.5 c 128,-1,7
 398 40 398 40 396 77 c 1,8,9
 388 62 388 62 372 45.5 c 128,-1,10
 356 29 356 29 333.5 15.5 c 128,-1,11
 311 2 311 2 282 -6.5 c 128,-1,12
 253 -15 253 -15 219 -15 c 0,13,14
 148 -15 148 -15 106.5 21 c 128,-1,15
 65 57 65 57 65 117 c 0,16,17
 65 179 65 179 112 221 c 128,-1,18
 159 263 159 263 273 283 c 2,19,-1
 392 304 l 1,20,-1
 392 343 l 2,21,22
 392 415 392 415 358.5 453 c 128,-1,23
 325 491 325 491 259 491 c 0,24,25
 218 491 218 491 189.5 470.5 c 128,-1,26
 161 450 161 450 161 410 c 0,27,28
 161 392 161 392 173 378 c 1,29,30
 164 366 164 366 144 356 c 128,-1,31
 124 346 124 346 103 344 c 1,32,33
 98 349 98 349 91 359 c 128,-1,34
 84 369 84 369 84 386 c 0,35,36
 84 417 84 417 102 444 c 128,-1,37
 120 471 120 471 149 490.5 c 128,-1,38
 178 510 178 510 216 521 c 128,-1,39
 254 532 254 532 295 532 c 0,40,41
 391 532 391 532 431 488.5 c 128,-1,42
 471 445 471 445 471 367 c 2,43,-1
 471 116 l 2,44,45
 471 75 471 75 489 59.5 c 128,-1,46
 507 44 507 44 531 41 c 1,47,-1
 533 37 l 1,0,1
251 38 m 0,48,49
 303 38 303 38 339.5 62 c 128,-1,50
 376 86 376 86 392 124 c 1,51,-1
 392 268 l 1,52,-1
 258 244 l 2,53,54
 204 234 204 234 175.5 210 c 128,-1,55
 147 186 147 186 147 141 c 0,56,57
 147 91 147 91 177.5 64.5 c 128,-1,58
 208 38 208 38 251 38 c 0,48,49
EndSplineSet
Substitution2: "Single Substitution lookup 90 subtable" ordfeminine
Substitution2: "'aalt' Access All Alternates lookup 0 subtable" ordfeminine
EndChar

StartChar: b
Encoding: 98 98 68
Width: 680
GlyphClass: 2
Flags: W
AnchorPoint: "Anchor-4" 700 0 basechar 0
LayerCount: 2
Fore
SplineSet
558 646 m 1,0,-1
 558 -7 l 1,1,2
 538 -7 538 -7 519 0 c 128,-1,3
 500 7 500 7 486 24 c 1,4,-1
 486 136 l 1,5,6
 458 111 458 111 421 95.5 c 128,-1,7
 384 80 384 80 334 80 c 0,8,9
 292 80 292 80 243 103 c 128,-1,10
 194 126 194 126 152 163 c 128,-1,11
 110 200 110 200 82 246 c 128,-1,12
 54 292 54 292 54 338 c 0,13,14
 54 386 54 386 71.5 423 c 128,-1,15
 89 460 89 460 119 485.5 c 128,-1,16
 149 511 149 511 189.5 524 c 128,-1,17
 230 537 230 537 276 537 c 0,18,19
 310 537 310 537 340 529 c 128,-1,20
 370 521 370 521 396 507.5 c 128,-1,21
 422 494 422 494 444.5 476.5 c 128,-1,22
 467 459 467 459 486 440 c 1,23,-1
 486 646 l 1,24,-1
 0 646 l 2,25,26
 -9 646 -9 646 -16 652 c 128,-1,27
 -23 658 -23 658 -28 667 c 128,-1,28
 -33 676 -33 676 -36 685.5 c 128,-1,29
 -39 695 -39 695 -39 702 c 1,30,-1
 670 702 l 2,31,32
 679 702 679 702 686 696 c 128,-1,33
 693 690 693 690 698 681 c 128,-1,34
 703 672 703 672 706 662.5 c 128,-1,35
 709 653 709 653 709 646 c 1,36,-1
 558 646 l 1,0,-1
277 137 m 0,37,38
 315 137 315 137 351 149.5 c 128,-1,39
 387 162 387 162 417 185 c 1,40,-1
 184 425 l 1,41,42
 157 401 157 401 142 366.5 c 128,-1,43
 127 332 127 332 127 287 c 0,44,45
 127 251 127 251 138.5 223 c 128,-1,46
 150 195 150 195 170 176 c 128,-1,47
 190 157 190 157 217.5 147 c 128,-1,48
 245 137 245 137 277 137 c 0,37,38
486 416 m 1,49,50
 451 443 451 443 413.5 458.5 c 128,-1,51
 376 474 376 474 327 474 c 0,52,53
 255 474 255 474 204 441 c 1,54,-1
 435 201 l 1,55,56
 451 216 451 216 464 234 c 128,-1,57
 477 252 477 252 486 272 c 1,58,-1
 486 416 l 1,49,50
EndSplineSet
EndChar

StartChar: c
Encoding: 99 99 69
Width: 705
GlyphClass: 2
Flags: W
LayerCount: 2
Fore
SplineSet
534.821289062 309.630859375 m 2,0,1
 534.821289062 367.144523774 534.821289062 367.144523774 508.086914062 388.764648438 c 4,2,3
 481 411 481 411 479 411 c 128,-1,4
 477 411 477 411 459.338867188 406.229492188 c 4,5,6
 442 401 442 401 426.115234375 393.272460938 c 4,7,8
 400 379 400 379 397.208984375 374.681640625 c 4,9,10
 390 364 390 364 378.267578125 352.430664062 c 5,11,-1
 378.267578125 176.377929688 l 1,12,13
 368 172 368 172 350.390625 169.899414062 c 0,14,15
 333 168 333 168 317.9296875 167.927734375 c 1,16,-1
 317.9296875 597.1875 l 1,17,18
 331 602 331 602 346.571289062 604.509765625 c 128,-1,19
 362 607 362 607 378.267578125 606.763671875 c 1,20,-1
 378.267578125 414.103515625 l 1,21,22
 387 426 387 426 398.736328125 433.8203125 c 0,23,24
 414 444 414 444 432.60546875 452.411132812 c 0,25,26
 464 466 464 466 474.233398438 466.211914062 c 0,27,28
 520 467 520 467 522.732421875 471.563476562 c 0,29,30
 523 472 523 472 558.87890625 443.9609375 c 0,31,32
 595.159179688 415.876780771 595.159179688 415.876780771 595.159179688 365.092773438 c 2,33,-1
 595.159179688 176.377929688 l 1,34,35
 584 172 584 172 567.280273438 169.899414062 c 0,36,37
 550 168 550 168 534.821289062 167.927734375 c 1,38,-1
 534.821289062 309.630859375 l 2,0,1
647 582 m 1,39,40
 639 567 639 567 620 554 c 128,-1,41
 601 541 601 541 574 537 c 1,42,43
 569 561 569 561 557.5 586.5 c 128,-1,44
 546 612 546 612 524.5 633 c 128,-1,45
 503 654 503 654 470.5 668 c 128,-1,46
 438 682 438 682 391 682 c 0,47,48
 349 682 349 682 307 665.5 c 128,-1,49
 265 649 265 649 231 613 c 128,-1,50
 197 577 197 577 175.5 519.5 c 128,-1,51
 154 462 154 462 154 380 c 0,52,53
 154 299 154 299 176 236 c 128,-1,54
 198 173 198 173 236 130.5 c 128,-1,55
 274 88 274 88 324.5 66 c 128,-1,56
 375 44 375 44 433 44 c 0,57,58
 500 44 500 44 546.5 66.5 c 128,-1,59
 593 89 593 89 625 126 c 1,60,61
 631 124 631 124 639 118 c 128,-1,62
 647 112 647 112 649 106 c 1,63,64
 641 92 641 92 623 71 c 128,-1,65
 605 50 605 50 574.5 30.5 c 128,-1,66
 544 11 544 11 498.5 -3.5 c 128,-1,67
 453 -18 453 -18 390 -18 c 0,68,69
 328 -18 328 -18 270 4.5 c 128,-1,70
 212 27 212 27 167 72.5 c 128,-1,71
 122 118 122 118 95 186.5 c 128,-1,72
 68 255 68 255 68 346 c 0,73,74
 68 426 68 426 97 496.5 c 128,-1,75
 126 567 126 567 175.5 619 c 128,-1,76
 225 671 225 671 290.5 701 c 128,-1,77
 356 731 356 731 430 731 c 0,78,79
 490 731 490 731 531.5 714 c 128,-1,80
 573 697 573 697 598.5 673 c 128,-1,81
 624 649 624 649 635.5 623.5 c 128,-1,82
 647 598 647 598 647 582 c 1,39,40
EndSplineSet
EndChar

StartChar: d
Encoding: 100 100 70
Width: 661
GlyphClass: 2
Flags: W
AnchorPoint: "Anchor-7" 554 -10 basechar 0
AnchorPoint: "Anchor-6" 694 -10 basechar 0
AnchorPoint: "Anchor-4" 580 0 basechar 0
AnchorPoint: "Anchor-3" 524 0 basechar 0
AnchorPoint: "Anchor-2" 540 0 basechar 0
LayerCount: 2
Fore
SplineSet
466 646 m 2,0,1
 457 646 457 646 450 652 c 128,-1,2
 443 658 443 658 438 667 c 128,-1,3
 433 676 433 676 430 685.5 c 128,-1,4
 427 695 427 695 427 702 c 1,5,-1
 661 702 l 2,6,7
 670 702 670 702 677 696 c 128,-1,8
 684 690 684 690 689 681 c 128,-1,9
 694 672 694 672 697 662.5 c 128,-1,10
 700 653 700 653 700 646 c 1,11,-1
 466 646 l 2,0,1
313 61 m 0,12,13
 356 61 356 61 396.5 75 c 128,-1,14
 437 89 437 89 469 115.5 c 128,-1,15
 501 142 501 142 520.5 180 c 128,-1,16
 540 218 540 218 540 266 c 0,17,18
 540 323 540 323 513.5 359 c 128,-1,19
 487 395 487 395 443 395 c 0,20,21
 420 395 420 395 394 385 c 2,22,-1
 299 348 l 2,23,24
 289 344 289 344 278.5 341 c 128,-1,25
 268 338 268 338 255 338 c 0,26,27
 237 338 237 338 213.5 352 c 128,-1,28
 190 366 190 366 169 386.5 c 128,-1,29
 148 407 148 407 133.5 429 c 128,-1,30
 119 451 119 451 119 466 c 0,31,32
 119 486 119 486 134 500 c 128,-1,33
 149 514 149 514 175 525 c 2,34,-1
 320 586 l 2,35,36
 336 593 336 593 345.5 601 c 128,-1,37
 355 609 355 609 355 622 c 0,38,39
 355 632 355 632 349 639 c 128,-1,40
 343 646 343 646 334 646 c 2,41,-1
 0 646 l 2,42,43
 -4 646 -4 646 -10.5 650.5 c 128,-1,44
 -17 655 -17 655 -23.5 662.5 c 128,-1,45
 -30 670 -30 670 -34.5 680 c 128,-1,46
 -39 690 -39 690 -39 702 c 1,47,-1
 297 702 l 2,48,49
 309 702 309 702 330 689.5 c 128,-1,50
 351 677 351 677 371.5 658.5 c 128,-1,51
 392 640 392 640 407 619 c 128,-1,52
 422 598 422 598 422 582 c 0,53,54
 422 563 422 563 405.5 550 c 128,-1,55
 389 537 389 537 366 527 c 2,56,-1
 221 466 l 2,57,58
 204 459 204 459 193 449.5 c 128,-1,59
 182 440 182 440 182 426 c 0,60,61
 182 414 182 414 190 405 c 128,-1,62
 198 396 198 396 212 396 c 0,63,64
 221 396 221 396 231.5 399 c 128,-1,65
 242 402 242 402 251 406 c 2,66,-1
 346 444 l 2,67,68
 357 449 357 449 371 452 c 128,-1,69
 385 455 385 455 397 455 c 0,70,71
 415 455 415 455 450.5 436.5 c 128,-1,72
 486 418 486 418 522 386 c 128,-1,73
 558 354 558 354 584.5 311 c 128,-1,74
 611 268 611 268 611 220 c 0,75,76
 611 178 611 178 593.5 139 c 128,-1,77
 576 100 576 100 544 70 c 128,-1,78
 512 40 512 40 465 22 c 128,-1,79
 418 4 418 4 360 4 c 0,80,81
 308 4 308 4 257.5 23 c 128,-1,82
 207 42 207 42 162.5 76 c 128,-1,83
 118 110 118 110 82.5 157 c 128,-1,84
 47 204 47 204 24 260 c 1,85,86
 30 266 30 266 42 268 c 1,87,88
 64 221 64 221 94 183 c 128,-1,89
 124 145 124 145 159.5 118 c 128,-1,90
 195 91 195 91 234 76 c 128,-1,91
 273 61 273 61 313 61 c 0,12,13
EndSplineSet
EndChar

StartChar: e
Encoding: 101 101 71
Width: 556
GlyphClass: 2
Flags: W
LayerCount: 2
Fore
SplineSet
136 258 m 1,0,1
 139 204 139 204 155.5 163.5 c 128,-1,2
 172 123 172 123 198 96 c 128,-1,3
 224 69 224 69 258.5 55.5 c 128,-1,4
 293 42 293 42 332 42 c 0,5,6
 381 42 381 42 416.5 55 c 128,-1,7
 452 68 452 68 481 96 c 1,8,9
 495 93 495 93 500 77 c 1,10,11
 493 66 493 66 477.5 50 c 128,-1,12
 462 34 462 34 436.5 19 c 128,-1,13
 411 4 411 4 375.5 -6.5 c 128,-1,14
 340 -17 340 -17 293 -17 c 0,15,16
 243 -17 243 -17 200 1 c 128,-1,17
 157 19 157 19 125 53 c 128,-1,18
 93 87 93 87 74.5 137 c 128,-1,19
 56 187 56 187 56 250 c 0,20,21
 56 308 56 308 76 359.5 c 128,-1,22
 96 411 96 411 130.5 449 c 128,-1,23
 165 487 165 487 211.5 509.5 c 128,-1,24
 258 532 258 532 311 532 c 0,25,26
 368 532 368 532 405 513 c 128,-1,27
 442 494 442 494 463.5 464 c 128,-1,28
 485 434 485 434 493.5 398 c 128,-1,29
 502 362 502 362 502 328 c 1,30,31
 494 316 494 316 480.5 307 c 128,-1,32
 467 298 467 298 451 293 c 2,33,-1
 136 258 l 1,0,1
285 487 m 0,34,35
 254 487 254 487 227 476 c 128,-1,36
 200 465 200 465 180 442 c 128,-1,37
 160 419 160 419 147.5 383 c 128,-1,38
 135 347 135 347 134 296 c 1,39,-1
 416 325 l 1,40,41
 417 330 417 330 417 335 c 128,-1,42
 417 340 417 340 417 344 c 0,43,44
 417 375 417 375 409 401 c 128,-1,45
 401 427 401 427 384.5 446 c 128,-1,46
 368 465 368 465 343.5 476 c 128,-1,47
 319 487 319 487 285 487 c 0,34,35
EndSplineSet
EndChar

StartChar: f
Encoding: 102 102 72
Width: 965
GlyphClass: 2
Flags: W
AnchorPoint: "Anchor-7" 672 0 basechar 0
AnchorPoint: "Anchor-6" 812 0 basechar 0
AnchorPoint: "Anchor-4" 650 0 basechar 0
AnchorPoint: "Anchor-3" 643 0 basechar 0
AnchorPoint: "Anchor-2" 639 0 basechar 0
LayerCount: 2
Fore
SplineSet
667 524 m 0,0,1
 719 524 719 524 765.5 500.5 c 128,-1,2
 812 477 812 477 847 440.5 c 128,-1,3
 882 404 882 404 902.5 360 c 128,-1,4
 923 316 923 316 923 276 c 0,5,6
 923 237 923 237 907 203.5 c 128,-1,7
 891 170 891 170 864 145.5 c 128,-1,8
 837 121 837 121 802.5 107 c 128,-1,9
 768 93 768 93 731 93 c 0,10,11
 716 93 716 93 696.5 96 c 128,-1,12
 677 99 677 99 657 106.5 c 128,-1,13
 637 114 637 114 617.5 126 c 128,-1,14
 598 138 598 138 585 156 c 0,15,16
 585 159 585 159 586.5 162 c 128,-1,17
 588 165 588 165 592 166 c 0,18,19
 610 157 610 157 626.5 153.5 c 128,-1,20
 643 150 643 150 666 150 c 0,21,22
 703 150 703 150 737 163.5 c 128,-1,23
 771 177 771 177 797 202.5 c 128,-1,24
 823 228 823 228 838.5 264 c 128,-1,25
 854 300 854 300 854 345 c 0,26,27
 854 403 854 403 820.5 434 c 128,-1,28
 787 465 787 465 726 465 c 0,29,30
 693 465 693 465 662 455.5 c 128,-1,31
 631 446 631 446 604 428.5 c 128,-1,32
 577 411 577 411 555.5 386.5 c 128,-1,33
 534 362 534 362 521 332 c 1,34,-1
 521 -7 l 1,35,36
 501 -7 501 -7 482 0 c 128,-1,37
 463 7 463 7 449 24 c 1,38,-1
 449 197 l 1,39,40
 429 183 429 183 403 174 c 128,-1,41
 377 165 377 165 342 165 c 0,42,43
 298 165 298 165 249 188.5 c 128,-1,44
 200 212 200 212 159 251 c 128,-1,45
 118 290 118 290 91 340.5 c 128,-1,46
 64 391 64 391 64 444 c 0,47,48
 64 513 64 513 87.5 563.5 c 128,-1,49
 111 614 111 614 139 646 c 1,50,-1
 0 646 l 2,51,52
 -9 646 -9 646 -16 652 c 128,-1,53
 -23 658 -23 658 -28 667 c 128,-1,54
 -33 676 -33 676 -36 685.5 c 128,-1,55
 -39 695 -39 695 -39 702 c 1,56,-1
 392 702 l 2,57,58
 407 702 407 702 429 689 c 128,-1,59
 451 676 451 676 471.5 657.5 c 128,-1,60
 492 639 492 639 506.5 619 c 128,-1,61
 521 599 521 599 521 585 c 2,62,-1
 521 462 l 1,63,64
 548 489 548 489 585 506.5 c 128,-1,65
 622 524 622 524 667 524 c 0,0,1
287 222 m 0,66,67
 318 222 318 222 345 231 c 128,-1,68
 372 240 372 240 393 254 c 128,-1,69
 414 268 414 268 428 285.5 c 128,-1,70
 442 303 442 303 449 320 c 1,71,-1
 449 623 l 2,72,73
 449 638 449 638 443.5 642 c 128,-1,74
 438 646 438 646 424 646 c 2,75,-1
 243 646 l 1,76,77
 200 603 200 603 168 539 c 128,-1,78
 136 475 136 475 136 392 c 0,79,80
 136 347 136 347 148 315 c 128,-1,81
 160 283 160 283 181 262 c 128,-1,82
 202 241 202 241 229.5 231.5 c 128,-1,83
 257 222 257 222 287 222 c 0,66,67
965 702 m 2,84,85
 974 702 974 702 981 696 c 128,-1,86
 988 690 988 690 993 681 c 128,-1,87
 998 672 998 672 1001 662.5 c 128,-1,88
 1004 653 1004 653 1004 646 c 1,89,-1
 565 646 l 2,90,91
 556 646 556 646 549 652 c 128,-1,92
 542 658 542 658 537 667 c 128,-1,93
 532 676 532 676 529 685.5 c 128,-1,94
 526 695 526 695 526 702 c 1,95,-1
 965 702 l 2,84,85
EndSplineSet
EndChar

StartChar: g
Encoding: 103 103 73
Width: 571
GlyphClass: 2
Flags: W
LayerCount: 2
Fore
SplineSet
259 386 m 4,0,1
 244 386 244 386 230.5 387.5 c 132,-1,2
 217 389 217 389 203 391 c 5,3,4
 177 381 177 381 161 365.5 c 132,-1,5
 145 350 145 350 145 331 c 4,6,7
 145 302 145 302 175 291 c 132,-1,8
 205 280 205 280 263 277 c 6,9,-1
 368 272 l 6,10,11
 415 270 415 270 447.5 257 c 132,-1,12
 480 244 480 244 500 224.5 c 132,-1,13
 520 205 520 205 529 181 c 132,-1,14
 538 157 538 157 538 133 c 4,15,16
 538 92 538 92 517 58 c 132,-1,17
 496 24 496 24 458.5 0 c 132,-1,18
 421 -24 421 -24 369 -37.5 c 132,-1,19
 317 -51 317 -51 255 -51 c 4,20,21
 208 -51 208 -51 169 -43 c 132,-1,22
 130 -35 130 -35 101.5 -18.5 c 132,-1,23
 73 -2 73 -2 57 21.5 c 132,-1,24
 41 45 41 45 41 77 c 4,25,26
 41 102 41 102 50.5 121 c 132,-1,27
 60 140 60 140 75.5 154 c 132,-1,28
 91 168 91 168 110 177.5 c 132,-1,29
 129 187 129 187 148 192 c 4,30,31
 153 190 153 190 156 184 c 132,-1,32
 159 178 159 178 160 173 c 5,33,34
 142 163 142 163 129 146 c 132,-1,35
 116 129 116 129 116 98 c 4,36,37
 116 72 116 72 129.5 52.5 c 132,-1,38
 143 33 143 33 167 20 c 132,-1,39
 191 7 191 7 224.5 1 c 132,-1,40
 258 -5 258 -5 298 -5 c 4,41,42
 383 -5 383 -5 425.5 25 c 132,-1,43
 468 55 468 55 468 100 c 260,44,45
 468 145 468 145 436 173 c 132,-1,46
 404 201 404 201 325 206 c 6,47,-1
 221 212 l 6,48,49
 146 217 146 217 111 237.5 c 132,-1,50
 76 258 76 258 76 300 c 4,51,52
 76 318 76 318 83.5 334 c 132,-1,53
 91 350 91 350 103.5 363 c 132,-1,54
 116 376 116 376 131.5 386.5 c 132,-1,55
 147 397 147 397 162 404 c 5,56,57
 118 423 118 423 93 460.5 c 132,-1,58
 68 498 68 498 68 552 c 4,59,60
 68 593 68 593 85.5 629 c 132,-1,61
 103 665 103 665 134 691.5 c 132,-1,62
 165 718 165 718 206.5 733.5 c 132,-1,63
 248 749 248 749 296 749 c 4,64,65
 313 749 313 749 328 747 c 132,-1,66
 343 745 343 745 357 742 c 4,67,68
 362 741 362 741 367.5 741 c 132,-1,69
 373 741 373 741 381 741 c 4,70,71
 425 741 425 741 441.5 755.5 c 132,-1,72
 458 770 458 770 458 792 c 4,73,74
 458 805 458 805 453 814.5 c 132,-1,75
 448 824 448 824 440 831 c 5,76,77
 471 860 471 860 514 860 c 5,78,79
 523 852 523 852 529 838.5 c 132,-1,80
 535 825 535 825 535 808 c 4,81,82
 535 766 535 766 501.5 743.5 c 132,-1,83
 468 721 468 721 414 719 c 5,84,85
 452 694 452 694 468.5 656 c 132,-1,86
 485 618 485 618 485 580 c 4,87,88
 485 536 485 536 467 500.5 c 132,-1,89
 449 465 449 465 418.5 439.5 c 132,-1,90
 388 414 388 414 346.5 400 c 132,-1,91
 305 386 305 386 259 386 c 4,0,1
271 709 m 4,92,93
 246 709 246 709 224.5 700.5 c 132,-1,94
 203 692 203 692 186.5 675.5 c 132,-1,95
 170 659 170 659 160.5 635 c 132,-1,96
 151 611 151 611 151 579 c 4,97,98
 151 543 151 543 161 514.5 c 132,-1,99
 171 486 171 486 188.5 466.5 c 132,-1,100
 206 447 206 447 230 436.5 c 132,-1,101
 254 426 254 426 281 426 c 4,102,103
 306 426 306 426 328 433 c 132,-1,104
 350 440 350 440 366.5 455 c 132,-1,105
 383 470 383 470 392.5 494 c 132,-1,106
 402 518 402 518 402 552 c 4,107,108
 402 583 402 583 393.5 611 c 132,-1,109
 385 639 385 639 368.5 661 c 132,-1,110
 352 683 352 683 327.5 696 c 132,-1,111
 303 709 303 709 271 709 c 4,92,93
EndSplineSet
EndChar

StartChar: h
Encoding: 104 104 74
Width: 637
GlyphClass: 2
Flags: W
LayerCount: 2
Fore
SplineSet
467 312 m 2,0,1
 467 397 467 397 432 436.5 c 128,-1,2
 397 476 397 476 333 476 c 0,3,4
 310 476 310 476 287 467.5 c 128,-1,5
 264 459 264 459 243.5 444.5 c 128,-1,6
 223 430 223 430 205 411.5 c 128,-1,7
 187 393 187 393 173 372 c 1,8,-1
 173 8 l 1,9,10
 159 0 159 0 136.5 -3.5 c 128,-1,11
 114 -7 114 -7 94 -7 c 1,12,-1
 94 755 l 1,13,14
 111 764 111 764 131.5 768 c 128,-1,15
 152 772 152 772 173 772 c 1,16,-1
 173 430 l 1,17,18
 187 447 187 447 207 465 c 128,-1,19
 227 483 227 483 252 498 c 128,-1,20
 277 513 277 513 306.5 522.5 c 128,-1,21
 336 532 336 532 370 532 c 0,22,23
 451 532 451 532 498.5 483 c 128,-1,24
 546 434 546 434 546 343 c 2,25,-1
 546 8 l 1,26,27
 532 0 532 0 509.5 -3.5 c 128,-1,28
 487 -7 487 -7 467 -7 c 1,29,-1
 467 312 l 2,0,1
EndSplineSet
EndChar

StartChar: i
Encoding: 105 105 75
Width: 268
GlyphClass: 2
Flags: W
LayerCount: 2
Fore
SplineSet
199 679 m 1,0,1
 190 663 190 663 171 645.5 c 128,-1,2
 152 628 152 628 137 621 c 1,3,4
 122 628 122 628 103 645.5 c 128,-1,5
 84 663 84 663 74 679 c 1,6,7
 84 696 84 696 103 714 c 128,-1,8
 122 732 122 732 137 740 c 1,9,10
 152 732 152 732 171.5 714 c 128,-1,11
 191 696 191 696 199 679 c 1,0,1
95 505 m 1,12,13
 112 514 112 514 132.5 518 c 128,-1,14
 153 522 153 522 174 522 c 1,15,-1
 174 8 l 1,16,17
 160 0 160 0 137.5 -3.5 c 128,-1,18
 115 -7 115 -7 95 -7 c 1,19,-1
 95 505 l 1,12,13
EndSplineSet
Substitution2: "Single Substitution lookup 92 subtable" i.loclTRK
Substitution2: "'aalt' Access All Alternates lookup 0 subtable" i.loclTRK
EndChar

StartChar: j
Encoding: 106 106 76
Width: 271
GlyphClass: 2
Flags: W
LayerCount: 2
Fore
SplineSet
-36 -258 m 0,0,1
 -88 -258 -88 -258 -114.5 -237.5 c 128,-1,2
 -141 -217 -141 -217 -149 -196 c 1,3,4
 -144 -181 -144 -181 -128 -166.5 c 128,-1,5
 -112 -152 -112 -152 -93 -147 c 1,6,7
 -84 -168 -84 -168 -62.5 -185.5 c 128,-1,8
 -41 -203 -41 -203 -5 -203 c 0,9,10
 16 -203 16 -203 35 -196 c 128,-1,11
 54 -189 54 -189 68 -173 c 128,-1,12
 82 -157 82 -157 90 -131 c 128,-1,13
 98 -105 98 -105 98 -67 c 2,14,-1
 98 505 l 1,15,16
 115 514 115 514 135.5 518 c 128,-1,17
 156 522 156 522 177 522 c 1,18,-1
 177 -9 l 2,19,20
 177 -68 177 -68 157.5 -114 c 128,-1,21
 138 -160 138 -160 107 -192 c 128,-1,22
 76 -224 76 -224 38 -241 c 128,-1,23
 0 -258 0 -258 -36 -258 c 0,0,1
199 679 m 1,24,25
 190 663 190 663 171 645.5 c 128,-1,26
 152 628 152 628 137 621 c 1,27,28
 122 628 122 628 103 645.5 c 128,-1,29
 84 663 84 663 74 679 c 1,30,31
 84 696 84 696 103 714 c 128,-1,32
 122 732 122 732 137 740 c 1,33,34
 152 732 152 732 171.5 714 c 128,-1,35
 191 696 191 696 199 679 c 1,24,25
EndSplineSet
EndChar

StartChar: k
Encoding: 107 107 77
Width: 939
GlyphClass: 2
Flags: W
AnchorPoint: "Anchor-7" 660 0 basechar 0
AnchorPoint: "Anchor-6" 800 0 basechar 0
AnchorPoint: "Anchor-4" 650 0 basechar 0
AnchorPoint: "Anchor-3" 630 0 basechar 0
AnchorPoint: "Anchor-2" 626 0 basechar 0
LayerCount: 2
Fore
SplineSet
436 158 m 1,0,1
 411 134 411 134 377 119 c 128,-1,2
 343 104 343 104 296 104 c 0,3,4
 258 104 258 104 214 124.5 c 128,-1,5
 170 145 170 145 132 178 c 128,-1,6
 94 211 94 211 69 252 c 128,-1,7
 44 293 44 293 44 334 c 0,8,9
 44 382 44 382 60 418.5 c 128,-1,10
 76 455 76 455 104 480 c 128,-1,11
 132 505 132 505 168.5 518 c 128,-1,12
 205 531 205 531 247 531 c 0,13,14
 307 531 307 531 354 503.5 c 128,-1,15
 401 476 401 476 436 439 c 1,16,-1
 436 623 l 2,17,18
 436 638 436 638 430.5 642 c 128,-1,19
 425 646 425 646 411 646 c 2,20,-1
 0 646 l 2,21,22
 -9 646 -9 646 -16 652 c 128,-1,23
 -23 658 -23 658 -28 667 c 128,-1,24
 -33 676 -33 676 -36 685.5 c 128,-1,25
 -39 695 -39 695 -39 702 c 1,26,-1
 379 702 l 2,27,28
 394 702 394 702 416 689 c 128,-1,29
 438 676 438 676 458.5 657.5 c 128,-1,30
 479 639 479 639 493.5 619 c 128,-1,31
 508 599 508 599 508 585 c 2,32,-1
 508 471 l 1,33,34
 534 497 534 497 570 513.5 c 128,-1,35
 606 530 606 530 650 530 c 0,36,37
 700 530 700 530 745 507 c 128,-1,38
 790 484 790 484 823.5 448 c 128,-1,39
 857 412 857 412 877 368.5 c 128,-1,40
 897 325 897 325 897 285 c 0,41,42
 897 246 897 246 880.5 212.5 c 128,-1,43
 864 179 864 179 837 155 c 128,-1,44
 810 131 810 131 775.5 117.5 c 128,-1,45
 741 104 741 104 704 104 c 0,46,47
 689 104 689 104 669.5 107 c 128,-1,48
 650 110 650 110 630 117.5 c 128,-1,49
 610 125 610 125 591 137 c 128,-1,50
 572 149 572 149 558 167 c 1,51,52
 558 175 558 175 565 177 c 1,53,54
 583 168 583 168 599.5 164.5 c 128,-1,55
 616 161 616 161 639 161 c 0,56,57
 676 161 676 161 710 174.5 c 128,-1,58
 744 188 744 188 770.5 213 c 128,-1,59
 797 238 797 238 812.5 273.5 c 128,-1,60
 828 309 828 309 828 354 c 0,61,62
 828 412 828 412 797 441.5 c 128,-1,63
 766 471 766 471 709 471 c 0,64,65
 646 471 646 471 591.5 437.5 c 128,-1,66
 537 404 537 404 508 347 c 1,67,-1
 508 -7 l 1,68,69
 488 -7 488 -7 469 0 c 128,-1,70
 450 7 450 7 436 24 c 1,71,-1
 436 158 l 1,0,1
239 161 m 0,72,73
 270 161 270 161 299.5 170 c 128,-1,74
 329 179 329 179 355 195 c 128,-1,75
 381 211 381 211 402 233.5 c 128,-1,76
 423 256 423 256 436 284 c 1,77,-1
 436 413 l 1,78,79
 407 439 407 439 373.5 453.5 c 128,-1,80
 340 468 340 468 298 468 c 0,81,82
 260 468 260 468 227 456 c 128,-1,83
 194 444 194 444 169.5 420.5 c 128,-1,84
 145 397 145 397 131 362.5 c 128,-1,85
 117 328 117 328 117 283 c 0,86,87
 117 253 117 253 126.5 230.5 c 128,-1,88
 136 208 136 208 152.5 192.5 c 128,-1,89
 169 177 169 177 191.5 169 c 128,-1,90
 214 161 214 161 239 161 c 0,72,73
939 702 m 2,91,92
 948 702 948 702 955 696 c 128,-1,93
 962 690 962 690 967 681 c 128,-1,94
 972 672 972 672 975 662.5 c 128,-1,95
 978 653 978 653 978 646 c 1,96,-1
 552 646 l 2,97,98
 543 646 543 646 536 652 c 128,-1,99
 529 658 529 658 524 667 c 128,-1,100
 519 676 519 676 516 685.5 c 128,-1,101
 513 695 513 695 513 702 c 1,102,-1
 939 702 l 2,91,92
EndSplineSet
EndChar

StartChar: l
Encoding: 108 108 78
Width: 879
GlyphClass: 2
Flags: W
AnchorPoint: "Anchor-4" 890 0 basechar 0
LayerCount: 2
Fore
SplineSet
757 646 m 1,0,-1
 757 -7 l 1,1,2
 737 -7 737 -7 718 0 c 128,-1,3
 699 7 699 7 685 24 c 1,4,-1
 685 399 l 1,5,-1
 404 194 l 1,6,7
 384 202 384 202 369.5 219.5 c 128,-1,8
 355 237 355 237 350 249 c 1,9,-1
 486 348 l 1,10,11
 464 400 464 400 422 428 c 128,-1,12
 380 456 380 456 328 456 c 0,13,14
 290 456 290 456 255.5 442.5 c 128,-1,15
 221 429 221 429 195 402.5 c 128,-1,16
 169 376 169 376 153 336.5 c 128,-1,17
 137 297 137 297 137 244 c 0,18,19
 137 199 137 199 149 163 c 128,-1,20
 161 127 161 127 184.5 96 c 128,-1,21
 208 65 208 65 243 37.5 c 128,-1,22
 278 10 278 10 323 -17 c 1,23,24
 321 -28 321 -28 312 -34 c 1,25,26
 277 -16 277 -16 234 13.5 c 128,-1,27
 191 43 191 43 153.5 84 c 128,-1,28
 116 125 116 125 90 177.5 c 128,-1,29
 64 230 64 230 64 295 c 0,30,31
 64 349 64 349 81.5 391 c 128,-1,32
 99 433 99 433 129 461.5 c 128,-1,33
 159 490 159 490 197.5 504.5 c 128,-1,34
 236 519 236 519 278 519 c 0,35,36
 364 519 364 519 421 475 c 128,-1,37
 478 431 478 431 508 364 c 1,38,-1
 685 494 l 1,39,-1
 685 646 l 1,40,-1
 0 646 l 2,41,42
 -9 646 -9 646 -16 652 c 128,-1,43
 -23 658 -23 658 -28 667 c 128,-1,44
 -33 676 -33 676 -36 685.5 c 128,-1,45
 -39 695 -39 695 -39 702 c 1,46,-1
 869 702 l 2,47,48
 878 702 878 702 885 696 c 128,-1,49
 892 690 892 690 897 681 c 128,-1,50
 902 672 902 672 905 662.5 c 128,-1,51
 908 653 908 653 908 646 c 1,52,-1
 757 646 l 1,0,-1
EndSplineSet
EndChar

StartChar: m
Encoding: 109 109 79
Width: 837
GlyphClass: 2
Flags: W
AnchorPoint: "Anchor-4" 840 0 basechar 0
LayerCount: 2
Fore
SplineSet
267 90 m 0,0,1
 235 90 235 90 196 108.5 c 128,-1,2
 157 127 157 127 122 157.5 c 128,-1,3
 87 188 87 188 63.5 226.5 c 128,-1,4
 40 265 40 265 40 304 c 256,5,6
 40 343 40 343 55.5 375 c 128,-1,7
 71 407 71 407 99.5 429.5 c 128,-1,8
 128 452 128 452 167 464.5 c 128,-1,9
 206 477 206 477 253 477 c 0,10,11
 301 477 301 477 351 466 c 1,12,-1
 351 646 l 1,13,-1
 0 646 l 2,14,15
 -9 646 -9 646 -16 652 c 128,-1,16
 -23 658 -23 658 -28 667 c 128,-1,17
 -33 676 -33 676 -36 685.5 c 128,-1,18
 -39 695 -39 695 -39 702 c 1,19,-1
 827 702 l 2,20,21
 836 702 836 702 843 696 c 128,-1,22
 850 690 850 690 855 681 c 128,-1,23
 860 672 860 672 863 662.5 c 128,-1,24
 866 653 866 653 866 646 c 1,25,-1
 715 646 l 1,26,-1
 715 -7 l 1,27,28
 695 -7 695 -7 676 0 c 128,-1,29
 657 7 657 7 643 24 c 1,30,-1
 643 159 l 2,31,32
 643 199 643 199 627.5 237 c 128,-1,33
 612 275 612 275 583.5 307.5 c 128,-1,34
 555 340 555 340 514.5 364.5 c 128,-1,35
 474 389 474 389 423 403 c 1,36,-1
 423 272 l 2,37,38
 423 233 423 233 413.5 199.5 c 128,-1,39
 404 166 404 166 385 141.5 c 128,-1,40
 366 117 366 117 336.5 103.5 c 128,-1,41
 307 90 307 90 267 90 c 0,0,1
423 445 m 1,42,43
 490 419 490 419 546.5 377 c 128,-1,44
 603 335 603 335 643 281 c 1,45,-1
 643 646 l 1,46,-1
 423 646 l 1,47,-1
 423 445 l 1,42,43
215 147 m 0,48,49
 249 147 249 147 275 159 c 128,-1,50
 301 171 301 171 317.5 191.5 c 128,-1,51
 334 212 334 212 342.5 239.5 c 128,-1,52
 351 267 351 267 351 298 c 2,53,-1
 351 416 l 1,54,55
 340 417 340 417 328 417.5 c 128,-1,56
 316 418 316 418 304 418 c 0,57,58
 264 418 264 418 229 406.5 c 128,-1,59
 194 395 194 395 168 374 c 128,-1,60
 142 353 142 353 127 322.5 c 128,-1,61
 112 292 112 292 112 254 c 0,62,63
 112 203 112 203 140.5 175 c 128,-1,64
 169 147 169 147 215 147 c 0,48,49
EndSplineSet
EndChar

StartChar: n
Encoding: 110 110 80
Width: 784
GlyphClass: 2
Flags: W
AnchorPoint: "Anchor-4" 790 0 basechar 0
LayerCount: 2
Fore
SplineSet
590 179 m 2,0,1
 590 229 590 229 572.5 275.5 c 128,-1,2
 555 322 555 322 521.5 358.5 c 128,-1,3
 488 395 488 395 440 418.5 c 128,-1,4
 392 442 392 442 332 447 c 1,5,6
 354 436 354 436 373 417.5 c 128,-1,7
 392 399 392 399 406.5 375.5 c 128,-1,8
 421 352 421 352 429.5 326.5 c 128,-1,9
 438 301 438 301 438 276 c 0,10,11
 438 238 438 238 424.5 209 c 128,-1,12
 411 180 411 180 388.5 160 c 128,-1,13
 366 140 366 140 337 130 c 128,-1,14
 308 120 308 120 277 120 c 0,15,16
 242 120 242 120 201 138.5 c 128,-1,17
 160 157 160 157 125 187.5 c 128,-1,18
 90 218 90 218 66.5 256.5 c 128,-1,19
 43 295 43 295 43 334 c 256,20,21
 43 373 43 373 58.5 405 c 128,-1,22
 74 437 74 437 102.5 459.5 c 128,-1,23
 131 482 131 482 170 494.5 c 128,-1,24
 209 507 209 507 256 507 c 0,25,26
 305 507 305 507 353 493.5 c 128,-1,27
 401 480 401 480 444 455.5 c 128,-1,28
 487 431 487 431 524 397 c 128,-1,29
 561 363 561 363 590 323 c 1,30,-1
 590 646 l 1,31,-1
 -1 646 l 2,32,33
 -10 646 -10 646 -17 652 c 128,-1,34
 -24 658 -24 658 -29 667 c 128,-1,35
 -34 676 -34 676 -36.5 685.5 c 128,-1,36
 -39 695 -39 695 -39 702 c 1,37,-1
 774 702 l 2,38,39
 782 702 782 702 789 696 c 128,-1,40
 796 690 796 690 801.5 681 c 128,-1,41
 807 672 807 672 810 662.5 c 128,-1,42
 813 653 813 653 813 646 c 1,43,-1
 662 646 l 1,44,-1
 662 -7 l 1,45,46
 642 -7 642 -7 623 0 c 128,-1,47
 604 7 604 7 590 24 c 1,48,-1
 590 179 l 2,0,1
369 330 m 0,49,50
 369 345 369 345 365 362 c 128,-1,51
 361 379 361 379 352.5 395.5 c 128,-1,52
 344 412 344 412 331.5 425.5 c 128,-1,53
 319 439 319 439 301 448 c 1,54,55
 262 447 262 447 228.5 435.5 c 128,-1,56
 195 424 195 424 169.5 402.5 c 128,-1,57
 144 381 144 381 129.5 351 c 128,-1,58
 115 321 115 321 115 284 c 0,59,60
 115 233 115 233 144.5 205 c 128,-1,61
 174 177 174 177 220 177 c 0,62,63
 253 177 253 177 280 188.5 c 128,-1,64
 307 200 307 200 327 220.5 c 128,-1,65
 347 241 347 241 358 269 c 128,-1,66
 369 297 369 297 369 330 c 0,49,50
EndSplineSet
Substitution2: "'sups' Superscript lookup 19 subtable" n.superior
Substitution2: "'aalt' Access All Alternates lookup 0 subtable" n.superior
EndChar

StartChar: o
Encoding: 111 111 81
Width: 628
GlyphClass: 2
Flags: W
LayerCount: 2
Fore
SplineSet
140 279 m 0,0,1
 140 216 140 216 155.5 169 c 128,-1,2
 171 122 171 122 196.5 90.5 c 128,-1,3
 222 59 222 59 255.5 43 c 128,-1,4
 289 27 289 27 326 27 c 0,5,6
 406 27 406 27 448 80.5 c 128,-1,7
 490 134 490 134 490 242 c 0,8,9
 490 294 490 294 478 339 c 128,-1,10
 466 384 466 384 442.5 417 c 128,-1,11
 419 450 419 450 385 469 c 128,-1,12
 351 488 351 488 307 488 c 0,13,14
 275 488 275 488 245 476 c 128,-1,15
 215 464 215 464 192 438.5 c 128,-1,16
 169 413 169 413 154.5 373.5 c 128,-1,17
 140 334 140 334 140 279 c 0,0,1
56 248 m 0,18,19
 56 309 56 309 78 361.5 c 128,-1,20
 100 414 100 414 137.5 451.5 c 128,-1,21
 175 489 175 489 225.5 510.5 c 128,-1,22
 276 532 276 532 333 532 c 0,23,24
 395 532 395 532 440.5 511 c 128,-1,25
 486 490 486 490 515.5 455 c 128,-1,26
 545 420 545 420 559.5 373 c 128,-1,27
 574 326 574 326 574 274 c 0,28,29
 574 213 574 213 555 160 c 128,-1,30
 536 107 536 107 500.5 67.5 c 128,-1,31
 465 28 465 28 414 5 c 128,-1,32
 363 -18 363 -18 298 -18 c 0,33,34
 250 -18 250 -18 206 0 c 128,-1,35
 162 18 162 18 128.5 52 c 128,-1,36
 95 86 95 86 75.5 135.5 c 128,-1,37
 56 185 56 185 56 248 c 0,18,19
EndSplineSet
Substitution2: "Single Substitution lookup 90 subtable" ordmasculine
Substitution2: "'aalt' Access All Alternates lookup 0 subtable" ordmasculine
EndChar

StartChar: p
Encoding: 112 112 82
Width: 680
GlyphClass: 2
Flags: W
AnchorPoint: "Anchor-4" 700 0 basechar 0
LayerCount: 2
Fore
SplineSet
558 646 m 1,0,-1
 558 -7 l 1,1,2
 538 -7 538 -7 519 0 c 128,-1,3
 500 7 500 7 486 24 c 1,4,-1
 486 200 l 1,5,6
 463 180 463 180 429.5 167.5 c 128,-1,7
 396 155 396 155 349 155 c 0,8,9
 305 155 305 155 256 179.5 c 128,-1,10
 207 204 207 204 166 244.5 c 128,-1,11
 125 285 125 285 98 337 c 128,-1,12
 71 389 71 389 71 444 c 0,13,14
 71 513 71 513 94.5 563.5 c 128,-1,15
 118 614 118 614 146 646 c 1,16,-1
 0 646 l 2,17,18
 -9 646 -9 646 -16 652 c 128,-1,19
 -23 658 -23 658 -28 667 c 128,-1,20
 -33 676 -33 676 -36 685.5 c 128,-1,21
 -39 695 -39 695 -39 702 c 1,22,-1
 670 702 l 2,23,24
 679 702 679 702 686 696 c 128,-1,25
 693 690 693 690 698 681 c 128,-1,26
 703 672 703 672 706 662.5 c 128,-1,27
 709 653 709 653 709 646 c 1,28,-1
 558 646 l 1,0,-1
294 212 m 0,29,30
 331 212 331 212 362.5 223 c 128,-1,31
 394 234 394 234 419 251 c 128,-1,32
 444 268 444 268 461 289 c 128,-1,33
 478 310 478 310 486 330 c 1,34,-1
 486 646 l 1,35,-1
 250 646 l 1,36,37
 207 603 207 603 175 539 c 128,-1,38
 143 475 143 475 143 392 c 0,39,40
 143 344 143 344 155 310 c 128,-1,41
 167 276 167 276 188 254.5 c 128,-1,42
 209 233 209 233 236.5 222.5 c 128,-1,43
 264 212 264 212 294 212 c 0,29,30
EndSplineSet
EndChar

StartChar: q
Encoding: 113 113 83
Width: 646
GlyphClass: 2
Flags: W
LayerCount: 2
Fore
SplineSet
531 691 m 5,0,1
 486 707 486 707 428 719 c 132,-1,2
 370 731 370 731 301 731 c 4,3,4
 229 731 229 731 180 713.5 c 132,-1,5
 131 696 131 696 101.5 667 c 132,-1,6
 72 638 72 638 59 601 c 132,-1,7
 46 564 46 564 46 525 c 4,8,9
 46 464 46 464 70.5 416 c 132,-1,10
 95 368 95 368 137.5 335 c 132,-1,11
 180 302 180 302 237 284.5 c 132,-1,12
 294 267 294 267 360 267 c 4,13,14
 386 267 386 267 409 269 c 132,-1,15
 432 271 432 271 449 274 c 5,16,-1
 449 9 l 5,17,18
 465 0 465 0 486.5 -3.5 c 132,-1,19
 508 -7 508 -7 531 -7 c 5,20,-1
 531 691 l 5,0,1
329 685 m 4,21,22
 365 685 365 685 395 681 c 132,-1,23
 425 677 425 677 449 672 c 5,24,-1
 449 341 l 5,25,26
 427 329 427 329 397.5 321 c 132,-1,27
 368 313 368 313 324 313 c 4,28,29
 237 313 237 313 186 359 c 132,-1,30
 135 405 135 405 135 492 c 4,31,32
 135 532 135 532 146 567 c 132,-1,33
 157 602 157 602 181 628.5 c 132,-1,34
 205 655 205 655 241.5 670 c 132,-1,35
 278 685 278 685 329 685 c 4,21,22
EndSplineSet
EndChar

StartChar: r
Encoding: 114 114 84
Width: 538
GlyphClass: 2
Flags: W
AnchorPoint: "Anchor-4" 580 0 basechar 0
AnchorPoint: "Anchor-3" 574 0 basechar 0
AnchorPoint: "Anchor-2" 584 0 basechar 0
LayerCount: 2
Fore
SplineSet
119 227 m 2,0,1
 89 254 89 254 70 289.5 c 128,-1,2
 51 325 51 325 51 363 c 0,3,4
 51 387 51 387 60 412 c 128,-1,5
 69 437 69 437 88.5 458 c 128,-1,6
 108 479 108 479 139 492.5 c 128,-1,7
 170 506 170 506 213 506 c 0,8,9
 264 506 264 506 306.5 485 c 128,-1,10
 349 464 349 464 380 432 c 1,11,-1
 380 646 l 1,12,-1
 0 646 l 2,13,14
 -9 646 -9 646 -16 652 c 128,-1,15
 -23 658 -23 658 -28 667 c 128,-1,16
 -33 676 -33 676 -36 685.5 c 128,-1,17
 -39 695 -39 695 -39 702 c 1,18,-1
 538 702 l 2,19,20
 547 702 547 702 554 696 c 128,-1,21
 561 690 561 690 566 681 c 128,-1,22
 571 672 571 672 574 662.5 c 128,-1,23
 577 653 577 653 577 646 c 1,24,-1
 452 646 l 1,25,-1
 452 389 l 2,26,27
 452 341 452 341 440 300 c 128,-1,28
 428 259 428 259 404 229.5 c 128,-1,29
 380 200 380 200 344 183 c 128,-1,30
 308 166 308 166 259 166 c 0,31,32
 241 166 241 166 219 171 c 1,33,-1
 435 -26 l 1,34,35
 433 -34 433 -34 427.5 -38 c 128,-1,36
 422 -42 422 -42 417 -42 c 2,37,-1
 119 227 l 2,0,1
208 223 m 0,38,39
 252 223 252 223 284 237.5 c 128,-1,40
 316 252 316 252 337.5 276.5 c 128,-1,41
 359 301 359 301 369.5 333.5 c 128,-1,42
 380 366 380 366 380 402 c 1,43,44
 356 424 356 424 326 435.5 c 128,-1,45
 296 447 296 447 265 447 c 0,46,47
 235 447 235 447 209 438 c 128,-1,48
 183 429 183 429 163 411.5 c 128,-1,49
 143 394 143 394 131.5 369.5 c 128,-1,50
 120 345 120 345 120 314 c 0,51,52
 120 276 120 276 140.5 249.5 c 128,-1,53
 161 223 161 223 208 223 c 0,38,39
EndSplineSet
EndChar

StartChar: s
Encoding: 115 115 85
Width: 876
GlyphClass: 2
Flags: W
AnchorPoint: "Anchor-4" 890 0 basechar 0
LayerCount: 2
Fore
SplineSet
0 646 m 2,0,1
 -9 646 -9 646 -16 652 c 128,-1,2
 -23 658 -23 658 -28 667 c 128,-1,3
 -33 676 -33 676 -36 685.5 c 128,-1,4
 -39 695 -39 695 -39 702 c 1,5,-1
 866 702 l 2,6,7
 875 702 875 702 882 696 c 128,-1,8
 889 690 889 690 894 681 c 128,-1,9
 899 672 899 672 902 662.5 c 128,-1,10
 905 653 905 653 905 646 c 1,11,-1
 754 646 l 1,12,-1
 754 -7 l 1,13,14
 734 -7 734 -7 715 0 c 128,-1,15
 696 7 696 7 682 24 c 1,16,-1
 682 284 l 1,17,18
 649 270 649 270 609 270 c 0,19,20
 567 270 567 270 522 285 c 128,-1,21
 477 300 477 300 438 332 c 1,22,23
 426 258 426 258 381.5 212 c 128,-1,24
 337 166 337 166 259 166 c 0,25,26
 241 166 241 166 219 171 c 1,27,-1
 435 -26 l 1,28,29
 433 -34 433 -34 427.5 -38 c 128,-1,30
 422 -42 422 -42 417 -42 c 2,31,-1
 119 227 l 2,32,33
 89 254 89 254 70 289.5 c 128,-1,34
 51 325 51 325 51 363 c 0,35,36
 51 387 51 387 60 412 c 128,-1,37
 69 437 69 437 88.5 458 c 128,-1,38
 108 479 108 479 139 492.5 c 128,-1,39
 170 506 170 506 213 506 c 0,40,41
 261 506 261 506 301 485.5 c 128,-1,42
 341 465 341 465 370 433 c 1,43,-1
 370 646 l 1,44,-1
 0 646 l 2,0,1
442 646 m 1,45,-1
 442 389 l 2,46,47
 442 381 442 381 441.5 372.5 c 128,-1,48
 441 364 441 364 440 356 c 1,49,50
 464 340 464 340 494 333.5 c 128,-1,51
 524 327 524 327 554 327 c 0,52,53
 592 327 592 327 624 338 c 128,-1,54
 656 349 656 349 682 367 c 1,55,-1
 682 646 l 1,56,-1
 442 646 l 1,45,-1
208 223 m 0,57,58
 249 223 249 223 279.5 237.5 c 128,-1,59
 310 252 310 252 330 276.5 c 128,-1,60
 350 301 350 301 360 333.5 c 128,-1,61
 370 366 370 366 370 402 c 1,62,63
 348 424 348 424 320.5 435.5 c 128,-1,64
 293 447 293 447 265 447 c 0,65,66
 235 447 235 447 209 438 c 128,-1,67
 183 429 183 429 163 411.5 c 128,-1,68
 143 394 143 394 131.5 369.5 c 128,-1,69
 120 345 120 345 120 314 c 0,70,71
 120 276 120 276 140.5 249.5 c 128,-1,72
 161 223 161 223 208 223 c 0,57,58
EndSplineSet
EndChar

StartChar: t
Encoding: 116 116 86
Width: 673
GlyphClass: 2
Flags: W
AnchorPoint: "Anchor-7" 566 -10 basechar 0
AnchorPoint: "Anchor-6" 706 -10 basechar 0
AnchorPoint: "Anchor-4" 680 0 basechar 0
AnchorPoint: "Anchor-3" 639 0 basechar 0
AnchorPoint: "Anchor-2" 655 0 basechar 0
LayerCount: 2
Fore
SplineSet
581 646 m 2,0,1
 572 646 572 646 565 652 c 128,-1,2
 558 658 558 658 553 667 c 128,-1,3
 548 676 548 676 545 685.5 c 128,-1,4
 542 695 542 695 542 702 c 1,5,-1
 659 702 l 2,6,7
 668 702 668 702 675 696 c 128,-1,8
 682 690 682 690 687 681 c 128,-1,9
 692 672 692 672 695 662.5 c 128,-1,10
 698 653 698 653 698 646 c 1,11,-1
 581 646 l 2,0,1
0 646 m 2,12,13
 -4 646 -4 646 -10.5 650.5 c 128,-1,14
 -17 655 -17 655 -23.5 662.5 c 128,-1,15
 -30 670 -30 670 -34.5 680 c 128,-1,16
 -39 690 -39 690 -39 702 c 1,17,-1
 408 702 l 2,18,19
 423 702 423 702 445 689 c 128,-1,20
 467 676 467 676 487.5 657.5 c 128,-1,21
 508 639 508 639 522.5 619 c 128,-1,22
 537 599 537 599 537 585 c 2,23,-1
 537 533 l 2,24,25
 537 487 537 487 502.5 463 c 128,-1,26
 468 439 468 439 410 425 c 2,27,-1
 299 399 l 2,28,29
 265 391 265 391 234 376 c 128,-1,30
 203 361 203 361 179 339 c 128,-1,31
 155 317 155 317 141 287 c 128,-1,32
 127 257 127 257 127 220 c 0,33,34
 127 184 127 184 141.5 154.5 c 128,-1,35
 156 125 156 125 181 104 c 128,-1,36
 206 83 206 83 240.5 72 c 128,-1,37
 275 61 275 61 314 61 c 0,38,39
 396 61 396 61 456.5 102.5 c 128,-1,40
 517 144 517 144 543 225 c 1,41,42
 563 220 563 220 582.5 207.5 c 128,-1,43
 602 195 602 195 614 178 c 1,44,45
 603 133 603 133 579.5 100 c 128,-1,46
 556 67 556 67 524 45.5 c 128,-1,47
 492 24 492 24 453 14 c 128,-1,48
 414 4 414 4 372 4 c 0,49,50
 323 4 323 4 267.5 25.5 c 128,-1,51
 212 47 212 47 164.5 83.5 c 128,-1,52
 117 120 117 120 85.5 168.5 c 128,-1,53
 54 217 54 217 54 271 c 0,54,55
 54 350 54 350 112.5 397.5 c 128,-1,56
 171 445 171 445 269 468 c 2,57,-1
 380 494 l 2,58,59
 424 505 424 505 444.5 522 c 128,-1,60
 465 539 465 539 465 571 c 2,61,-1
 465 623 l 2,62,63
 465 638 465 638 459.5 642 c 128,-1,64
 454 646 454 646 440 646 c 2,65,-1
 0 646 l 2,12,13
EndSplineSet
EndChar

StartChar: u
Encoding: 117 117 87
Width: 624
GlyphClass: 2
Flags: W
LayerCount: 2
Fore
SplineSet
308 40 m 0,0,1
 356 40 356 40 395 67.5 c 128,-1,2
 434 95 434 95 454 142 c 1,3,-1
 454 505 l 1,4,5
 471 514 471 514 491.5 518 c 128,-1,6
 512 522 512 522 533 522 c 1,7,-1
 533 8 l 1,8,9
 519 0 519 0 498.5 -3.5 c 128,-1,10
 478 -7 478 -7 458 -7 c 1,11,-1
 458 88 l 1,12,13
 448 71 448 71 430.5 52.5 c 128,-1,14
 413 34 413 34 389 18.5 c 128,-1,15
 365 3 365 3 334.5 -7 c 128,-1,16
 304 -17 304 -17 267 -17 c 256,17,18
 230 -17 230 -17 197.5 -6 c 128,-1,19
 165 5 165 5 141 28.5 c 128,-1,20
 117 52 117 52 103 87.5 c 128,-1,21
 89 123 89 123 89 172 c 2,22,-1
 89 505 l 1,23,24
 106 514 106 514 126.5 518 c 128,-1,25
 147 522 147 522 168 522 c 1,26,-1
 168 202 l 2,27,28
 168 157 168 157 179 126 c 128,-1,29
 190 95 190 95 209 76 c 128,-1,30
 228 57 228 57 253.5 48.5 c 128,-1,31
 279 40 279 40 308 40 c 0,0,1
EndSplineSet
EndChar

StartChar: v
Encoding: 118 118 88
Width: 670
GlyphClass: 2
Flags: W
AnchorPoint: "Anchor-4" 680 0 basechar 0
LayerCount: 2
Fore
SplineSet
548 646 m 1,0,-1
 548 -7 l 1,1,2
 528 -7 528 -7 509 0 c 128,-1,3
 490 7 490 7 476 24 c 1,4,-1
 476 146 l 1,5,6
 448 121 448 121 411 105.5 c 128,-1,7
 374 90 374 90 324 90 c 0,8,9
 283 90 283 90 236 112 c 128,-1,10
 189 134 189 134 148.5 169.5 c 128,-1,11
 108 205 108 205 81 249.5 c 128,-1,12
 54 294 54 294 54 338 c 0,13,14
 54 386 54 386 71.5 423 c 128,-1,15
 89 460 89 460 119 485.5 c 128,-1,16
 149 511 149 511 189.5 524 c 128,-1,17
 230 537 230 537 276 537 c 0,18,19
 340 537 340 537 390 508 c 128,-1,20
 440 479 440 479 476 441 c 1,21,-1
 476 646 l 1,22,-1
 0 646 l 2,23,24
 -9 646 -9 646 -16 652 c 128,-1,25
 -23 658 -23 658 -28 667 c 128,-1,26
 -33 676 -33 676 -36 685.5 c 128,-1,27
 -39 695 -39 695 -39 702 c 1,28,-1
 660 702 l 2,29,30
 669 702 669 702 676 696 c 128,-1,31
 683 690 683 690 688 681 c 128,-1,32
 693 672 693 672 696 662.5 c 128,-1,33
 699 653 699 653 699 646 c 1,34,-1
 548 646 l 1,0,-1
476 416 m 1,35,36
 444 443 444 443 408.5 458.5 c 128,-1,37
 373 474 373 474 327 474 c 0,38,39
 284 474 284 474 247.5 461.5 c 128,-1,40
 211 449 211 449 184 425.5 c 128,-1,41
 157 402 157 402 142 367 c 128,-1,42
 127 332 127 332 127 287 c 0,43,44
 127 253 127 253 138 227 c 128,-1,45
 149 201 149 201 167.5 183 c 128,-1,46
 186 165 186 165 211.5 156 c 128,-1,47
 237 147 237 147 267 147 c 0,48,49
 300 147 300 147 331.5 156.5 c 128,-1,50
 363 166 363 166 390.5 184 c 128,-1,51
 418 202 418 202 440 227 c 128,-1,52
 462 252 462 252 476 282 c 1,53,-1
 476 416 l 1,35,36
EndSplineSet
EndChar

StartChar: w
Encoding: 119 119 89
Width: 863
GlyphClass: 2
Flags: W
LayerCount: 2
Fore
SplineSet
292 10 m 1,0,1
 280 2 280 2 259 -2.5 c 128,-1,2
 238 -7 238 -7 219 -7 c 1,3,4
 196 46 196 46 172.5 110.5 c 128,-1,5
 149 175 149 175 127.5 242.5 c 128,-1,6
 106 310 106 310 87.5 376.5 c 128,-1,7
 69 443 69 443 57 502 c 1,8,9
 90 522 90 522 135 522 c 1,10,11
 143 474 143 474 157 417.5 c 128,-1,12
 171 361 171 361 189 300 c 128,-1,13
 207 239 207 239 228 177.5 c 128,-1,14
 249 116 249 116 270 58 c 1,15,16
 291 109 291 109 311 165.5 c 128,-1,17
 331 222 331 222 349 279 c 128,-1,18
 367 336 367 336 382 392.5 c 128,-1,19
 397 449 397 449 408 500 c 1,20,21
 425 510 425 510 445 514 c 128,-1,22
 465 518 465 518 482 518 c 1,23,24
 491 470 491 470 506.5 412 c 128,-1,25
 522 354 522 354 541 292.5 c 128,-1,26
 560 231 560 231 581.5 169.5 c 128,-1,27
 603 108 603 108 625 51 c 1,28,29
 646 104 646 104 664.5 163 c 128,-1,30
 683 222 683 222 698.5 282 c 128,-1,31
 714 342 714 342 725.5 400.5 c 128,-1,32
 737 459 737 459 745 511 c 1,33,34
 769 522 769 522 798 522 c 0,35,36
 815 522 815 522 821 520 c 1,37,38
 807 461 807 461 788.5 397 c 128,-1,39
 770 333 770 333 747.5 267 c 128,-1,40
 725 201 725 201 699.5 136 c 128,-1,41
 674 71 674 71 647 10 c 1,42,43
 635 2 635 2 613 -2.5 c 128,-1,44
 591 -7 591 -7 574 -7 c 1,45,46
 555 37 555 37 535.5 89 c 128,-1,47
 516 141 516 141 497.5 196 c 128,-1,48
 479 251 479 251 462 306.5 c 128,-1,49
 445 362 445 362 432 415 c 1,50,51
 421 371 421 371 405 319 c 128,-1,52
 389 267 389 267 370 213 c 128,-1,53
 351 159 351 159 331 107 c 128,-1,54
 311 55 311 55 292 10 c 1,0,1
EndSplineSet
EndChar

StartChar: x
Encoding: 120 120 90
Width: 550
GlyphClass: 2
Flags: W
LayerCount: 2
Fore
SplineSet
492 523 m 1,0,1
 462 460 462 460 414.5 395 c 128,-1,2
 367 330 367 330 318 270 c 1,3,-1
 518 11 l 1,4,5
 501 0 501 0 476 -3.5 c 128,-1,6
 451 -7 451 -7 433 -7 c 1,7,-1
 267 228 l 1,8,9
 225 171 225 171 190 116 c 128,-1,10
 155 61 155 61 119 0 c 1,11,12
 107 -5 107 -5 90.5 -7.5 c 128,-1,13
 74 -10 74 -10 59 -10 c 0,14,15
 41 -10 41 -10 32 -7 c 1,16,17
 76 56 76 56 128 122.5 c 128,-1,18
 180 189 180 189 236 255 c 1,19,-1
 55 497 l 1,20,21
 70 508 70 508 90.5 515 c 128,-1,22
 111 522 111 522 134 522 c 1,23,-1
 289 296 l 1,24,25
 322 344 322 344 354.5 398 c 128,-1,26
 387 452 387 452 413 510 c 1,27,28
 425 518 425 518 441 521 c 128,-1,29
 457 524 457 524 473 524 c 0,30,31
 478 524 478 524 482.5 524 c 128,-1,32
 487 524 487 524 492 523 c 1,0,1
EndSplineSet
EndChar

StartChar: y
Encoding: 121 121 91
Width: 762
GlyphClass: 2
Flags: W
AnchorPoint: "Anchor-4" 790 0 basechar 0
LayerCount: 2
Fore
SplineSet
640 646 m 1,0,-1
 640 -7 l 1,1,2
 620 -7 620 -7 601 0 c 128,-1,3
 582 7 582 7 568 24 c 1,4,-1
 568 161 l 1,5,6
 535 137 535 137 490.5 122 c 128,-1,7
 446 107 446 107 387 107 c 0,8,9
 323 107 323 107 267.5 129 c 128,-1,10
 212 151 212 151 167 190 c 128,-1,11
 122 229 122 229 89 281.5 c 128,-1,12
 56 334 56 334 38 395 c 1,13,14
 150 401 150 401 206.5 440.5 c 128,-1,15
 263 480 263 480 263 557 c 0,16,17
 263 608 263 608 231 646 c 1,18,-1
 0 646 l 2,19,20
 -9 646 -9 646 -16 652 c 128,-1,21
 -23 658 -23 658 -28 667 c 128,-1,22
 -33 676 -33 676 -36 685.5 c 128,-1,23
 -39 695 -39 695 -39 702 c 1,24,-1
 752 702 l 2,25,26
 761 702 761 702 768 696 c 128,-1,27
 775 690 775 690 780 681 c 128,-1,28
 785 672 785 672 788 662.5 c 128,-1,29
 791 653 791 653 791 646 c 1,30,-1
 640 646 l 1,0,-1
330 164 m 0,31,32
 402 164 402 164 466.5 195.5 c 128,-1,33
 531 227 531 227 568 281 c 1,34,-1
 568 646 l 1,35,-1
 259 646 l 1,36,37
 295 614 295 614 313.5 575 c 128,-1,38
 332 536 332 536 332 498 c 0,39,40
 332 462 332 462 313.5 432 c 128,-1,41
 295 402 295 402 262.5 380 c 128,-1,42
 230 358 230 358 186.5 344.5 c 128,-1,43
 143 331 143 331 93 328 c 1,44,45
 111 293 111 293 135 263 c 128,-1,46
 159 233 159 233 189 211 c 128,-1,47
 219 189 219 189 254.5 176.5 c 128,-1,48
 290 164 290 164 330 164 c 0,31,32
EndSplineSet
EndChar

StartChar: z
Encoding: 122 122 92
Width: 830
GlyphClass: 2
Flags: W
AnchorPoint: "Anchor-4" 840 0 basechar 0
LayerCount: 2
Fore
SplineSet
410 283 m 0,0,1
 410 305 410 305 402 329.5 c 128,-1,2
 394 354 394 354 378.5 374 c 128,-1,3
 363 394 363 394 339 408 c 128,-1,4
 315 422 315 422 283 424 c 2,5,-1
 179 424 l 2,6,7
 170 424 170 424 163 431.5 c 128,-1,8
 156 439 156 439 151 449 c 128,-1,9
 146 459 146 459 143 470 c 128,-1,10
 140 481 140 481 140 488 c 1,11,-1
 636 488 l 1,12,-1
 636 646 l 1,13,-1
 0 646 l 2,14,15
 -9 646 -9 646 -16 652 c 128,-1,16
 -23 658 -23 658 -28 667 c 128,-1,17
 -33 676 -33 676 -36 685.5 c 128,-1,18
 -39 695 -39 695 -39 702 c 1,19,-1
 820 702 l 2,20,21
 829 702 829 702 836 696 c 128,-1,22
 843 690 843 690 848 681 c 128,-1,23
 853 672 853 672 856 662.5 c 128,-1,24
 859 653 859 653 859 646 c 1,25,-1
 708 646 l 1,26,-1
 708 -7 l 1,27,28
 688 -7 688 -7 669 0 c 128,-1,29
 650 7 650 7 636 24 c 1,30,-1
 636 424 l 1,31,-1
 354 424 l 1,32,33
 379 410 379 410 402.5 390.5 c 128,-1,34
 426 371 426 371 444 346 c 128,-1,35
 462 321 462 321 472.5 292 c 128,-1,36
 483 263 483 263 483 232 c 0,37,38
 483 193 483 193 469.5 160 c 128,-1,39
 456 127 456 127 431 103.5 c 128,-1,40
 406 80 406 80 370.5 67 c 128,-1,41
 335 54 335 54 291 54 c 0,42,43
 244 54 244 54 201.5 71.5 c 128,-1,44
 159 89 159 89 123 120.5 c 128,-1,45
 87 152 87 152 59.5 195.5 c 128,-1,46
 32 239 32 239 15 290 c 1,47,48
 21 296 21 296 33 298 c 1,49,50
 66 213 66 213 120 162 c 128,-1,51
 174 111 174 111 244 111 c 0,52,53
 319 111 319 111 364.5 157.5 c 128,-1,54
 410 204 410 204 410 283 c 0,0,1
EndSplineSet
EndChar

StartChar: braceleft
Encoding: 123 123 93
Width: 338
GlyphClass: 2
Flags: W
LayerCount: 2
Fore
SplineSet
292 833 m 1,0,1
 299 830 299 830 302.5 821.5 c 128,-1,2
 306 813 306 813 306 805 c 1,3,4
 289 799 289 799 275 791 c 128,-1,5
 261 783 261 783 250.5 770 c 128,-1,6
 240 757 240 757 234 736.5 c 128,-1,7
 228 716 228 716 228 684 c 2,8,-1
 228 491 l 2,9,10
 228 455 228 455 221 431.5 c 128,-1,11
 214 408 214 408 202 391.5 c 128,-1,12
 190 375 190 375 173 364 c 128,-1,13
 156 353 156 353 137 342 c 1,14,15
 183 322 183 322 204 285 c 128,-1,16
 225 248 225 248 225 188 c 2,17,-1
 225 -7 l 2,18,19
 225 -35 225 -35 230.5 -53.5 c 128,-1,20
 236 -72 236 -72 246 -84 c 128,-1,21
 256 -96 256 -96 269.5 -103 c 128,-1,22
 283 -110 283 -110 298 -114 c 1,23,24
 293 -131 293 -131 281 -146 c 128,-1,25
 269 -161 269 -161 254 -167 c 1,26,27
 234 -163 234 -163 215.5 -153.5 c 128,-1,28
 197 -144 197 -144 183 -127.5 c 128,-1,29
 169 -111 169 -111 161 -87.5 c 128,-1,30
 153 -64 153 -64 153 -31 c 2,31,-1
 153 165 l 2,32,33
 153 203 153 203 145.5 229 c 128,-1,34
 138 255 138 255 124 271.5 c 128,-1,35
 110 288 110 288 91 297.5 c 128,-1,36
 72 307 72 307 48 312 c 1,37,38
 45 319 45 319 45 332 c 0,39,40
 45 341 45 341 48 349 c 1,41,42
 67 353 67 353 86 359 c 128,-1,43
 105 365 105 365 120.5 378 c 128,-1,44
 136 391 136 391 146 411.5 c 128,-1,45
 156 432 156 432 156 464 c 2,46,-1
 156 652 l 2,47,48
 156 727 156 727 186.5 771 c 128,-1,49
 217 815 217 815 292 833 c 1,0,1
EndSplineSet
EndChar

StartChar: bar
Encoding: 124 124 94
Width: 289
GlyphClass: 2
Flags: W
LayerCount: 2
Fore
SplineSet
112 823 m 1,0,1
 123 832 123 832 140.5 838 c 128,-1,2
 158 844 158 844 177 844 c 1,3,-1
 177 -165 l 1,4,5
 166 -174 166 -174 148.5 -179 c 128,-1,6
 131 -184 131 -184 112 -185 c 1,7,-1
 112 823 l 1,8,-1
 112 823 l 1,0,1
EndSplineSet
EndChar

StartChar: braceright
Encoding: 125 125 95
Width: 338
GlyphClass: 2
Flags: W
LayerCount: 2
Fore
SplineSet
46 -167 m 1,0,1
 40 -164 40 -164 36 -156 c 128,-1,2
 32 -148 32 -148 32 -140 c 1,3,4
 49 -133 49 -133 63.5 -125.5 c 128,-1,5
 78 -118 78 -118 88.5 -105 c 128,-1,6
 99 -92 99 -92 104.5 -71.5 c 128,-1,7
 110 -51 110 -51 110 -18 c 2,8,-1
 110 175 l 2,9,10
 110 210 110 210 117 233.5 c 128,-1,11
 124 257 124 257 136 273.5 c 128,-1,12
 148 290 148 290 164.5 301.5 c 128,-1,13
 181 313 181 313 201 324 c 1,14,15
 155 343 155 343 134.5 380 c 128,-1,16
 114 417 114 417 114 478 c 2,17,-1
 114 673 l 2,18,19
 114 701 114 701 108 719 c 128,-1,20
 102 737 102 737 92.5 749 c 128,-1,21
 83 761 83 761 69.5 767.5 c 128,-1,22
 56 774 56 774 41 779 c 1,23,24
 46 796 46 796 57.5 811.5 c 128,-1,25
 69 827 69 827 84 833 c 1,26,27
 104 829 104 829 122.5 819.5 c 128,-1,28
 141 810 141 810 155 793.5 c 128,-1,29
 169 777 169 777 177 753 c 128,-1,30
 185 729 185 729 185 696 c 2,31,-1
 185 500 l 2,32,33
 185 462 185 462 192.5 436.5 c 128,-1,34
 200 411 200 411 214 394 c 128,-1,35
 228 377 228 377 247.5 367.5 c 128,-1,36
 267 358 267 358 290 353 c 1,37,38
 293 344 293 344 293 332 c 0,39,40
 293 323 293 323 290 316 c 1,41,42
 271 312 271 312 252 306 c 128,-1,43
 233 300 233 300 217.5 287.5 c 128,-1,44
 202 275 202 275 192 254.5 c 128,-1,45
 182 234 182 234 182 201 c 2,46,-1
 182 13 l 2,47,48
 182 -62 182 -62 151.5 -106 c 128,-1,49
 121 -150 121 -150 46 -167 c 1,0,1
EndSplineSet
EndChar

StartChar: asciitilde
Encoding: 126 126 96
Width: 598
GlyphClass: 2
Flags: W
LayerCount: 2
Fore
SplineSet
528 378 m 1,0,1
 537 377 537 377 544 372.5 c 128,-1,2
 551 368 551 368 555 362 c 1,3,4
 549 348 549 348 537 330.5 c 128,-1,5
 525 313 525 313 506.5 298 c 128,-1,6
 488 283 488 283 463 272.5 c 128,-1,7
 438 262 438 262 405 262 c 0,8,9
 382 262 382 262 358.5 267 c 128,-1,10
 335 272 335 272 302 287 c 2,11,-1
 239 316 l 2,12,13
 214 327 214 327 195 334 c 128,-1,14
 176 341 176 341 156 341 c 0,15,16
 127 341 127 341 105.5 326 c 128,-1,17
 84 311 84 311 68 292 c 1,18,19
 60 293 60 293 52.5 298.5 c 128,-1,20
 45 304 45 304 43 310 c 1,21,22
 68 350 68 350 106 377 c 128,-1,23
 144 404 144 404 189 404 c 0,24,25
 213 404 213 404 234.5 397.5 c 128,-1,26
 256 391 256 391 278 380 c 2,27,-1
 335 353 l 2,28,29
 374 334 374 334 395 329.5 c 128,-1,30
 416 325 416 325 437 325 c 0,31,32
 472 325 472 325 492.5 339 c 128,-1,33
 513 353 513 353 528 378 c 1,0,1
EndSplineSet
EndChar

StartChar: uni0080
Encoding: 128 128 99
Width: 1209
VWidth: 2000
Flags: W
LayerCount: 2
Fore
SplineSet
343.4453125 45.0244140625 m 0,0,1
 343.4453125 62.2060546875 343.4453125 62.2060546875 364.990234375 77.3359375 c 128,-1,2
 386.534179688 92.4658203125 386.534179688 92.4658203125 424.453125 103.622070312 c 128,-1,3
 462.373046875 114.776367188 462.373046875 114.776367188 513.649414062 121.1875 c 128,-1,4
 564.92578125 127.59765625 564.92578125 127.59765625 624.388671875 127.59765625 c 256,5,6
 683.8515625 127.59765625 683.8515625 127.59765625 735.127929688 121.1875 c 128,-1,7
 786.404296875 114.776367188 786.404296875 114.776367188 824.32421875 103.622070312 c 128,-1,8
 862.2421875 92.4658203125 862.2421875 92.4658203125 883.787109375 77.3359375 c 128,-1,9
 905.331054688 62.2060546875 905.331054688 62.2060546875 905.331054688 45.0244140625 c 0,10,11
 905.331054688 28.0986328125 905.331054688 28.0986328125 883.787109375 13.095703125 c 128,-1,12
 862.2421875 -1.9052734375 862.2421875 -1.9052734375 824.32421875 -13.060546875 c 128,-1,13
 786.404296875 -24.21484375 786.404296875 -24.21484375 735.127929688 -30.7548828125 c 128,-1,14
 683.8515625 -37.2939453125 683.8515625 -37.2939453125 624.388671875 -37.2939453125 c 256,15,16
 564.92578125 -37.2939453125 564.92578125 -37.2939453125 513.649414062 -30.7548828125 c 128,-1,17
 462.373046875 -24.21484375 462.373046875 -24.21484375 424.453125 -13.060546875 c 128,-1,18
 386.534179688 -1.9052734375 386.534179688 -1.9052734375 364.990234375 13.095703125 c 128,-1,19
 343.4453125 28.0986328125 343.4453125 28.0986328125 343.4453125 45.0244140625 c 0,0,1
452.892578125 44.767578125 m 256,20,21
 452.892578125 33.9970703125 452.892578125 33.9970703125 465.819335938 24.63671875 c 128,-1,22
 478.74609375 15.2763671875 478.74609375 15.2763671875 502.014648438 8.3525390625 c 128,-1,23
 525.282226562 1.4287109375 525.282226562 1.4287109375 556.73828125 -2.5458984375 c 128,-1,24
 588.193359375 -6.5205078125 588.193359375 -6.5205078125 624.388671875 -6.5205078125 c 256,25,26
 660.583007812 -6.5205078125 660.583007812 -6.5205078125 691.607421875 -2.5458984375 c 128,-1,27
 722.6328125 1.4287109375 722.6328125 1.4287109375 745.899414062 8.3525390625 c 128,-1,28
 769.168945312 15.2763671875 769.168945312 15.2763671875 782.096679688 24.63671875 c 128,-1,29
 795.022460938 33.9970703125 795.022460938 33.9970703125 795.022460938 44.767578125 c 256,30,31
 795.022460938 55.5390625 795.022460938 55.5390625 782.096679688 65.0263671875 c 128,-1,32
 769.168945312 74.5146484375 769.168945312 74.5146484375 745.899414062 81.5673828125 c 128,-1,33
 722.6328125 88.6201171875 722.6328125 88.6201171875 691.607421875 92.59375 c 128,-1,34
 660.583007812 96.5693359375 660.583007812 96.5693359375 624.388671875 96.5693359375 c 256,35,36
 588.193359375 96.5693359375 588.193359375 96.5693359375 556.73828125 92.59375 c 128,-1,37
 525.282226562 88.6201171875 525.282226562 88.6201171875 502.014648438 81.5673828125 c 128,-1,38
 478.74609375 74.5146484375 478.74609375 74.5146484375 465.819335938 65.0263671875 c 128,-1,39
 452.892578125 55.5390625 452.892578125 55.5390625 452.892578125 44.767578125 c 256,20,21
343.4453125 230.75390625 m 0,40,41
 343.4453125 247.935546875 343.4453125 247.935546875 364.990234375 263.065429688 c 128,-1,42
 386.534179688 278.196289062 386.534179688 278.196289062 424.453125 289.3515625 c 128,-1,43
 462.373046875 300.506835938 462.373046875 300.506835938 513.649414062 306.916992188 c 128,-1,44
 564.92578125 313.327148438 564.92578125 313.327148438 624.388671875 313.327148438 c 256,45,46
 683.8515625 313.327148438 683.8515625 313.327148438 735.127929688 306.916992188 c 128,-1,47
 786.404296875 300.506835938 786.404296875 300.506835938 824.32421875 289.3515625 c 128,-1,48
 862.2421875 278.196289062 862.2421875 278.196289062 883.787109375 263.065429688 c 128,-1,49
 905.331054688 247.935546875 905.331054688 247.935546875 905.331054688 230.75390625 c 0,50,51
 905.331054688 213.828125 905.331054688 213.828125 883.787109375 198.826171875 c 128,-1,52
 862.2421875 183.82421875 862.2421875 183.82421875 824.32421875 172.668945312 c 128,-1,53
 786.404296875 161.513671875 786.404296875 161.513671875 735.127929688 154.974609375 c 128,-1,54
 683.8515625 148.435546875 683.8515625 148.435546875 624.388671875 148.435546875 c 256,55,56
 564.92578125 148.435546875 564.92578125 148.435546875 513.649414062 154.974609375 c 128,-1,57
 462.373046875 161.513671875 462.373046875 161.513671875 424.453125 172.668945312 c 128,-1,58
 386.534179688 183.82421875 386.534179688 183.82421875 364.990234375 198.826171875 c 128,-1,59
 343.4453125 213.828125 343.4453125 213.828125 343.4453125 230.75390625 c 0,40,41
452.892578125 230.498046875 m 256,60,61
 452.892578125 219.7265625 452.892578125 219.7265625 465.819335938 210.3671875 c 128,-1,62
 478.74609375 201.006835938 478.74609375 201.006835938 502.014648438 194.08203125 c 128,-1,63
 525.282226562 187.158203125 525.282226562 187.158203125 556.73828125 183.18359375 c 128,-1,64
 588.193359375 179.208007812 588.193359375 179.208007812 624.388671875 179.208007812 c 256,65,66
 660.583007812 179.208007812 660.583007812 179.208007812 691.607421875 183.18359375 c 128,-1,67
 722.6328125 187.158203125 722.6328125 187.158203125 745.899414062 194.08203125 c 128,-1,68
 769.168945312 201.006835938 769.168945312 201.006835938 782.096679688 210.3671875 c 128,-1,69
 795.022460938 219.7265625 795.022460938 219.7265625 795.022460938 230.498046875 c 256,70,71
 795.022460938 241.266601562 795.022460938 241.266601562 782.096679688 250.755859375 c 128,-1,72
 769.168945312 260.245117188 769.168945312 260.245117188 745.899414062 267.296875 c 128,-1,73
 722.6328125 274.348632812 722.6328125 274.348632812 691.607421875 278.323242188 c 128,-1,74
 660.583007812 282.297851562 660.583007812 282.297851562 624.388671875 282.297851562 c 256,75,76
 588.193359375 282.297851562 588.193359375 282.297851562 556.73828125 278.323242188 c 128,-1,77
 525.282226562 274.348632812 525.282226562 274.348632812 502.014648438 267.296875 c 128,-1,78
 478.74609375 260.245117188 478.74609375 260.245117188 465.819335938 250.755859375 c 128,-1,79
 452.892578125 241.266601562 452.892578125 241.266601562 452.892578125 230.498046875 c 256,60,61
343.4453125 418.186523438 m 0,80,81
 343.4453125 435.368164062 343.4453125 435.368164062 364.990234375 450.499023438 c 128,-1,82
 386.534179688 465.62890625 386.534179688 465.62890625 424.453125 476.784179688 c 128,-1,83
 462.373046875 487.939453125 462.373046875 487.939453125 513.649414062 494.350585938 c 128,-1,84
 564.92578125 500.76171875 564.92578125 500.76171875 624.388671875 500.76171875 c 256,85,86
 683.8515625 500.76171875 683.8515625 500.76171875 735.127929688 494.350585938 c 128,-1,87
 786.404296875 487.939453125 786.404296875 487.939453125 824.32421875 476.784179688 c 128,-1,88
 862.2421875 465.62890625 862.2421875 465.62890625 883.787109375 450.499023438 c 128,-1,89
 905.331054688 435.368164062 905.331054688 435.368164062 905.331054688 418.186523438 c 0,90,91
 905.331054688 401.26171875 905.331054688 401.26171875 883.787109375 386.259765625 c 128,-1,92
 862.2421875 371.258789062 862.2421875 371.258789062 824.32421875 360.102539062 c 128,-1,93
 786.404296875 348.947265625 786.404296875 348.947265625 735.127929688 342.408203125 c 128,-1,94
 683.8515625 335.868164062 683.8515625 335.868164062 624.388671875 335.868164062 c 256,95,96
 564.92578125 335.868164062 564.92578125 335.868164062 513.649414062 342.408203125 c 128,-1,97
 462.373046875 348.947265625 462.373046875 348.947265625 424.453125 360.102539062 c 128,-1,98
 386.534179688 371.258789062 386.534179688 371.258789062 364.990234375 386.259765625 c 128,-1,99
 343.4453125 401.26171875 343.4453125 401.26171875 343.4453125 418.186523438 c 0,80,81
452.892578125 417.930664062 m 256,100,101
 452.892578125 407.16015625 452.892578125 407.16015625 465.819335938 397.799804688 c 128,-1,102
 478.74609375 388.440429688 478.74609375 388.440429688 502.014648438 381.515625 c 128,-1,103
 525.282226562 374.591796875 525.282226562 374.591796875 556.73828125 370.6171875 c 128,-1,104
 588.193359375 366.641601562 588.193359375 366.641601562 624.388671875 366.641601562 c 256,105,106
 660.583007812 366.641601562 660.583007812 366.641601562 691.607421875 370.6171875 c 128,-1,107
 722.6328125 374.591796875 722.6328125 374.591796875 745.899414062 381.515625 c 128,-1,108
 769.168945312 388.440429688 769.168945312 388.440429688 782.096679688 397.799804688 c 128,-1,109
 795.022460938 407.16015625 795.022460938 407.16015625 795.022460938 417.930664062 c 256,110,111
 795.022460938 428.701171875 795.022460938 428.701171875 782.096679688 438.189453125 c 128,-1,112
 769.168945312 447.677734375 769.168945312 447.677734375 745.899414062 454.73046875 c 128,-1,113
 722.6328125 461.78125 722.6328125 461.78125 691.607421875 465.756835938 c 128,-1,114
 660.583007812 469.732421875 660.583007812 469.732421875 624.388671875 469.732421875 c 256,115,116
 588.193359375 469.732421875 588.193359375 469.732421875 556.73828125 465.756835938 c 128,-1,117
 525.282226562 461.78125 525.282226562 461.78125 502.014648438 454.73046875 c 128,-1,118
 478.74609375 447.677734375 478.74609375 447.677734375 465.819335938 438.189453125 c 128,-1,119
 452.892578125 428.701171875 452.892578125 428.701171875 452.892578125 417.930664062 c 256,100,101
343.4453125 603.916015625 m 4,120,121
 343.4453125 621.09765625 343.4453125 621.09765625 364.990234375 636.227539062 c 132,-1,122
 386.534179688 651.359375 386.534179688 651.359375 424.453125 662.513671875 c 132,-1,123
 462.373046875 673.668945312 462.373046875 673.668945312 513.649414062 680.079101562 c 132,-1,124
 564.92578125 686.490234375 564.92578125 686.490234375 624.388671875 686.490234375 c 260,125,126
 683.8515625 686.490234375 683.8515625 686.490234375 735.127929688 680.079101562 c 132,-1,127
 786.404296875 673.668945312 786.404296875 673.668945312 824.32421875 662.513671875 c 132,-1,128
 862.2421875 651.359375 862.2421875 651.359375 883.787109375 636.227539062 c 132,-1,129
 905.331054688 621.09765625 905.331054688 621.09765625 905.331054688 603.916015625 c 4,130,131
 905.331054688 586.991210938 905.331054688 586.991210938 883.787109375 571.989257812 c 132,-1,132
 862.2421875 556.987304688 862.2421875 556.987304688 824.32421875 545.83203125 c 132,-1,133
 786.404296875 534.676757812 786.404296875 534.676757812 735.127929688 528.137695312 c 132,-1,134
 683.8515625 521.59765625 683.8515625 521.59765625 624.388671875 521.59765625 c 260,135,136
 564.92578125 521.59765625 564.92578125 521.59765625 513.649414062 528.137695312 c 132,-1,137
 462.373046875 534.676757812 462.373046875 534.676757812 424.453125 545.83203125 c 132,-1,138
 386.534179688 556.987304688 386.534179688 556.987304688 364.990234375 571.989257812 c 132,-1,139
 343.4453125 586.991210938 343.4453125 586.991210938 343.4453125 603.916015625 c 4,120,121
452.892578125 603.66015625 m 260,140,141
 452.892578125 592.889648438 452.892578125 592.889648438 465.819335938 583.529296875 c 132,-1,142
 478.74609375 574.169921875 478.74609375 574.169921875 502.014648438 567.244140625 c 132,-1,143
 525.282226562 560.3203125 525.282226562 560.3203125 556.73828125 556.345703125 c 132,-1,144
 588.193359375 552.37109375 588.193359375 552.37109375 624.388671875 552.37109375 c 260,145,146
 660.583007812 552.37109375 660.583007812 552.37109375 691.607421875 556.345703125 c 132,-1,147
 722.6328125 560.3203125 722.6328125 560.3203125 745.899414062 567.244140625 c 132,-1,148
 769.168945312 574.169921875 769.168945312 574.169921875 782.096679688 583.529296875 c 132,-1,149
 795.022460938 592.889648438 795.022460938 592.889648438 795.022460938 603.66015625 c 260,150,151
 795.022460938 614.430664062 795.022460938 614.430664062 782.096679688 623.918945312 c 132,-1,152
 769.168945312 633.407226562 769.168945312 633.407226562 745.899414062 640.459960938 c 132,-1,153
 722.6328125 647.51171875 722.6328125 647.51171875 691.607421875 651.486328125 c 132,-1,154
 660.583007812 655.461914062 660.583007812 655.461914062 624.388671875 655.461914062 c 260,155,156
 588.193359375 655.461914062 588.193359375 655.461914062 556.73828125 651.486328125 c 132,-1,157
 525.282226562 647.51171875 525.282226562 647.51171875 502.014648438 640.459960938 c 132,-1,158
 478.74609375 633.407226562 478.74609375 633.407226562 465.819335938 623.918945312 c 132,-1,159
 452.892578125 614.430664062 452.892578125 614.430664062 452.892578125 603.66015625 c 260,140,141
EndSplineSet
EndChar

StartChar: uni0081
Encoding: 129 129 100
Width: 1209
VWidth: 2000
Flags: W
LayerCount: 2
Fore
SplineSet
343.4453125 45.0244140625 m 0,0,1
 343.4453125 62.2060546875 343.4453125 62.2060546875 364.990234375 77.3359375 c 128,-1,2
 386.534179688 92.4658203125 386.534179688 92.4658203125 424.453125 103.622070312 c 128,-1,3
 462.373046875 114.776367188 462.373046875 114.776367188 513.649414062 121.1875 c 128,-1,4
 564.92578125 127.59765625 564.92578125 127.59765625 624.388671875 127.59765625 c 256,5,6
 683.8515625 127.59765625 683.8515625 127.59765625 735.127929688 121.1875 c 128,-1,7
 786.404296875 114.776367188 786.404296875 114.776367188 824.32421875 103.622070312 c 128,-1,8
 862.2421875 92.4658203125 862.2421875 92.4658203125 883.787109375 77.3359375 c 128,-1,9
 905.331054688 62.2060546875 905.331054688 62.2060546875 905.331054688 45.0244140625 c 0,10,11
 905.331054688 28.0986328125 905.331054688 28.0986328125 883.787109375 13.095703125 c 128,-1,12
 862.2421875 -1.9052734375 862.2421875 -1.9052734375 824.32421875 -13.060546875 c 128,-1,13
 786.404296875 -24.21484375 786.404296875 -24.21484375 735.127929688 -30.7548828125 c 128,-1,14
 683.8515625 -37.2939453125 683.8515625 -37.2939453125 624.388671875 -37.2939453125 c 256,15,16
 564.92578125 -37.2939453125 564.92578125 -37.2939453125 513.649414062 -30.7548828125 c 128,-1,17
 462.373046875 -24.21484375 462.373046875 -24.21484375 424.453125 -13.060546875 c 128,-1,18
 386.534179688 -1.9052734375 386.534179688 -1.9052734375 364.990234375 13.095703125 c 128,-1,19
 343.4453125 28.0986328125 343.4453125 28.0986328125 343.4453125 45.0244140625 c 0,0,1
343.4453125 230.75390625 m 0,20,21
 343.4453125 247.935546875 343.4453125 247.935546875 364.990234375 263.065429688 c 128,-1,22
 386.534179688 278.196289062 386.534179688 278.196289062 424.453125 289.3515625 c 128,-1,23
 462.373046875 300.506835938 462.373046875 300.506835938 513.649414062 306.916992188 c 128,-1,24
 564.92578125 313.327148438 564.92578125 313.327148438 624.388671875 313.327148438 c 256,25,26
 683.8515625 313.327148438 683.8515625 313.327148438 735.127929688 306.916992188 c 128,-1,27
 786.404296875 300.506835938 786.404296875 300.506835938 824.32421875 289.3515625 c 128,-1,28
 862.2421875 278.196289062 862.2421875 278.196289062 883.787109375 263.065429688 c 128,-1,29
 905.331054688 247.935546875 905.331054688 247.935546875 905.331054688 230.75390625 c 0,30,31
 905.331054688 213.828125 905.331054688 213.828125 883.787109375 198.826171875 c 128,-1,32
 862.2421875 183.82421875 862.2421875 183.82421875 824.32421875 172.668945312 c 128,-1,33
 786.404296875 161.513671875 786.404296875 161.513671875 735.127929688 154.974609375 c 128,-1,34
 683.8515625 148.435546875 683.8515625 148.435546875 624.388671875 148.435546875 c 256,35,36
 564.92578125 148.435546875 564.92578125 148.435546875 513.649414062 154.974609375 c 128,-1,37
 462.373046875 161.513671875 462.373046875 161.513671875 424.453125 172.668945312 c 128,-1,38
 386.534179688 183.82421875 386.534179688 183.82421875 364.990234375 198.826171875 c 128,-1,39
 343.4453125 213.828125 343.4453125 213.828125 343.4453125 230.75390625 c 0,20,21
452.892578125 230.498046875 m 256,40,41
 452.892578125 219.7265625 452.892578125 219.7265625 465.819335938 210.3671875 c 128,-1,42
 478.74609375 201.006835938 478.74609375 201.006835938 502.014648438 194.08203125 c 128,-1,43
 525.282226562 187.158203125 525.282226562 187.158203125 556.73828125 183.18359375 c 128,-1,44
 588.193359375 179.208007812 588.193359375 179.208007812 624.388671875 179.208007812 c 256,45,46
 660.583007812 179.208007812 660.583007812 179.208007812 691.607421875 183.18359375 c 128,-1,47
 722.6328125 187.158203125 722.6328125 187.158203125 745.899414062 194.08203125 c 128,-1,48
 769.168945312 201.006835938 769.168945312 201.006835938 782.096679688 210.3671875 c 128,-1,49
 795.022460938 219.7265625 795.022460938 219.7265625 795.022460938 230.498046875 c 256,50,51
 795.022460938 241.266601562 795.022460938 241.266601562 782.096679688 250.755859375 c 128,-1,52
 769.168945312 260.245117188 769.168945312 260.245117188 745.899414062 267.296875 c 128,-1,53
 722.6328125 274.348632812 722.6328125 274.348632812 691.607421875 278.323242188 c 128,-1,54
 660.583007812 282.297851562 660.583007812 282.297851562 624.388671875 282.297851562 c 256,55,56
 588.193359375 282.297851562 588.193359375 282.297851562 556.73828125 278.323242188 c 128,-1,57
 525.282226562 274.348632812 525.282226562 274.348632812 502.014648438 267.296875 c 128,-1,58
 478.74609375 260.245117188 478.74609375 260.245117188 465.819335938 250.755859375 c 128,-1,59
 452.892578125 241.266601562 452.892578125 241.266601562 452.892578125 230.498046875 c 256,40,41
343.4453125 418.186523438 m 0,60,61
 343.4453125 435.368164062 343.4453125 435.368164062 364.990234375 450.499023438 c 128,-1,62
 386.534179688 465.62890625 386.534179688 465.62890625 424.453125 476.784179688 c 128,-1,63
 462.373046875 487.939453125 462.373046875 487.939453125 513.649414062 494.350585938 c 128,-1,64
 564.92578125 500.76171875 564.92578125 500.76171875 624.388671875 500.76171875 c 256,65,66
 683.8515625 500.76171875 683.8515625 500.76171875 735.127929688 494.350585938 c 128,-1,67
 786.404296875 487.939453125 786.404296875 487.939453125 824.32421875 476.784179688 c 128,-1,68
 862.2421875 465.62890625 862.2421875 465.62890625 883.787109375 450.499023438 c 128,-1,69
 905.331054688 435.368164062 905.331054688 435.368164062 905.331054688 418.186523438 c 0,70,71
 905.331054688 401.26171875 905.331054688 401.26171875 883.787109375 386.259765625 c 128,-1,72
 862.2421875 371.258789062 862.2421875 371.258789062 824.32421875 360.102539062 c 128,-1,73
 786.404296875 348.947265625 786.404296875 348.947265625 735.127929688 342.408203125 c 128,-1,74
 683.8515625 335.868164062 683.8515625 335.868164062 624.388671875 335.868164062 c 256,75,76
 564.92578125 335.868164062 564.92578125 335.868164062 513.649414062 342.408203125 c 128,-1,77
 462.373046875 348.947265625 462.373046875 348.947265625 424.453125 360.102539062 c 128,-1,78
 386.534179688 371.258789062 386.534179688 371.258789062 364.990234375 386.259765625 c 128,-1,79
 343.4453125 401.26171875 343.4453125 401.26171875 343.4453125 418.186523438 c 0,60,61
452.892578125 417.930664062 m 256,80,81
 452.892578125 407.16015625 452.892578125 407.16015625 465.819335938 397.799804688 c 128,-1,82
 478.74609375 388.440429688 478.74609375 388.440429688 502.014648438 381.515625 c 128,-1,83
 525.282226562 374.591796875 525.282226562 374.591796875 556.73828125 370.6171875 c 128,-1,84
 588.193359375 366.641601562 588.193359375 366.641601562 624.388671875 366.641601562 c 256,85,86
 660.583007812 366.641601562 660.583007812 366.641601562 691.607421875 370.6171875 c 128,-1,87
 722.6328125 374.591796875 722.6328125 374.591796875 745.899414062 381.515625 c 128,-1,88
 769.168945312 388.440429688 769.168945312 388.440429688 782.096679688 397.799804688 c 128,-1,89
 795.022460938 407.16015625 795.022460938 407.16015625 795.022460938 417.930664062 c 256,90,91
 795.022460938 428.701171875 795.022460938 428.701171875 782.096679688 438.189453125 c 128,-1,92
 769.168945312 447.677734375 769.168945312 447.677734375 745.899414062 454.73046875 c 128,-1,93
 722.6328125 461.78125 722.6328125 461.78125 691.607421875 465.756835938 c 128,-1,94
 660.583007812 469.732421875 660.583007812 469.732421875 624.388671875 469.732421875 c 256,95,96
 588.193359375 469.732421875 588.193359375 469.732421875 556.73828125 465.756835938 c 128,-1,97
 525.282226562 461.78125 525.282226562 461.78125 502.014648438 454.73046875 c 128,-1,98
 478.74609375 447.677734375 478.74609375 447.677734375 465.819335938 438.189453125 c 128,-1,99
 452.892578125 428.701171875 452.892578125 428.701171875 452.892578125 417.930664062 c 256,80,81
343.4453125 603.916015625 m 0,100,101
 343.4453125 621.09765625 343.4453125 621.09765625 364.990234375 636.227539062 c 128,-1,102
 386.534179688 651.359375 386.534179688 651.359375 424.453125 662.513671875 c 128,-1,103
 462.373046875 673.668945312 462.373046875 673.668945312 513.649414062 680.079101562 c 128,-1,104
 564.92578125 686.490234375 564.92578125 686.490234375 624.388671875 686.490234375 c 256,105,106
 683.8515625 686.490234375 683.8515625 686.490234375 735.127929688 680.079101562 c 128,-1,107
 786.404296875 673.668945312 786.404296875 673.668945312 824.32421875 662.513671875 c 128,-1,108
 862.2421875 651.359375 862.2421875 651.359375 883.787109375 636.227539062 c 128,-1,109
 905.331054688 621.09765625 905.331054688 621.09765625 905.331054688 603.916015625 c 0,110,111
 905.331054688 586.991210938 905.331054688 586.991210938 883.787109375 571.989257812 c 128,-1,112
 862.2421875 556.987304688 862.2421875 556.987304688 824.32421875 545.83203125 c 128,-1,113
 786.404296875 534.676757812 786.404296875 534.676757812 735.127929688 528.137695312 c 128,-1,114
 683.8515625 521.59765625 683.8515625 521.59765625 624.388671875 521.59765625 c 256,115,116
 564.92578125 521.59765625 564.92578125 521.59765625 513.649414062 528.137695312 c 128,-1,117
 462.373046875 534.676757812 462.373046875 534.676757812 424.453125 545.83203125 c 128,-1,118
 386.534179688 556.987304688 386.534179688 556.987304688 364.990234375 571.989257812 c 128,-1,119
 343.4453125 586.991210938 343.4453125 586.991210938 343.4453125 603.916015625 c 0,100,101
452.892578125 603.66015625 m 256,120,121
 452.892578125 592.889648438 452.892578125 592.889648438 465.819335938 583.529296875 c 128,-1,122
 478.74609375 574.169921875 478.74609375 574.169921875 502.014648438 567.244140625 c 128,-1,123
 525.282226562 560.3203125 525.282226562 560.3203125 556.73828125 556.345703125 c 128,-1,124
 588.193359375 552.37109375 588.193359375 552.37109375 624.388671875 552.37109375 c 256,125,126
 660.583007812 552.37109375 660.583007812 552.37109375 691.607421875 556.345703125 c 128,-1,127
 722.6328125 560.3203125 722.6328125 560.3203125 745.899414062 567.244140625 c 128,-1,128
 769.168945312 574.169921875 769.168945312 574.169921875 782.096679688 583.529296875 c 128,-1,129
 795.022460938 592.889648438 795.022460938 592.889648438 795.022460938 603.66015625 c 256,130,131
 795.022460938 614.430664062 795.022460938 614.430664062 782.096679688 623.918945312 c 128,-1,132
 769.168945312 633.407226562 769.168945312 633.407226562 745.899414062 640.459960938 c 128,-1,133
 722.6328125 647.51171875 722.6328125 647.51171875 691.607421875 651.486328125 c 128,-1,134
 660.583007812 655.461914062 660.583007812 655.461914062 624.388671875 655.461914062 c 256,135,136
 588.193359375 655.461914062 588.193359375 655.461914062 556.73828125 651.486328125 c 128,-1,137
 525.282226562 647.51171875 525.282226562 647.51171875 502.014648438 640.459960938 c 128,-1,138
 478.74609375 633.407226562 478.74609375 633.407226562 465.819335938 623.918945312 c 128,-1,139
 452.892578125 614.430664062 452.892578125 614.430664062 452.892578125 603.66015625 c 256,120,121
EndSplineSet
EndChar

StartChar: uni0082
Encoding: 130 130 101
Width: 1209
VWidth: 2000
Flags: W
LayerCount: 2
Fore
SplineSet
343.4453125 45.0244140625 m 0,0,1
 343.4453125 62.2060546875 343.4453125 62.2060546875 364.990234375 77.3359375 c 128,-1,2
 386.534179688 92.4658203125 386.534179688 92.4658203125 424.453125 103.622070312 c 128,-1,3
 462.373046875 114.776367188 462.373046875 114.776367188 513.649414062 121.1875 c 128,-1,4
 564.92578125 127.59765625 564.92578125 127.59765625 624.388671875 127.59765625 c 256,5,6
 683.8515625 127.59765625 683.8515625 127.59765625 735.127929688 121.1875 c 128,-1,7
 786.404296875 114.776367188 786.404296875 114.776367188 824.32421875 103.622070312 c 128,-1,8
 862.2421875 92.4658203125 862.2421875 92.4658203125 883.787109375 77.3359375 c 128,-1,9
 905.331054688 62.2060546875 905.331054688 62.2060546875 905.331054688 45.0244140625 c 0,10,11
 905.331054688 28.0986328125 905.331054688 28.0986328125 883.787109375 13.095703125 c 128,-1,12
 862.2421875 -1.9052734375 862.2421875 -1.9052734375 824.32421875 -13.060546875 c 128,-1,13
 786.404296875 -24.21484375 786.404296875 -24.21484375 735.127929688 -30.7548828125 c 128,-1,14
 683.8515625 -37.2939453125 683.8515625 -37.2939453125 624.388671875 -37.2939453125 c 256,15,16
 564.92578125 -37.2939453125 564.92578125 -37.2939453125 513.649414062 -30.7548828125 c 128,-1,17
 462.373046875 -24.21484375 462.373046875 -24.21484375 424.453125 -13.060546875 c 128,-1,18
 386.534179688 -1.9052734375 386.534179688 -1.9052734375 364.990234375 13.095703125 c 128,-1,19
 343.4453125 28.0986328125 343.4453125 28.0986328125 343.4453125 45.0244140625 c 0,0,1
452.892578125 44.767578125 m 256,20,21
 452.892578125 33.9970703125 452.892578125 33.9970703125 465.819335938 24.63671875 c 128,-1,22
 478.74609375 15.2763671875 478.74609375 15.2763671875 502.014648438 8.3525390625 c 128,-1,23
 525.282226562 1.4287109375 525.282226562 1.4287109375 556.73828125 -2.5458984375 c 128,-1,24
 588.193359375 -6.5205078125 588.193359375 -6.5205078125 624.388671875 -6.5205078125 c 256,25,26
 660.583007812 -6.5205078125 660.583007812 -6.5205078125 691.607421875 -2.5458984375 c 128,-1,27
 722.6328125 1.4287109375 722.6328125 1.4287109375 745.899414062 8.3525390625 c 128,-1,28
 769.168945312 15.2763671875 769.168945312 15.2763671875 782.096679688 24.63671875 c 128,-1,29
 795.022460938 33.9970703125 795.022460938 33.9970703125 795.022460938 44.767578125 c 256,30,31
 795.022460938 55.5390625 795.022460938 55.5390625 782.096679688 65.0263671875 c 128,-1,32
 769.168945312 74.5146484375 769.168945312 74.5146484375 745.899414062 81.5673828125 c 128,-1,33
 722.6328125 88.6201171875 722.6328125 88.6201171875 691.607421875 92.59375 c 128,-1,34
 660.583007812 96.5693359375 660.583007812 96.5693359375 624.388671875 96.5693359375 c 256,35,36
 588.193359375 96.5693359375 588.193359375 96.5693359375 556.73828125 92.59375 c 128,-1,37
 525.282226562 88.6201171875 525.282226562 88.6201171875 502.014648438 81.5673828125 c 128,-1,38
 478.74609375 74.5146484375 478.74609375 74.5146484375 465.819335938 65.0263671875 c 128,-1,39
 452.892578125 55.5390625 452.892578125 55.5390625 452.892578125 44.767578125 c 256,20,21
343.4453125 230.75390625 m 0,40,41
 343.4453125 247.935546875 343.4453125 247.935546875 364.990234375 263.065429688 c 128,-1,42
 386.534179688 278.196289062 386.534179688 278.196289062 424.453125 289.3515625 c 128,-1,43
 462.373046875 300.506835938 462.373046875 300.506835938 513.649414062 306.916992188 c 128,-1,44
 564.92578125 313.327148438 564.92578125 313.327148438 624.388671875 313.327148438 c 256,45,46
 683.8515625 313.327148438 683.8515625 313.327148438 735.127929688 306.916992188 c 128,-1,47
 786.404296875 300.506835938 786.404296875 300.506835938 824.32421875 289.3515625 c 128,-1,48
 862.2421875 278.196289062 862.2421875 278.196289062 883.787109375 263.065429688 c 128,-1,49
 905.331054688 247.935546875 905.331054688 247.935546875 905.331054688 230.75390625 c 0,50,51
 905.331054688 213.828125 905.331054688 213.828125 883.787109375 198.826171875 c 128,-1,52
 862.2421875 183.82421875 862.2421875 183.82421875 824.32421875 172.668945312 c 128,-1,53
 786.404296875 161.513671875 786.404296875 161.513671875 735.127929688 154.974609375 c 128,-1,54
 683.8515625 148.435546875 683.8515625 148.435546875 624.388671875 148.435546875 c 256,55,56
 564.92578125 148.435546875 564.92578125 148.435546875 513.649414062 154.974609375 c 128,-1,57
 462.373046875 161.513671875 462.373046875 161.513671875 424.453125 172.668945312 c 128,-1,58
 386.534179688 183.82421875 386.534179688 183.82421875 364.990234375 198.826171875 c 128,-1,59
 343.4453125 213.828125 343.4453125 213.828125 343.4453125 230.75390625 c 0,40,41
343.4453125 418.186523438 m 0,60,61
 343.4453125 435.368164062 343.4453125 435.368164062 364.990234375 450.499023438 c 128,-1,62
 386.534179688 465.62890625 386.534179688 465.62890625 424.453125 476.784179688 c 128,-1,63
 462.373046875 487.939453125 462.373046875 487.939453125 513.649414062 494.350585938 c 128,-1,64
 564.92578125 500.76171875 564.92578125 500.76171875 624.388671875 500.76171875 c 256,65,66
 683.8515625 500.76171875 683.8515625 500.76171875 735.127929688 494.350585938 c 128,-1,67
 786.404296875 487.939453125 786.404296875 487.939453125 824.32421875 476.784179688 c 128,-1,68
 862.2421875 465.62890625 862.2421875 465.62890625 883.787109375 450.499023438 c 128,-1,69
 905.331054688 435.368164062 905.331054688 435.368164062 905.331054688 418.186523438 c 0,70,71
 905.331054688 401.26171875 905.331054688 401.26171875 883.787109375 386.259765625 c 128,-1,72
 862.2421875 371.258789062 862.2421875 371.258789062 824.32421875 360.102539062 c 128,-1,73
 786.404296875 348.947265625 786.404296875 348.947265625 735.127929688 342.408203125 c 128,-1,74
 683.8515625 335.868164062 683.8515625 335.868164062 624.388671875 335.868164062 c 256,75,76
 564.92578125 335.868164062 564.92578125 335.868164062 513.649414062 342.408203125 c 128,-1,77
 462.373046875 348.947265625 462.373046875 348.947265625 424.453125 360.102539062 c 128,-1,78
 386.534179688 371.258789062 386.534179688 371.258789062 364.990234375 386.259765625 c 128,-1,79
 343.4453125 401.26171875 343.4453125 401.26171875 343.4453125 418.186523438 c 0,60,61
452.892578125 417.930664062 m 256,80,81
 452.892578125 407.16015625 452.892578125 407.16015625 465.819335938 397.799804688 c 128,-1,82
 478.74609375 388.440429688 478.74609375 388.440429688 502.014648438 381.515625 c 128,-1,83
 525.282226562 374.591796875 525.282226562 374.591796875 556.73828125 370.6171875 c 128,-1,84
 588.193359375 366.641601562 588.193359375 366.641601562 624.388671875 366.641601562 c 256,85,86
 660.583007812 366.641601562 660.583007812 366.641601562 691.607421875 370.6171875 c 128,-1,87
 722.6328125 374.591796875 722.6328125 374.591796875 745.899414062 381.515625 c 128,-1,88
 769.168945312 388.440429688 769.168945312 388.440429688 782.096679688 397.799804688 c 128,-1,89
 795.022460938 407.16015625 795.022460938 407.16015625 795.022460938 417.930664062 c 256,90,91
 795.022460938 428.701171875 795.022460938 428.701171875 782.096679688 438.189453125 c 128,-1,92
 769.168945312 447.677734375 769.168945312 447.677734375 745.899414062 454.73046875 c 128,-1,93
 722.6328125 461.78125 722.6328125 461.78125 691.607421875 465.756835938 c 128,-1,94
 660.583007812 469.732421875 660.583007812 469.732421875 624.388671875 469.732421875 c 256,95,96
 588.193359375 469.732421875 588.193359375 469.732421875 556.73828125 465.756835938 c 128,-1,97
 525.282226562 461.78125 525.282226562 461.78125 502.014648438 454.73046875 c 128,-1,98
 478.74609375 447.677734375 478.74609375 447.677734375 465.819335938 438.189453125 c 128,-1,99
 452.892578125 428.701171875 452.892578125 428.701171875 452.892578125 417.930664062 c 256,80,81
343.4453125 603.916015625 m 0,100,101
 343.4453125 621.09765625 343.4453125 621.09765625 364.990234375 636.227539062 c 128,-1,102
 386.534179688 651.359375 386.534179688 651.359375 424.453125 662.513671875 c 128,-1,103
 462.373046875 673.668945312 462.373046875 673.668945312 513.649414062 680.079101562 c 128,-1,104
 564.92578125 686.490234375 564.92578125 686.490234375 624.388671875 686.490234375 c 256,105,106
 683.8515625 686.490234375 683.8515625 686.490234375 735.127929688 680.079101562 c 128,-1,107
 786.404296875 673.668945312 786.404296875 673.668945312 824.32421875 662.513671875 c 128,-1,108
 862.2421875 651.359375 862.2421875 651.359375 883.787109375 636.227539062 c 128,-1,109
 905.331054688 621.09765625 905.331054688 621.09765625 905.331054688 603.916015625 c 0,110,111
 905.331054688 586.991210938 905.331054688 586.991210938 883.787109375 571.989257812 c 128,-1,112
 862.2421875 556.987304688 862.2421875 556.987304688 824.32421875 545.83203125 c 128,-1,113
 786.404296875 534.676757812 786.404296875 534.676757812 735.127929688 528.137695312 c 128,-1,114
 683.8515625 521.59765625 683.8515625 521.59765625 624.388671875 521.59765625 c 256,115,116
 564.92578125 521.59765625 564.92578125 521.59765625 513.649414062 528.137695312 c 128,-1,117
 462.373046875 534.676757812 462.373046875 534.676757812 424.453125 545.83203125 c 128,-1,118
 386.534179688 556.987304688 386.534179688 556.987304688 364.990234375 571.989257812 c 128,-1,119
 343.4453125 586.991210938 343.4453125 586.991210938 343.4453125 603.916015625 c 0,100,101
452.892578125 603.66015625 m 256,120,121
 452.892578125 592.889648438 452.892578125 592.889648438 465.819335938 583.529296875 c 128,-1,122
 478.74609375 574.169921875 478.74609375 574.169921875 502.014648438 567.244140625 c 128,-1,123
 525.282226562 560.3203125 525.282226562 560.3203125 556.73828125 556.345703125 c 128,-1,124
 588.193359375 552.37109375 588.193359375 552.37109375 624.388671875 552.37109375 c 256,125,126
 660.583007812 552.37109375 660.583007812 552.37109375 691.607421875 556.345703125 c 128,-1,127
 722.6328125 560.3203125 722.6328125 560.3203125 745.899414062 567.244140625 c 128,-1,128
 769.168945312 574.169921875 769.168945312 574.169921875 782.096679688 583.529296875 c 128,-1,129
 795.022460938 592.889648438 795.022460938 592.889648438 795.022460938 603.66015625 c 256,130,131
 795.022460938 614.430664062 795.022460938 614.430664062 782.096679688 623.918945312 c 128,-1,132
 769.168945312 633.407226562 769.168945312 633.407226562 745.899414062 640.459960938 c 128,-1,133
 722.6328125 647.51171875 722.6328125 647.51171875 691.607421875 651.486328125 c 128,-1,134
 660.583007812 655.461914062 660.583007812 655.461914062 624.388671875 655.461914062 c 256,135,136
 588.193359375 655.461914062 588.193359375 655.461914062 556.73828125 651.486328125 c 128,-1,137
 525.282226562 647.51171875 525.282226562 647.51171875 502.014648438 640.459960938 c 128,-1,138
 478.74609375 633.407226562 478.74609375 633.407226562 465.819335938 623.918945312 c 128,-1,139
 452.892578125 614.430664062 452.892578125 614.430664062 452.892578125 603.66015625 c 256,120,121
EndSplineSet
EndChar

StartChar: uni0083
Encoding: 131 131 102
Width: 1209
VWidth: 2000
Flags: W
LayerCount: 2
Fore
SplineSet
343.4453125 45.0244140625 m 0,0,1
 343.4453125 62.2060546875 343.4453125 62.2060546875 364.990234375 77.3359375 c 128,-1,2
 386.534179688 92.4658203125 386.534179688 92.4658203125 424.453125 103.622070312 c 128,-1,3
 462.373046875 114.776367188 462.373046875 114.776367188 513.649414062 121.1875 c 128,-1,4
 564.92578125 127.59765625 564.92578125 127.59765625 624.388671875 127.59765625 c 256,5,6
 683.8515625 127.59765625 683.8515625 127.59765625 735.127929688 121.1875 c 128,-1,7
 786.404296875 114.776367188 786.404296875 114.776367188 824.32421875 103.622070312 c 128,-1,8
 862.2421875 92.4658203125 862.2421875 92.4658203125 883.787109375 77.3359375 c 128,-1,9
 905.331054688 62.2060546875 905.331054688 62.2060546875 905.331054688 45.0244140625 c 0,10,11
 905.331054688 28.0986328125 905.331054688 28.0986328125 883.787109375 13.095703125 c 128,-1,12
 862.2421875 -1.9052734375 862.2421875 -1.9052734375 824.32421875 -13.060546875 c 128,-1,13
 786.404296875 -24.21484375 786.404296875 -24.21484375 735.127929688 -30.7548828125 c 128,-1,14
 683.8515625 -37.2939453125 683.8515625 -37.2939453125 624.388671875 -37.2939453125 c 256,15,16
 564.92578125 -37.2939453125 564.92578125 -37.2939453125 513.649414062 -30.7548828125 c 128,-1,17
 462.373046875 -24.21484375 462.373046875 -24.21484375 424.453125 -13.060546875 c 128,-1,18
 386.534179688 -1.9052734375 386.534179688 -1.9052734375 364.990234375 13.095703125 c 128,-1,19
 343.4453125 28.0986328125 343.4453125 28.0986328125 343.4453125 45.0244140625 c 0,0,1
343.4453125 230.75390625 m 0,20,21
 343.4453125 247.935546875 343.4453125 247.935546875 364.990234375 263.065429688 c 128,-1,22
 386.534179688 278.196289062 386.534179688 278.196289062 424.453125 289.3515625 c 128,-1,23
 462.373046875 300.506835938 462.373046875 300.506835938 513.649414062 306.916992188 c 128,-1,24
 564.92578125 313.327148438 564.92578125 313.327148438 624.388671875 313.327148438 c 256,25,26
 683.8515625 313.327148438 683.8515625 313.327148438 735.127929688 306.916992188 c 128,-1,27
 786.404296875 300.506835938 786.404296875 300.506835938 824.32421875 289.3515625 c 128,-1,28
 862.2421875 278.196289062 862.2421875 278.196289062 883.787109375 263.065429688 c 128,-1,29
 905.331054688 247.935546875 905.331054688 247.935546875 905.331054688 230.75390625 c 0,30,31
 905.331054688 213.828125 905.331054688 213.828125 883.787109375 198.826171875 c 128,-1,32
 862.2421875 183.82421875 862.2421875 183.82421875 824.32421875 172.668945312 c 128,-1,33
 786.404296875 161.513671875 786.404296875 161.513671875 735.127929688 154.974609375 c 128,-1,34
 683.8515625 148.435546875 683.8515625 148.435546875 624.388671875 148.435546875 c 256,35,36
 564.92578125 148.435546875 564.92578125 148.435546875 513.649414062 154.974609375 c 128,-1,37
 462.373046875 161.513671875 462.373046875 161.513671875 424.453125 172.668945312 c 128,-1,38
 386.534179688 183.82421875 386.534179688 183.82421875 364.990234375 198.826171875 c 128,-1,39
 343.4453125 213.828125 343.4453125 213.828125 343.4453125 230.75390625 c 0,20,21
343.4453125 418.186523438 m 0,40,41
 343.4453125 435.368164062 343.4453125 435.368164062 364.990234375 450.499023438 c 128,-1,42
 386.534179688 465.62890625 386.534179688 465.62890625 424.453125 476.784179688 c 128,-1,43
 462.373046875 487.939453125 462.373046875 487.939453125 513.649414062 494.350585938 c 128,-1,44
 564.92578125 500.76171875 564.92578125 500.76171875 624.388671875 500.76171875 c 256,45,46
 683.8515625 500.76171875 683.8515625 500.76171875 735.127929688 494.350585938 c 128,-1,47
 786.404296875 487.939453125 786.404296875 487.939453125 824.32421875 476.784179688 c 128,-1,48
 862.2421875 465.62890625 862.2421875 465.62890625 883.787109375 450.499023438 c 128,-1,49
 905.331054688 435.368164062 905.331054688 435.368164062 905.331054688 418.186523438 c 0,50,51
 905.331054688 401.26171875 905.331054688 401.26171875 883.787109375 386.259765625 c 128,-1,52
 862.2421875 371.258789062 862.2421875 371.258789062 824.32421875 360.102539062 c 128,-1,53
 786.404296875 348.947265625 786.404296875 348.947265625 735.127929688 342.408203125 c 128,-1,54
 683.8515625 335.868164062 683.8515625 335.868164062 624.388671875 335.868164062 c 256,55,56
 564.92578125 335.868164062 564.92578125 335.868164062 513.649414062 342.408203125 c 128,-1,57
 462.373046875 348.947265625 462.373046875 348.947265625 424.453125 360.102539062 c 128,-1,58
 386.534179688 371.258789062 386.534179688 371.258789062 364.990234375 386.259765625 c 128,-1,59
 343.4453125 401.26171875 343.4453125 401.26171875 343.4453125 418.186523438 c 0,40,41
452.892578125 417.930664062 m 256,60,61
 452.892578125 407.16015625 452.892578125 407.16015625 465.819335938 397.799804688 c 128,-1,62
 478.74609375 388.440429688 478.74609375 388.440429688 502.014648438 381.515625 c 128,-1,63
 525.282226562 374.591796875 525.282226562 374.591796875 556.73828125 370.6171875 c 128,-1,64
 588.193359375 366.641601562 588.193359375 366.641601562 624.388671875 366.641601562 c 256,65,66
 660.583007812 366.641601562 660.583007812 366.641601562 691.607421875 370.6171875 c 128,-1,67
 722.6328125 374.591796875 722.6328125 374.591796875 745.899414062 381.515625 c 128,-1,68
 769.168945312 388.440429688 769.168945312 388.440429688 782.096679688 397.799804688 c 128,-1,69
 795.022460938 407.16015625 795.022460938 407.16015625 795.022460938 417.930664062 c 256,70,71
 795.022460938 428.701171875 795.022460938 428.701171875 782.096679688 438.189453125 c 128,-1,72
 769.168945312 447.677734375 769.168945312 447.677734375 745.899414062 454.73046875 c 128,-1,73
 722.6328125 461.78125 722.6328125 461.78125 691.607421875 465.756835938 c 128,-1,74
 660.583007812 469.732421875 660.583007812 469.732421875 624.388671875 469.732421875 c 256,75,76
 588.193359375 469.732421875 588.193359375 469.732421875 556.73828125 465.756835938 c 128,-1,77
 525.282226562 461.78125 525.282226562 461.78125 502.014648438 454.73046875 c 128,-1,78
 478.74609375 447.677734375 478.74609375 447.677734375 465.819335938 438.189453125 c 128,-1,79
 452.892578125 428.701171875 452.892578125 428.701171875 452.892578125 417.930664062 c 256,60,61
343.4453125 603.916015625 m 0,80,81
 343.4453125 621.09765625 343.4453125 621.09765625 364.990234375 636.227539062 c 128,-1,82
 386.534179688 651.359375 386.534179688 651.359375 424.453125 662.513671875 c 128,-1,83
 462.373046875 673.668945312 462.373046875 673.668945312 513.649414062 680.079101562 c 128,-1,84
 564.92578125 686.490234375 564.92578125 686.490234375 624.388671875 686.490234375 c 256,85,86
 683.8515625 686.490234375 683.8515625 686.490234375 735.127929688 680.079101562 c 128,-1,87
 786.404296875 673.668945312 786.404296875 673.668945312 824.32421875 662.513671875 c 128,-1,88
 862.2421875 651.359375 862.2421875 651.359375 883.787109375 636.227539062 c 128,-1,89
 905.331054688 621.09765625 905.331054688 621.09765625 905.331054688 603.916015625 c 0,90,91
 905.331054688 586.991210938 905.331054688 586.991210938 883.787109375 571.989257812 c 128,-1,92
 862.2421875 556.987304688 862.2421875 556.987304688 824.32421875 545.83203125 c 128,-1,93
 786.404296875 534.676757812 786.404296875 534.676757812 735.127929688 528.137695312 c 128,-1,94
 683.8515625 521.59765625 683.8515625 521.59765625 624.388671875 521.59765625 c 256,95,96
 564.92578125 521.59765625 564.92578125 521.59765625 513.649414062 528.137695312 c 128,-1,97
 462.373046875 534.676757812 462.373046875 534.676757812 424.453125 545.83203125 c 128,-1,98
 386.534179688 556.987304688 386.534179688 556.987304688 364.990234375 571.989257812 c 128,-1,99
 343.4453125 586.991210938 343.4453125 586.991210938 343.4453125 603.916015625 c 0,80,81
452.892578125 603.66015625 m 256,100,101
 452.892578125 592.889648438 452.892578125 592.889648438 465.819335938 583.529296875 c 128,-1,102
 478.74609375 574.169921875 478.74609375 574.169921875 502.014648438 567.244140625 c 128,-1,103
 525.282226562 560.3203125 525.282226562 560.3203125 556.73828125 556.345703125 c 128,-1,104
 588.193359375 552.37109375 588.193359375 552.37109375 624.388671875 552.37109375 c 256,105,106
 660.583007812 552.37109375 660.583007812 552.37109375 691.607421875 556.345703125 c 128,-1,107
 722.6328125 560.3203125 722.6328125 560.3203125 745.899414062 567.244140625 c 128,-1,108
 769.168945312 574.169921875 769.168945312 574.169921875 782.096679688 583.529296875 c 128,-1,109
 795.022460938 592.889648438 795.022460938 592.889648438 795.022460938 603.66015625 c 256,110,111
 795.022460938 614.430664062 795.022460938 614.430664062 782.096679688 623.918945312 c 128,-1,112
 769.168945312 633.407226562 769.168945312 633.407226562 745.899414062 640.459960938 c 128,-1,113
 722.6328125 647.51171875 722.6328125 647.51171875 691.607421875 651.486328125 c 128,-1,114
 660.583007812 655.461914062 660.583007812 655.461914062 624.388671875 655.461914062 c 256,115,116
 588.193359375 655.461914062 588.193359375 655.461914062 556.73828125 651.486328125 c 128,-1,117
 525.282226562 647.51171875 525.282226562 647.51171875 502.014648438 640.459960938 c 128,-1,118
 478.74609375 633.407226562 478.74609375 633.407226562 465.819335938 623.918945312 c 128,-1,119
 452.892578125 614.430664062 452.892578125 614.430664062 452.892578125 603.66015625 c 256,100,101
EndSplineSet
EndChar

StartChar: uni0084
Encoding: 132 132 103
Width: 1209
VWidth: 2000
Flags: W
LayerCount: 2
Fore
SplineSet
343.4453125 45.0244140625 m 0,0,1
 343.4453125 62.2060546875 343.4453125 62.2060546875 364.990234375 77.3359375 c 128,-1,2
 386.534179688 92.4658203125 386.534179688 92.4658203125 424.453125 103.622070312 c 128,-1,3
 462.373046875 114.776367188 462.373046875 114.776367188 513.649414062 121.1875 c 128,-1,4
 564.92578125 127.59765625 564.92578125 127.59765625 624.388671875 127.59765625 c 256,5,6
 683.8515625 127.59765625 683.8515625 127.59765625 735.127929688 121.1875 c 128,-1,7
 786.404296875 114.776367188 786.404296875 114.776367188 824.32421875 103.622070312 c 128,-1,8
 862.2421875 92.4658203125 862.2421875 92.4658203125 883.787109375 77.3359375 c 128,-1,9
 905.331054688 62.2060546875 905.331054688 62.2060546875 905.331054688 45.0244140625 c 0,10,11
 905.331054688 28.0986328125 905.331054688 28.0986328125 883.787109375 13.095703125 c 128,-1,12
 862.2421875 -1.9052734375 862.2421875 -1.9052734375 824.32421875 -13.060546875 c 128,-1,13
 786.404296875 -24.21484375 786.404296875 -24.21484375 735.127929688 -30.7548828125 c 128,-1,14
 683.8515625 -37.2939453125 683.8515625 -37.2939453125 624.388671875 -37.2939453125 c 256,15,16
 564.92578125 -37.2939453125 564.92578125 -37.2939453125 513.649414062 -30.7548828125 c 128,-1,17
 462.373046875 -24.21484375 462.373046875 -24.21484375 424.453125 -13.060546875 c 128,-1,18
 386.534179688 -1.9052734375 386.534179688 -1.9052734375 364.990234375 13.095703125 c 128,-1,19
 343.4453125 28.0986328125 343.4453125 28.0986328125 343.4453125 45.0244140625 c 0,0,1
452.892578125 44.767578125 m 256,20,21
 452.892578125 33.9970703125 452.892578125 33.9970703125 465.819335938 24.63671875 c 128,-1,22
 478.74609375 15.2763671875 478.74609375 15.2763671875 502.014648438 8.3525390625 c 128,-1,23
 525.282226562 1.4287109375 525.282226562 1.4287109375 556.73828125 -2.5458984375 c 128,-1,24
 588.193359375 -6.5205078125 588.193359375 -6.5205078125 624.388671875 -6.5205078125 c 256,25,26
 660.583007812 -6.5205078125 660.583007812 -6.5205078125 691.607421875 -2.5458984375 c 128,-1,27
 722.6328125 1.4287109375 722.6328125 1.4287109375 745.899414062 8.3525390625 c 128,-1,28
 769.168945312 15.2763671875 769.168945312 15.2763671875 782.096679688 24.63671875 c 128,-1,29
 795.022460938 33.9970703125 795.022460938 33.9970703125 795.022460938 44.767578125 c 256,30,31
 795.022460938 55.5390625 795.022460938 55.5390625 782.096679688 65.0263671875 c 128,-1,32
 769.168945312 74.5146484375 769.168945312 74.5146484375 745.899414062 81.5673828125 c 128,-1,33
 722.6328125 88.6201171875 722.6328125 88.6201171875 691.607421875 92.59375 c 128,-1,34
 660.583007812 96.5693359375 660.583007812 96.5693359375 624.388671875 96.5693359375 c 256,35,36
 588.193359375 96.5693359375 588.193359375 96.5693359375 556.73828125 92.59375 c 128,-1,37
 525.282226562 88.6201171875 525.282226562 88.6201171875 502.014648438 81.5673828125 c 128,-1,38
 478.74609375 74.5146484375 478.74609375 74.5146484375 465.819335938 65.0263671875 c 128,-1,39
 452.892578125 55.5390625 452.892578125 55.5390625 452.892578125 44.767578125 c 256,20,21
343.4453125 230.75390625 m 0,40,41
 343.4453125 247.935546875 343.4453125 247.935546875 364.990234375 263.065429688 c 128,-1,42
 386.534179688 278.196289062 386.534179688 278.196289062 424.453125 289.3515625 c 128,-1,43
 462.373046875 300.506835938 462.373046875 300.506835938 513.649414062 306.916992188 c 128,-1,44
 564.92578125 313.327148438 564.92578125 313.327148438 624.388671875 313.327148438 c 256,45,46
 683.8515625 313.327148438 683.8515625 313.327148438 735.127929688 306.916992188 c 128,-1,47
 786.404296875 300.506835938 786.404296875 300.506835938 824.32421875 289.3515625 c 128,-1,48
 862.2421875 278.196289062 862.2421875 278.196289062 883.787109375 263.065429688 c 128,-1,49
 905.331054688 247.935546875 905.331054688 247.935546875 905.331054688 230.75390625 c 0,50,51
 905.331054688 213.828125 905.331054688 213.828125 883.787109375 198.826171875 c 128,-1,52
 862.2421875 183.82421875 862.2421875 183.82421875 824.32421875 172.668945312 c 128,-1,53
 786.404296875 161.513671875 786.404296875 161.513671875 735.127929688 154.974609375 c 128,-1,54
 683.8515625 148.435546875 683.8515625 148.435546875 624.388671875 148.435546875 c 256,55,56
 564.92578125 148.435546875 564.92578125 148.435546875 513.649414062 154.974609375 c 128,-1,57
 462.373046875 161.513671875 462.373046875 161.513671875 424.453125 172.668945312 c 128,-1,58
 386.534179688 183.82421875 386.534179688 183.82421875 364.990234375 198.826171875 c 128,-1,59
 343.4453125 213.828125 343.4453125 213.828125 343.4453125 230.75390625 c 0,40,41
452.892578125 230.498046875 m 256,60,61
 452.892578125 219.7265625 452.892578125 219.7265625 465.819335938 210.3671875 c 128,-1,62
 478.74609375 201.006835938 478.74609375 201.006835938 502.014648438 194.08203125 c 128,-1,63
 525.282226562 187.158203125 525.282226562 187.158203125 556.73828125 183.18359375 c 128,-1,64
 588.193359375 179.208007812 588.193359375 179.208007812 624.388671875 179.208007812 c 256,65,66
 660.583007812 179.208007812 660.583007812 179.208007812 691.607421875 183.18359375 c 128,-1,67
 722.6328125 187.158203125 722.6328125 187.158203125 745.899414062 194.08203125 c 128,-1,68
 769.168945312 201.006835938 769.168945312 201.006835938 782.096679688 210.3671875 c 128,-1,69
 795.022460938 219.7265625 795.022460938 219.7265625 795.022460938 230.498046875 c 256,70,71
 795.022460938 241.266601562 795.022460938 241.266601562 782.096679688 250.755859375 c 128,-1,72
 769.168945312 260.245117188 769.168945312 260.245117188 745.899414062 267.296875 c 128,-1,73
 722.6328125 274.348632812 722.6328125 274.348632812 691.607421875 278.323242188 c 128,-1,74
 660.583007812 282.297851562 660.583007812 282.297851562 624.388671875 282.297851562 c 256,75,76
 588.193359375 282.297851562 588.193359375 282.297851562 556.73828125 278.323242188 c 128,-1,77
 525.282226562 274.348632812 525.282226562 274.348632812 502.014648438 267.296875 c 128,-1,78
 478.74609375 260.245117188 478.74609375 260.245117188 465.819335938 250.755859375 c 128,-1,79
 452.892578125 241.266601562 452.892578125 241.266601562 452.892578125 230.498046875 c 256,60,61
343.4453125 418.186523438 m 0,80,81
 343.4453125 435.368164062 343.4453125 435.368164062 364.990234375 450.499023438 c 128,-1,82
 386.534179688 465.62890625 386.534179688 465.62890625 424.453125 476.784179688 c 128,-1,83
 462.373046875 487.939453125 462.373046875 487.939453125 513.649414062 494.350585938 c 128,-1,84
 564.92578125 500.76171875 564.92578125 500.76171875 624.388671875 500.76171875 c 256,85,86
 683.8515625 500.76171875 683.8515625 500.76171875 735.127929688 494.350585938 c 128,-1,87
 786.404296875 487.939453125 786.404296875 487.939453125 824.32421875 476.784179688 c 128,-1,88
 862.2421875 465.62890625 862.2421875 465.62890625 883.787109375 450.499023438 c 128,-1,89
 905.331054688 435.368164062 905.331054688 435.368164062 905.331054688 418.186523438 c 0,90,91
 905.331054688 401.26171875 905.331054688 401.26171875 883.787109375 386.259765625 c 128,-1,92
 862.2421875 371.258789062 862.2421875 371.258789062 824.32421875 360.102539062 c 128,-1,93
 786.404296875 348.947265625 786.404296875 348.947265625 735.127929688 342.408203125 c 128,-1,94
 683.8515625 335.868164062 683.8515625 335.868164062 624.388671875 335.868164062 c 256,95,96
 564.92578125 335.868164062 564.92578125 335.868164062 513.649414062 342.408203125 c 128,-1,97
 462.373046875 348.947265625 462.373046875 348.947265625 424.453125 360.102539062 c 128,-1,98
 386.534179688 371.258789062 386.534179688 371.258789062 364.990234375 386.259765625 c 128,-1,99
 343.4453125 401.26171875 343.4453125 401.26171875 343.4453125 418.186523438 c 0,80,81
343.4453125 603.916015625 m 0,100,101
 343.4453125 621.09765625 343.4453125 621.09765625 364.990234375 636.227539062 c 128,-1,102
 386.534179688 651.359375 386.534179688 651.359375 424.453125 662.513671875 c 128,-1,103
 462.373046875 673.668945312 462.373046875 673.668945312 513.649414062 680.079101562 c 128,-1,104
 564.92578125 686.490234375 564.92578125 686.490234375 624.388671875 686.490234375 c 256,105,106
 683.8515625 686.490234375 683.8515625 686.490234375 735.127929688 680.079101562 c 128,-1,107
 786.404296875 673.668945312 786.404296875 673.668945312 824.32421875 662.513671875 c 128,-1,108
 862.2421875 651.359375 862.2421875 651.359375 883.787109375 636.227539062 c 128,-1,109
 905.331054688 621.09765625 905.331054688 621.09765625 905.331054688 603.916015625 c 0,110,111
 905.331054688 586.991210938 905.331054688 586.991210938 883.787109375 571.989257812 c 128,-1,112
 862.2421875 556.987304688 862.2421875 556.987304688 824.32421875 545.83203125 c 128,-1,113
 786.404296875 534.676757812 786.404296875 534.676757812 735.127929688 528.137695312 c 128,-1,114
 683.8515625 521.59765625 683.8515625 521.59765625 624.388671875 521.59765625 c 256,115,116
 564.92578125 521.59765625 564.92578125 521.59765625 513.649414062 528.137695312 c 128,-1,117
 462.373046875 534.676757812 462.373046875 534.676757812 424.453125 545.83203125 c 128,-1,118
 386.534179688 556.987304688 386.534179688 556.987304688 364.990234375 571.989257812 c 128,-1,119
 343.4453125 586.991210938 343.4453125 586.991210938 343.4453125 603.916015625 c 0,100,101
452.892578125 603.66015625 m 256,120,121
 452.892578125 592.889648438 452.892578125 592.889648438 465.819335938 583.529296875 c 128,-1,122
 478.74609375 574.169921875 478.74609375 574.169921875 502.014648438 567.244140625 c 128,-1,123
 525.282226562 560.3203125 525.282226562 560.3203125 556.73828125 556.345703125 c 128,-1,124
 588.193359375 552.37109375 588.193359375 552.37109375 624.388671875 552.37109375 c 256,125,126
 660.583007812 552.37109375 660.583007812 552.37109375 691.607421875 556.345703125 c 128,-1,127
 722.6328125 560.3203125 722.6328125 560.3203125 745.899414062 567.244140625 c 128,-1,128
 769.168945312 574.169921875 769.168945312 574.169921875 782.096679688 583.529296875 c 128,-1,129
 795.022460938 592.889648438 795.022460938 592.889648438 795.022460938 603.66015625 c 256,130,131
 795.022460938 614.430664062 795.022460938 614.430664062 782.096679688 623.918945312 c 128,-1,132
 769.168945312 633.407226562 769.168945312 633.407226562 745.899414062 640.459960938 c 128,-1,133
 722.6328125 647.51171875 722.6328125 647.51171875 691.607421875 651.486328125 c 128,-1,134
 660.583007812 655.461914062 660.583007812 655.461914062 624.388671875 655.461914062 c 256,135,136
 588.193359375 655.461914062 588.193359375 655.461914062 556.73828125 651.486328125 c 128,-1,137
 525.282226562 647.51171875 525.282226562 647.51171875 502.014648438 640.459960938 c 128,-1,138
 478.74609375 633.407226562 478.74609375 633.407226562 465.819335938 623.918945312 c 128,-1,139
 452.892578125 614.430664062 452.892578125 614.430664062 452.892578125 603.66015625 c 256,120,121
EndSplineSet
EndChar

